STARTFONT 2.1
FONT -FontForge-Iosevka Fixed Extended-Book-I-Extended---8-80-75-75-P-38-ISO10646-1
SIZE 8 75 75
FONTBOUNDINGBOX 19 17 -10 -6
COMMENT "Generated by fontforge, http://fontforge.sourceforge.net"
COMMENT "Copyright 2015-2025, Renzhi Li (aka. Belleve Invis, belleve@typeof.net)."
STARTPROPERTIES 41
FOUNDRY "FontForge"
FAMILY_NAME "Iosevka Fixed Extended"
WEIGHT_NAME "Book"
SLANT "I"
SETWIDTH_NAME "Extended"
ADD_STYLE_NAME ""
PIXEL_SIZE 8
POINT_SIZE 80
RESOLUTION_X 75
RESOLUTION_Y 75
SPACING "P"
AVERAGE_WIDTH 38
CHARSET_REGISTRY "ISO10646"
CHARSET_ENCODING "1"
FONTNAME_REGISTRY ""
CHARSET_COLLECTIONS "ASCII ISOLatin1Encoding ISO8859-2 ISO8859-5 ISO8859-7 ISO8859-9 ISO8859-4 ISO10646-1"
FONT_NAME "Iosevka-Fixed-Extended-Italic"
FACE_NAME "Iosevka Fixed Extended Italic"
COPYRIGHT "Copyright 2015-2025, Renzhi Li (aka. Belleve Invis, belleve@typeof.net)."
FONT_VERSION "33.2.3"
FONT_ASCENT 6
FONT_DESCENT 2
UNDERLINE_POSITION -1
UNDERLINE_THICKNESS 1
X_HEIGHT 4
CAP_HEIGHT 6
RAW_ASCENT 800
RAW_DESCENT 200
ITALIC_ANGLE 5184
NORM_SPACE 5
RELATIVE_WEIGHT 40
RELATIVE_SETWIDTH 70
SUPERSCRIPT_X 0
SUPERSCRIPT_Y 3
SUPERSCRIPT_SIZE 5
SUBSCRIPT_X 0
SUBSCRIPT_Y 1
SUBSCRIPT_SIZE 5
FIGURE_WIDTH 5
AVG_LOWERCASE_WIDTH 49
AVG_UPPERCASE_WIDTH 50
ENDPROPERTIES
CHARS 34317
STARTCHAR nonmarkingreturn
ENCODING 13
SWIDTH 0 0
DWIDTH 0 0
BBX 1 1 0 0
BITMAP
00
ENDCHAR
STARTCHAR space
ENCODING 32
SWIDTH 600 0
DWIDTH 5 0
BBX 1 1 0 0
BITMAP
00
ENDCHAR
STARTCHAR exclam
ENCODING 33
SWIDTH 600 0
DWIDTH 5 0
BBX 2 7 1 0
BITMAP
40
40
40
40
40
00
C0
ENDCHAR
STARTCHAR quotedbl
ENCODING 34
SWIDTH 600 0
DWIDTH 5 0
BBX 3 3 1 4
BITMAP
A0
A0
A0
ENDCHAR
STARTCHAR numbersign
ENCODING 35
SWIDTH 600 0
DWIDTH 5 0
BBX 5 7 0 0
BITMAP
50
50
78
50
F0
60
60
ENDCHAR
STARTCHAR dollar
ENCODING 36
SWIDTH 600 0
DWIDTH 5 0
BBX 4 9 0 -1
BITMAP
10
20
70
70
60
30
B0
70
40
ENDCHAR
STARTCHAR percent
ENCODING 37
SWIDTH 600 0
DWIDTH 5 0
BBX 5 7 0 0
BITMAP
68
B0
B0
50
68
B0
B0
ENDCHAR
STARTCHAR ampersand
ENCODING 38
SWIDTH 600 0
DWIDTH 5 0
BBX 4 7 0 0
BITMAP
30
50
50
60
B0
90
70
ENDCHAR
STARTCHAR quotesingle
ENCODING 39
SWIDTH 600 0
DWIDTH 5 0
BBX 1 3 2 4
BITMAP
80
80
80
ENDCHAR
STARTCHAR parenleft
ENCODING 40
SWIDTH 600 0
DWIDTH 5 0
BBX 3 8 1 -1
BITMAP
20
40
40
80
80
80
80
40
ENDCHAR
STARTCHAR parenright
ENCODING 41
SWIDTH 600 0
DWIDTH 5 0
BBX 4 8 0 -1
BITMAP
20
20
10
10
10
20
20
C0
ENDCHAR
STARTCHAR asterisk
ENCODING 42
SWIDTH 600 0
DWIDTH 5 0
BBX 4 4 1 2
BITMAP
40
F0
40
A0
ENDCHAR
STARTCHAR plus
ENCODING 43
SWIDTH 600 0
DWIDTH 5 0
BBX 3 4 1 2
BITMAP
40
40
E0
40
ENDCHAR
STARTCHAR comma
ENCODING 44
SWIDTH 600 0
DWIDTH 5 0
BBX 2 3 1 -2
BITMAP
C0
40
80
ENDCHAR
STARTCHAR hyphen
ENCODING 45
SWIDTH 600 0
DWIDTH 5 0
BBX 3 1 1 3
BITMAP
E0
ENDCHAR
STARTCHAR period
ENCODING 46
SWIDTH 600 0
DWIDTH 5 0
BBX 2 1 1 0
BITMAP
C0
ENDCHAR
STARTCHAR slash
ENCODING 47
SWIDTH 600 0
DWIDTH 5 0
BBX 5 9 0 -1
BITMAP
08
10
10
20
20
40
40
40
80
ENDCHAR
STARTCHAR zero
ENCODING 48
SWIDTH 600 0
DWIDTH 5 0
BBX 4 7 0 0
BITMAP
30
50
50
70
50
90
60
ENDCHAR
STARTCHAR one
ENCODING 49
SWIDTH 600 0
DWIDTH 5 0
BBX 3 7 1 0
BITMAP
60
C0
40
40
40
40
40
ENDCHAR
STARTCHAR two
ENCODING 50
SWIDTH 600 0
DWIDTH 5 0
BBX 4 7 0 0
BITMAP
30
50
10
30
40
80
F0
ENDCHAR
STARTCHAR three
ENCODING 51
SWIDTH 600 0
DWIDTH 5 0
BBX 4 7 0 0
BITMAP
30
50
10
20
10
90
60
ENDCHAR
STARTCHAR four
ENCODING 52
SWIDTH 600 0
DWIDTH 5 0
BBX 4 7 0 0
BITMAP
10
20
20
50
F0
20
20
ENDCHAR
STARTCHAR five
ENCODING 53
SWIDTH 600 0
DWIDTH 5 0
BBX 4 7 0 0
BITMAP
70
40
70
50
10
90
60
ENDCHAR
STARTCHAR six
ENCODING 54
SWIDTH 600 0
DWIDTH 5 0
BBX 4 7 0 0
BITMAP
10
20
40
70
90
90
60
ENDCHAR
STARTCHAR seven
ENCODING 55
SWIDTH 600 0
DWIDTH 5 0
BBX 4 7 1 0
BITMAP
F0
20
20
40
40
40
80
ENDCHAR
STARTCHAR eight
ENCODING 56
SWIDTH 600 0
DWIDTH 5 0
BBX 4 7 0 0
BITMAP
30
50
50
20
50
90
60
ENDCHAR
STARTCHAR nine
ENCODING 57
SWIDTH 600 0
DWIDTH 5 0
BBX 3 7 1 0
BITMAP
60
A0
A0
E0
20
40
80
ENDCHAR
STARTCHAR colon
ENCODING 58
SWIDTH 600 0
DWIDTH 5 0
BBX 2 5 1 0
BITMAP
40
00
00
00
C0
ENDCHAR
STARTCHAR semicolon
ENCODING 59
SWIDTH 600 0
DWIDTH 5 0
BBX 2 7 1 -2
BITMAP
40
00
00
00
C0
40
80
ENDCHAR
STARTCHAR less
ENCODING 60
SWIDTH 600 0
DWIDTH 5 0
BBX 4 5 1 0
BITMAP
30
40
80
40
20
ENDCHAR
STARTCHAR equal
ENCODING 61
SWIDTH 600 0
DWIDTH 5 0
BBX 3 3 1 2
BITMAP
E0
00
E0
ENDCHAR
STARTCHAR greater
ENCODING 62
SWIDTH 600 0
DWIDTH 5 0
BBX 4 5 0 0
BITMAP
40
30
10
60
80
ENDCHAR
STARTCHAR question
ENCODING 63
SWIDTH 600 0
DWIDTH 5 0
BBX 3 7 1 0
BITMAP
60
A0
20
20
40
00
C0
ENDCHAR
STARTCHAR at
ENCODING 64
SWIDTH 600 0
DWIDTH 5 0
BBX 4 8 0 -1
BITMAP
30
50
70
70
B0
B0
80
60
ENDCHAR
STARTCHAR A
ENCODING 65
SWIDTH 600 0
DWIDTH 5 0
BBX 4 7 0 0
BITMAP
20
20
50
50
70
90
90
ENDCHAR
STARTCHAR B
ENCODING 66
SWIDTH 600 0
DWIDTH 5 0
BBX 4 7 0 0
BITMAP
70
50
50
60
90
90
E0
ENDCHAR
STARTCHAR C
ENCODING 67
SWIDTH 600 0
DWIDTH 5 0
BBX 4 7 0 0
BITMAP
30
50
40
40
80
90
60
ENDCHAR
STARTCHAR D
ENCODING 68
SWIDTH 600 0
DWIDTH 5 0
BBX 4 7 0 0
BITMAP
70
50
50
50
90
90
E0
ENDCHAR
STARTCHAR E
ENCODING 69
SWIDTH 600 0
DWIDTH 5 0
BBX 5 7 0 0
BITMAP
78
40
40
70
40
80
F0
ENDCHAR
STARTCHAR F
ENCODING 70
SWIDTH 600 0
DWIDTH 5 0
BBX 4 7 1 0
BITMAP
70
80
80
E0
80
80
80
ENDCHAR
STARTCHAR G
ENCODING 71
SWIDTH 600 0
DWIDTH 5 0
BBX 4 7 0 0
BITMAP
30
50
40
70
90
90
70
ENDCHAR
STARTCHAR H
ENCODING 72
SWIDTH 600 0
DWIDTH 5 0
BBX 5 7 0 0
BITMAP
48
48
50
70
90
90
90
ENDCHAR
STARTCHAR I
ENCODING 73
SWIDTH 600 0
DWIDTH 5 0
BBX 4 7 0 0
BITMAP
70
20
20
20
20
20
F0
ENDCHAR
STARTCHAR J
ENCODING 74
SWIDTH 600 0
DWIDTH 5 0
BBX 4 7 0 0
BITMAP
30
10
10
10
10
90
60
ENDCHAR
STARTCHAR K
ENCODING 75
SWIDTH 600 0
DWIDTH 5 0
BBX 5 7 0 0
BITMAP
58
50
60
60
60
A0
90
ENDCHAR
STARTCHAR L
ENCODING 76
SWIDTH 600 0
DWIDTH 5 0
BBX 3 7 1 0
BITMAP
80
80
80
80
80
80
E0
ENDCHAR
STARTCHAR M
ENCODING 77
SWIDTH 600 0
DWIDTH 5 0
BBX 5 7 0 0
BITMAP
48
58
D0
B0
B0
90
90
ENDCHAR
STARTCHAR N
ENCODING 78
SWIDTH 600 0
DWIDTH 5 0
BBX 5 7 0 0
BITMAP
48
48
70
70
B0
90
90
ENDCHAR
STARTCHAR O
ENCODING 79
SWIDTH 600 0
DWIDTH 5 0
BBX 4 7 0 0
BITMAP
30
50
50
50
90
90
60
ENDCHAR
STARTCHAR P
ENCODING 80
SWIDTH 600 0
DWIDTH 5 0
BBX 4 7 0 0
BITMAP
70
50
50
70
40
80
80
ENDCHAR
STARTCHAR Q
ENCODING 81
SWIDTH 600 0
DWIDTH 5 0
BBX 4 9 0 -2
BITMAP
30
50
50
50
90
90
60
40
20
ENDCHAR
STARTCHAR R
ENCODING 82
SWIDTH 600 0
DWIDTH 5 0
BBX 4 7 0 0
BITMAP
70
50
50
70
A0
90
90
ENDCHAR
STARTCHAR S
ENCODING 83
SWIDTH 600 0
DWIDTH 5 0
BBX 4 7 0 0
BITMAP
30
50
40
20
10
90
60
ENDCHAR
STARTCHAR T
ENCODING 84
SWIDTH 600 0
DWIDTH 5 0
BBX 4 7 1 0
BITMAP
F0
40
40
40
40
40
40
ENDCHAR
STARTCHAR U
ENCODING 85
SWIDTH 600 0
DWIDTH 5 0
BBX 4 7 1 0
BITMAP
90
90
A0
A0
A0
A0
C0
ENDCHAR
STARTCHAR V
ENCODING 86
SWIDTH 600 0
DWIDTH 5 0
BBX 4 7 1 0
BITMAP
90
A0
A0
A0
C0
C0
40
ENDCHAR
STARTCHAR W
ENCODING 87
SWIDTH 600 0
DWIDTH 5 0
BBX 4 7 1 0
BITMAP
90
90
E0
A0
A0
A0
C0
ENDCHAR
STARTCHAR X
ENCODING 88
SWIDTH 600 0
DWIDTH 5 0
BBX 5 7 0 0
BITMAP
48
50
20
20
20
60
90
ENDCHAR
STARTCHAR Y
ENCODING 89
SWIDTH 600 0
DWIDTH 5 0
BBX 4 7 1 0
BITMAP
90
A0
A0
40
40
40
40
ENDCHAR
STARTCHAR Z
ENCODING 90
SWIDTH 600 0
DWIDTH 5 0
BBX 5 7 0 0
BITMAP
78
10
10
20
40
40
F0
ENDCHAR
STARTCHAR bracketleft
ENCODING 91
SWIDTH 600 0
DWIDTH 5 0
BBX 3 9 1 -1
BITMAP
60
40
80
80
80
80
80
80
C0
ENDCHAR
STARTCHAR backslash
ENCODING 92
SWIDTH 600 0
DWIDTH 5 0
BBX 3 9 1 -1
BITMAP
80
80
40
40
40
40
40
40
20
ENDCHAR
STARTCHAR bracketright
ENCODING 93
SWIDTH 600 0
DWIDTH 5 0
BBX 4 9 0 -1
BITMAP
30
10
10
10
10
10
20
20
E0
ENDCHAR
STARTCHAR asciicircum
ENCODING 94
SWIDTH 600 0
DWIDTH 5 0
BBX 3 3 1 4
BITMAP
60
A0
A0
ENDCHAR
STARTCHAR underscore
ENCODING 95
SWIDTH 600 0
DWIDTH 5 0
BBX 4 1 0 -1
BITMAP
F0
ENDCHAR
STARTCHAR grave
ENCODING 96
SWIDTH 600 0
DWIDTH 5 0
BBX 1 2 2 4
BITMAP
80
80
ENDCHAR
STARTCHAR a
ENCODING 97
SWIDTH 600 0
DWIDTH 5 0
BBX 4 5 0 0
BITMAP
70
50
90
90
70
ENDCHAR
STARTCHAR b
ENCODING 98
SWIDTH 600 0
DWIDTH 5 0
BBX 4 7 0 0
BITMAP
40
40
70
50
90
90
E0
ENDCHAR
STARTCHAR c
ENCODING 99
SWIDTH 600 0
DWIDTH 5 0
BBX 4 5 0 0
BITMAP
70
50
80
90
60
ENDCHAR
STARTCHAR d
ENCODING 100
SWIDTH 600 0
DWIDTH 5 0
BBX 5 7 0 0
BITMAP
08
08
70
50
90
90
70
ENDCHAR
STARTCHAR e
ENCODING 101
SWIDTH 600 0
DWIDTH 5 0
BBX 4 5 0 0
BITMAP
70
50
70
90
60
ENDCHAR
STARTCHAR f
ENCODING 102
SWIDTH 600 0
DWIDTH 5 0
BBX 5 9 0 -2
BITMAP
18
20
70
20
20
20
40
40
C0
ENDCHAR
STARTCHAR g
ENCODING 103
SWIDTH 600 0
DWIDTH 5 0
BBX 4 7 0 -2
BITMAP
70
50
90
90
70
10
E0
ENDCHAR
STARTCHAR h
ENCODING 104
SWIDTH 600 0
DWIDTH 5 0
BBX 4 7 0 0
BITMAP
40
40
70
50
90
90
90
ENDCHAR
STARTCHAR i
ENCODING 105
SWIDTH 600 0
DWIDTH 5 0
BBX 3 7 1 0
BITMAP
40
00
C0
40
40
A0
60
ENDCHAR
STARTCHAR j
ENCODING 106
SWIDTH 600 0
DWIDTH 5 0
BBX 4 9 0 -2
BITMAP
10
00
60
20
20
20
20
A0
C0
ENDCHAR
STARTCHAR k
ENCODING 107
SWIDTH 600 0
DWIDTH 5 0
BBX 4 7 0 0
BITMAP
40
40
70
50
70
A0
B0
ENDCHAR
STARTCHAR l
ENCODING 108
SWIDTH 600 0
DWIDTH 5 0
BBX 3 7 1 0
BITMAP
C0
40
40
40
40
A0
60
ENDCHAR
STARTCHAR m
ENCODING 109
SWIDTH 600 0
DWIDTH 5 0
BBX 4 5 0 0
BITMAP
70
B0
B0
B0
B0
ENDCHAR
STARTCHAR n
ENCODING 110
SWIDTH 600 0
DWIDTH 5 0
BBX 4 5 0 0
BITMAP
70
50
90
90
90
ENDCHAR
STARTCHAR o
ENCODING 111
SWIDTH 600 0
DWIDTH 5 0
BBX 4 5 0 0
BITMAP
70
50
90
90
60
ENDCHAR
STARTCHAR p
ENCODING 112
SWIDTH 600 0
DWIDTH 5 0
BBX 4 7 0 -2
BITMAP
70
50
90
90
E0
80
80
ENDCHAR
STARTCHAR q
ENCODING 113
SWIDTH 600 0
DWIDTH 5 0
BBX 4 7 0 -2
BITMAP
70
50
90
90
70
10
10
ENDCHAR
STARTCHAR r
ENCODING 114
SWIDTH 600 0
DWIDTH 5 0
BBX 3 5 1 0
BITMAP
E0
A0
80
80
80
ENDCHAR
STARTCHAR s
ENCODING 115
SWIDTH 600 0
DWIDTH 5 0
BBX 4 5 0 0
BITMAP
70
40
20
90
60
ENDCHAR
STARTCHAR t
ENCODING 116
SWIDTH 600 0
DWIDTH 5 0
BBX 3 7 1 0
BITMAP
40
40
E0
40
80
A0
60
ENDCHAR
STARTCHAR u
ENCODING 117
SWIDTH 600 0
DWIDTH 5 0
BBX 4 5 0 0
BITMAP
50
50
90
90
70
ENDCHAR
STARTCHAR v
ENCODING 118
SWIDTH 600 0
DWIDTH 5 0
BBX 4 5 1 0
BITMAP
B0
A0
A0
C0
C0
ENDCHAR
STARTCHAR w
ENCODING 119
SWIDTH 600 0
DWIDTH 5 0
BBX 4 5 1 0
BITMAP
90
E0
E0
E0
C0
ENDCHAR
STARTCHAR x
ENCODING 120
SWIDTH 600 0
DWIDTH 5 0
BBX 4 5 0 0
BITMAP
50
60
20
60
90
ENDCHAR
STARTCHAR y
ENCODING 121
SWIDTH 600 0
DWIDTH 5 0
BBX 4 7 0 -2
BITMAP
50
50
90
90
70
10
E0
ENDCHAR
STARTCHAR z
ENCODING 122
SWIDTH 600 0
DWIDTH 5 0
BBX 4 5 0 0
BITMAP
70
10
20
40
F0
ENDCHAR
STARTCHAR braceleft
ENCODING 123
SWIDTH 600 0
DWIDTH 5 0
BBX 3 10 1 -2
BITMAP
20
40
40
40
40
80
40
80
80
40
ENDCHAR
STARTCHAR bar
ENCODING 124
SWIDTH 600 0
DWIDTH 5 0
BBX 2 9 1 -1
BITMAP
40
40
40
40
40
40
40
80
80
ENDCHAR
STARTCHAR braceright
ENCODING 125
SWIDTH 600 0
DWIDTH 5 0
BBX 4 10 0 -2
BITMAP
20
10
10
20
20
10
20
20
20
C0
ENDCHAR
STARTCHAR asciitilde
ENCODING 126
SWIDTH 600 0
DWIDTH 5 0
BBX 4 2 0 2
BITMAP
50
B0
ENDCHAR
STARTCHAR nonbreakingspace
ENCODING 160
SWIDTH 600 0
DWIDTH 5 0
BBX 1 1 0 0
BITMAP
00
ENDCHAR
STARTCHAR exclamdown
ENCODING 161
SWIDTH 600 0
DWIDTH 5 0
BBX 2 7 1 -2
BITMAP
40
00
00
40
40
80
80
ENDCHAR
STARTCHAR cent
ENCODING 162
SWIDTH 600 0
DWIDTH 5 0
BBX 4 7 0 -1
BITMAP
20
70
70
A0
B0
60
40
ENDCHAR
STARTCHAR sterling
ENCODING 163
SWIDTH 600 0
DWIDTH 5 0
BBX 4 7 0 0
BITMAP
30
50
40
60
40
40
F0
ENDCHAR
STARTCHAR currency
ENCODING 164
SWIDTH 600 0
DWIDTH 5 0
BBX 5 4 0 1
BITMAP
78
50
50
F0
ENDCHAR
STARTCHAR yen
ENCODING 165
SWIDTH 600 0
DWIDTH 5 0
BBX 5 7 0 0
BITMAP
48
50
50
20
70
F0
20
ENDCHAR
STARTCHAR brokenbar
ENCODING 166
SWIDTH 600 0
DWIDTH 5 0
BBX 2 9 1 -1
BITMAP
40
40
40
40
00
40
40
80
80
ENDCHAR
STARTCHAR section
ENCODING 167
SWIDTH 600 0
DWIDTH 5 0
BBX 5 10 0 -2
BITMAP
30
48
40
60
50
50
60
10
90
60
ENDCHAR
STARTCHAR dieresis
ENCODING 168
SWIDTH 600 0
DWIDTH 5 0
BBX 3 1 1 6
BITMAP
A0
ENDCHAR
STARTCHAR copyright.NWID
ENCODING 169
SWIDTH 600 0
DWIDTH 5 0
BBX 5 8 0 -1
BITMAP
70
48
B8
48
C8
F0
90
60
ENDCHAR
STARTCHAR ordfeminine
ENCODING 170
SWIDTH 600 0
DWIDTH 5 0
BBX 3 5 1 1
BITMAP
60
A0
E0
00
E0
ENDCHAR
STARTCHAR guillemotleft
ENCODING 171
SWIDTH 600 0
DWIDTH 5 0
BBX 5 4 0 1
BITMAP
28
50
A0
50
ENDCHAR
STARTCHAR logicalnot
ENCODING 172
SWIDTH 600 0
DWIDTH 5 0
BBX 3 3 1 1
BITMAP
E0
20
20
ENDCHAR
STARTCHAR uni00AD
ENCODING 173
SWIDTH 600 0
DWIDTH 5 0
BBX 3 1 1 3
BITMAP
E0
ENDCHAR
STARTCHAR registered
ENCODING 174
SWIDTH 600 0
DWIDTH 5 0
BBX 4 5 1 4
BITMAP
60
F0
F0
A0
E0
ENDCHAR
STARTCHAR macron
ENCODING 175
SWIDTH 600 0
DWIDTH 5 0
BBX 4 1 1 6
BITMAP
F0
ENDCHAR
STARTCHAR degree
ENCODING 176
SWIDTH 600 0
DWIDTH 5 0
BBX 2 2 2 5
BITMAP
C0
C0
ENDCHAR
STARTCHAR plusminus
ENCODING 177
SWIDTH 600 0
DWIDTH 5 0
BBX 4 6 0 0
BITMAP
20
20
70
20
20
F0
ENDCHAR
STARTCHAR twosuperior
ENCODING 178
SWIDTH 600 0
DWIDTH 5 0
BBX 3 4 1 3
BITMAP
60
20
40
E0
ENDCHAR
STARTCHAR threesuperior
ENCODING 179
SWIDTH 600 0
DWIDTH 5 0
BBX 3 4 1 3
BITMAP
60
40
20
E0
ENDCHAR
STARTCHAR acute
ENCODING 180
SWIDTH 600 0
DWIDTH 5 0
BBX 2 2 2 4
BITMAP
40
80
ENDCHAR
STARTCHAR mu
ENCODING 181
SWIDTH 600 0
DWIDTH 5 0
BBX 4 7 0 -2
BITMAP
50
50
90
90
F0
80
80
ENDCHAR
STARTCHAR paragraph
ENCODING 182
SWIDTH 600 0
DWIDTH 5 0
BBX 4 7 1 0
BITMAP
70
D0
D0
E0
60
60
60
ENDCHAR
STARTCHAR periodcentered
ENCODING 183
SWIDTH 600 0
DWIDTH 5 0
BBX 1 1 2 3
BITMAP
80
ENDCHAR
STARTCHAR cedilla
ENCODING 184
SWIDTH 600 0
DWIDTH 5 0
BBX 2 2 1 -2
BITMAP
80
C0
ENDCHAR
STARTCHAR onesuperior
ENCODING 185
SWIDTH 600 0
DWIDTH 5 0
BBX 2 4 2 3
BITMAP
C0
80
80
80
ENDCHAR
STARTCHAR ordmasculine
ENCODING 186
SWIDTH 600 0
DWIDTH 5 0
BBX 3 5 1 1
BITMAP
60
A0
E0
00
E0
ENDCHAR
STARTCHAR guillemotright
ENCODING 187
SWIDTH 600 0
DWIDTH 5 0
BBX 4 4 0 1
BITMAP
60
50
70
A0
ENDCHAR
STARTCHAR onequarter
ENCODING 188
SWIDTH 600 0
DWIDTH 5 0
BBX 3 9 1 -1
BITMAP
20
40
40
40
E0
40
80
C0
40
ENDCHAR
STARTCHAR onehalf
ENCODING 189
SWIDTH 600 0
DWIDTH 5 0
BBX 3 9 1 -1
BITMAP
20
40
40
40
E0
40
C0
40
C0
ENDCHAR
STARTCHAR threequarters
ENCODING 190
SWIDTH 600 0
DWIDTH 5 0
BBX 3 8 1 -1
BITMAP
60
20
20
E0
40
80
C0
40
ENDCHAR
STARTCHAR questiondown
ENCODING 191
SWIDTH 600 0
DWIDTH 5 0
BBX 4 7 0 -2
BITMAP
20
00
20
40
80
90
60
ENDCHAR
STARTCHAR Agrave
ENCODING 192
SWIDTH 600 0
DWIDTH 5 0
BBX 4 8 0 0
BITMAP
20
30
20
50
50
70
90
90
ENDCHAR
STARTCHAR Aacute
ENCODING 193
SWIDTH 600 0
DWIDTH 5 0
BBX 4 8 0 0
BITMAP
10
20
20
50
50
70
90
90
ENDCHAR
STARTCHAR Acircumflex
ENCODING 194
SWIDTH 600 0
DWIDTH 5 0
BBX 4 9 0 0
BITMAP
10
30
20
20
50
50
70
90
90
ENDCHAR
STARTCHAR Atilde
ENCODING 195
SWIDTH 600 0
DWIDTH 5 0
BBX 5 9 0 0
BITMAP
78
00
20
20
50
50
70
90
90
ENDCHAR
STARTCHAR Adieresis
ENCODING 196
SWIDTH 600 0
DWIDTH 5 0
BBX 5 9 0 0
BITMAP
28
00
20
20
50
50
70
90
90
ENDCHAR
STARTCHAR Aring
ENCODING 197
SWIDTH 600 0
DWIDTH 5 0
BBX 4 8 0 0
BITMAP
30
20
20
50
50
70
90
90
ENDCHAR
STARTCHAR AE
ENCODING 198
SWIDTH 600 0
DWIDTH 5 0
BBX 5 7 0 0
BITMAP
38
20
20
70
60
A0
B0
ENDCHAR
STARTCHAR Ccedilla
ENCODING 199
SWIDTH 600 0
DWIDTH 5 0
BBX 4 9 0 -2
BITMAP
30
50
40
40
80
90
60
20
60
ENDCHAR
STARTCHAR Egrave
ENCODING 200
SWIDTH 600 0
DWIDTH 5 0
BBX 5 8 0 0
BITMAP
20
78
40
40
70
40
80
F0
ENDCHAR
STARTCHAR Eacute
ENCODING 201
SWIDTH 600 0
DWIDTH 5 0
BBX 5 8 0 0
BITMAP
10
78
40
40
70
40
80
F0
ENDCHAR
STARTCHAR Ecircumflex
ENCODING 202
SWIDTH 600 0
DWIDTH 5 0
BBX 5 9 0 0
BITMAP
10
30
78
40
40
70
40
80
F0
ENDCHAR
STARTCHAR Edieresis
ENCODING 203
SWIDTH 600 0
DWIDTH 5 0
BBX 5 9 0 0
BITMAP
28
00
78
40
40
70
40
80
F0
ENDCHAR
STARTCHAR Igrave
ENCODING 204
SWIDTH 600 0
DWIDTH 5 0
BBX 4 8 0 0
BITMAP
20
70
20
20
20
20
20
F0
ENDCHAR
STARTCHAR Iacute
ENCODING 205
SWIDTH 600 0
DWIDTH 5 0
BBX 4 8 0 0
BITMAP
10
70
20
20
20
20
20
F0
ENDCHAR
STARTCHAR Icircumflex
ENCODING 206
SWIDTH 600 0
DWIDTH 5 0
BBX 4 9 0 0
BITMAP
10
30
70
20
20
20
20
20
F0
ENDCHAR
STARTCHAR Idieresis
ENCODING 207
SWIDTH 600 0
DWIDTH 5 0
BBX 5 9 0 0
BITMAP
28
00
70
20
20
20
20
20
F0
ENDCHAR
STARTCHAR Eth
ENCODING 208
SWIDTH 600 0
DWIDTH 5 0
BBX 4 7 0 0
BITMAP
70
50
50
D0
90
90
E0
ENDCHAR
STARTCHAR Ntilde
ENCODING 209
SWIDTH 600 0
DWIDTH 5 0
BBX 5 9 0 0
BITMAP
78
00
48
48
70
70
B0
90
90
ENDCHAR
STARTCHAR Ograve
ENCODING 210
SWIDTH 600 0
DWIDTH 5 0
BBX 4 8 0 0
BITMAP
20
30
50
50
50
90
90
60
ENDCHAR
STARTCHAR Oacute
ENCODING 211
SWIDTH 600 0
DWIDTH 5 0
BBX 4 8 0 0
BITMAP
10
30
50
50
50
90
90
60
ENDCHAR
STARTCHAR Ocircumflex
ENCODING 212
SWIDTH 600 0
DWIDTH 5 0
BBX 4 9 0 0
BITMAP
10
30
30
50
50
50
90
90
60
ENDCHAR
STARTCHAR Otilde
ENCODING 213
SWIDTH 600 0
DWIDTH 5 0
BBX 5 9 0 0
BITMAP
78
00
30
48
48
50
90
90
60
ENDCHAR
STARTCHAR Odieresis
ENCODING 214
SWIDTH 600 0
DWIDTH 5 0
BBX 5 9 0 0
BITMAP
28
00
30
48
48
50
90
90
60
ENDCHAR
STARTCHAR multiply
ENCODING 215
SWIDTH 600 0
DWIDTH 5 0
BBX 5 4 0 1
BITMAP
88
50
20
D0
ENDCHAR
STARTCHAR Oslash
ENCODING 216
SWIDTH 600 0
DWIDTH 5 0
BBX 5 7 0 0
BITMAP
38
50
68
70
D0
D0
E0
ENDCHAR
STARTCHAR Ugrave
ENCODING 217
SWIDTH 600 0
DWIDTH 5 0
BBX 4 8 1 0
BITMAP
40
B0
90
A0
A0
A0
A0
C0
ENDCHAR
STARTCHAR Uacute
ENCODING 218
SWIDTH 600 0
DWIDTH 5 0
BBX 4 8 1 0
BITMAP
20
D0
90
A0
A0
A0
A0
C0
ENDCHAR
STARTCHAR Ucircumflex
ENCODING 219
SWIDTH 600 0
DWIDTH 5 0
BBX 4 9 1 0
BITMAP
20
60
90
90
A0
A0
A0
A0
C0
ENDCHAR
STARTCHAR Udieresis
ENCODING 220
SWIDTH 600 0
DWIDTH 5 0
BBX 4 9 1 0
BITMAP
50
00
90
90
A0
A0
A0
A0
C0
ENDCHAR
STARTCHAR Yacute
ENCODING 221
SWIDTH 600 0
DWIDTH 5 0
BBX 4 8 1 0
BITMAP
20
D0
A0
A0
40
40
40
40
ENDCHAR
STARTCHAR Thorn
ENCODING 222
SWIDTH 600 0
DWIDTH 5 0
BBX 4 7 0 0
BITMAP
40
70
50
50
50
60
80
ENDCHAR
STARTCHAR germandbls
ENCODING 223
SWIDTH 600 0
DWIDTH 5 0
BBX 5 9 -1 -2
BITMAP
18
28
28
38
48
48
70
40
80
ENDCHAR
STARTCHAR agrave
ENCODING 224
SWIDTH 600 0
DWIDTH 5 0
BBX 4 6 0 0
BITMAP
20
70
50
90
90
70
ENDCHAR
STARTCHAR aacute
ENCODING 225
SWIDTH 600 0
DWIDTH 5 0
BBX 4 6 0 0
BITMAP
10
70
50
90
90
70
ENDCHAR
STARTCHAR acircumflex
ENCODING 226
SWIDTH 600 0
DWIDTH 5 0
BBX 4 7 0 0
BITMAP
30
50
70
50
90
90
70
ENDCHAR
STARTCHAR atilde
ENCODING 227
SWIDTH 600 0
DWIDTH 5 0
BBX 5 8 0 0
BITMAP
28
50
00
70
50
90
90
70
ENDCHAR
STARTCHAR adieresis
ENCODING 228
SWIDTH 600 0
DWIDTH 5 0
BBX 4 7 0 0
BITMAP
50
00
70
50
90
90
70
ENDCHAR
STARTCHAR aring
ENCODING 229
SWIDTH 600 0
DWIDTH 5 0
BBX 4 7 0 0
BITMAP
30
20
70
50
90
90
70
ENDCHAR
STARTCHAR ae
ENCODING 230
SWIDTH 600 0
DWIDTH 5 0
BBX 4 5 0 0
BITMAP
70
30
70
A0
F0
ENDCHAR
STARTCHAR ccedilla
ENCODING 231
SWIDTH 600 0
DWIDTH 5 0
BBX 4 7 0 -2
BITMAP
70
50
80
90
60
20
60
ENDCHAR
STARTCHAR egrave
ENCODING 232
SWIDTH 600 0
DWIDTH 5 0
BBX 4 6 0 0
BITMAP
20
70
50
70
90
60
ENDCHAR
STARTCHAR eacute
ENCODING 233
SWIDTH 600 0
DWIDTH 5 0
BBX 4 6 0 0
BITMAP
10
70
50
70
90
60
ENDCHAR
STARTCHAR ecircumflex
ENCODING 234
SWIDTH 600 0
DWIDTH 5 0
BBX 4 7 0 0
BITMAP
30
50
70
50
70
90
60
ENDCHAR
STARTCHAR edieresis
ENCODING 235
SWIDTH 600 0
DWIDTH 5 0
BBX 4 7 0 0
BITMAP
50
00
70
50
70
90
60
ENDCHAR
STARTCHAR igrave
ENCODING 236
SWIDTH 600 0
DWIDTH 5 0
BBX 3 6 1 0
BITMAP
40
C0
40
40
A0
60
ENDCHAR
STARTCHAR iacute
ENCODING 237
SWIDTH 600 0
DWIDTH 5 0
BBX 3 6 1 0
BITMAP
20
C0
40
40
A0
60
ENDCHAR
STARTCHAR icircumflex
ENCODING 238
SWIDTH 600 0
DWIDTH 5 0
BBX 3 7 1 0
BITMAP
40
A0
C0
40
40
A0
60
ENDCHAR
STARTCHAR idieresis
ENCODING 239
SWIDTH 600 0
DWIDTH 5 0
BBX 3 7 1 0
BITMAP
A0
00
C0
40
40
A0
60
ENDCHAR
STARTCHAR eth
ENCODING 240
SWIDTH 600 0
DWIDTH 5 0
BBX 4 7 0 0
BITMAP
40
30
70
70
90
90
60
ENDCHAR
STARTCHAR ntilde
ENCODING 241
SWIDTH 600 0
DWIDTH 5 0
BBX 5 8 0 0
BITMAP
28
50
00
70
50
90
90
90
ENDCHAR
STARTCHAR ograve
ENCODING 242
SWIDTH 600 0
DWIDTH 5 0
BBX 4 6 0 0
BITMAP
20
70
50
90
90
60
ENDCHAR
STARTCHAR oacute
ENCODING 243
SWIDTH 600 0
DWIDTH 5 0
BBX 4 6 0 0
BITMAP
10
70
50
90
90
60
ENDCHAR
STARTCHAR ocircumflex
ENCODING 244
SWIDTH 600 0
DWIDTH 5 0
BBX 4 7 0 0
BITMAP
30
50
70
50
90
90
60
ENDCHAR
STARTCHAR otilde
ENCODING 245
SWIDTH 600 0
DWIDTH 5 0
BBX 5 8 0 0
BITMAP
28
50
00
70
50
90
90
60
ENDCHAR
STARTCHAR odieresis
ENCODING 246
SWIDTH 600 0
DWIDTH 5 0
BBX 4 7 0 0
BITMAP
50
00
70
50
90
90
60
ENDCHAR
STARTCHAR divide
ENCODING 247
SWIDTH 600 0
DWIDTH 5 0
BBX 3 5 1 1
BITMAP
40
00
E0
00
40
ENDCHAR
STARTCHAR oslash
ENCODING 248
SWIDTH 600 0
DWIDTH 5 0
BBX 4 5 0 0
BITMAP
70
50
B0
D0
E0
ENDCHAR
STARTCHAR ugrave
ENCODING 249
SWIDTH 600 0
DWIDTH 5 0
BBX 4 6 0 0
BITMAP
20
50
50
90
90
70
ENDCHAR
STARTCHAR uacute
ENCODING 250
SWIDTH 600 0
DWIDTH 5 0
BBX 4 6 0 0
BITMAP
10
70
50
90
90
70
ENDCHAR
STARTCHAR ucircumflex
ENCODING 251
SWIDTH 600 0
DWIDTH 5 0
BBX 4 7 0 0
BITMAP
30
50
50
50
90
90
70
ENDCHAR
STARTCHAR udieresis
ENCODING 252
SWIDTH 600 0
DWIDTH 5 0
BBX 4 7 0 0
BITMAP
50
00
50
50
90
90
70
ENDCHAR
STARTCHAR yacute
ENCODING 253
SWIDTH 600 0
DWIDTH 5 0
BBX 4 8 0 -2
BITMAP
10
70
50
90
90
70
10
E0
ENDCHAR
STARTCHAR thorn
ENCODING 254
SWIDTH 600 0
DWIDTH 5 0
BBX 4 9 0 -2
BITMAP
40
40
70
50
90
90
E0
80
80
ENDCHAR
STARTCHAR ydieresis
ENCODING 255
SWIDTH 600 0
DWIDTH 5 0
BBX 4 9 0 -2
BITMAP
50
00
50
50
90
90
70
10
E0
ENDCHAR
STARTCHAR uni0100
ENCODING 256
SWIDTH 600 0
DWIDTH 5 0
BBX 5 9 0 0
BITMAP
38
00
20
20
50
50
70
90
90
ENDCHAR
STARTCHAR uni0101
ENCODING 257
SWIDTH 600 0
DWIDTH 5 0
BBX 4 7 0 0
BITMAP
70
00
70
50
90
90
70
ENDCHAR
STARTCHAR uni0102
ENCODING 258
SWIDTH 600 0
DWIDTH 5 0
BBX 5 8 0 0
BITMAP
38
20
20
50
50
70
90
90
ENDCHAR
STARTCHAR uni0103
ENCODING 259
SWIDTH 600 0
DWIDTH 5 0
BBX 4 7 0 0
BITMAP
50
30
70
50
90
90
70
ENDCHAR
STARTCHAR uni0104
ENCODING 260
SWIDTH 600 0
DWIDTH 5 0
BBX 4 9 0 -2
BITMAP
20
20
50
50
70
90
90
20
30
ENDCHAR
STARTCHAR uni0105
ENCODING 261
SWIDTH 600 0
DWIDTH 5 0
BBX 4 7 0 -2
BITMAP
70
50
90
90
70
10
10
ENDCHAR
STARTCHAR Cacute
ENCODING 262
SWIDTH 600 0
DWIDTH 5 0
BBX 4 8 0 0
BITMAP
10
30
50
40
40
80
90
60
ENDCHAR
STARTCHAR cacute
ENCODING 263
SWIDTH 600 0
DWIDTH 5 0
BBX 4 6 0 0
BITMAP
10
70
50
80
90
60
ENDCHAR
STARTCHAR uni0108
ENCODING 264
SWIDTH 600 0
DWIDTH 5 0
BBX 4 9 0 0
BITMAP
10
30
30
50
40
40
80
90
60
ENDCHAR
STARTCHAR uni0109
ENCODING 265
SWIDTH 600 0
DWIDTH 5 0
BBX 4 7 0 0
BITMAP
30
50
70
50
80
90
60
ENDCHAR
STARTCHAR uni010A
ENCODING 266
SWIDTH 600 0
DWIDTH 5 0
BBX 4 9 0 0
BITMAP
10
00
30
50
40
40
80
90
60
ENDCHAR
STARTCHAR uni010B
ENCODING 267
SWIDTH 600 0
DWIDTH 5 0
BBX 4 7 0 0
BITMAP
20
00
70
50
80
90
60
ENDCHAR
STARTCHAR Ccaron
ENCODING 268
SWIDTH 600 0
DWIDTH 5 0
BBX 4 9 0 0
BITMAP
30
00
30
50
40
40
80
90
60
ENDCHAR
STARTCHAR ccaron
ENCODING 269
SWIDTH 600 0
DWIDTH 5 0
BBX 4 8 0 0
BITMAP
30
30
00
70
50
80
90
60
ENDCHAR
STARTCHAR uni010E
ENCODING 270
SWIDTH 600 0
DWIDTH 5 0
BBX 4 9 0 0
BITMAP
30
00
70
50
50
50
90
90
E0
ENDCHAR
STARTCHAR uni010F
ENCODING 271
SWIDTH 600 0
DWIDTH 5 0
BBX 5 7 0 0
BITMAP
18
18
70
50
90
90
70
ENDCHAR
STARTCHAR uni0110
ENCODING 272
SWIDTH 600 0
DWIDTH 5 0
BBX 4 7 0 0
BITMAP
70
50
50
D0
90
90
E0
ENDCHAR
STARTCHAR dcroat
ENCODING 273
SWIDTH 600 0
DWIDTH 5 0
BBX 5 7 0 0
BITMAP
08
18
70
50
90
90
70
ENDCHAR
STARTCHAR uni0112
ENCODING 274
SWIDTH 600 0
DWIDTH 5 0
BBX 5 9 0 0
BITMAP
38
00
78
40
40
70
40
80
F0
ENDCHAR
STARTCHAR uni0113
ENCODING 275
SWIDTH 600 0
DWIDTH 5 0
BBX 4 7 0 0
BITMAP
70
00
70
50
70
90
60
ENDCHAR
STARTCHAR uni0114
ENCODING 276
SWIDTH 600 0
DWIDTH 5 0
BBX 5 8 0 0
BITMAP
38
78
40
40
70
40
80
F0
ENDCHAR
STARTCHAR uni0115
ENCODING 277
SWIDTH 600 0
DWIDTH 5 0
BBX 4 7 0 0
BITMAP
50
30
70
50
70
90
60
ENDCHAR
STARTCHAR uni0116
ENCODING 278
SWIDTH 600 0
DWIDTH 5 0
BBX 5 9 0 0
BITMAP
10
00
78
40
40
70
40
80
F0
ENDCHAR
STARTCHAR uni0117
ENCODING 279
SWIDTH 600 0
DWIDTH 5 0
BBX 4 7 0 0
BITMAP
20
00
70
50
70
90
60
ENDCHAR
STARTCHAR uni0118
ENCODING 280
SWIDTH 600 0
DWIDTH 5 0
BBX 5 9 0 -2
BITMAP
78
40
40
70
40
80
F0
20
30
ENDCHAR
STARTCHAR uni0119
ENCODING 281
SWIDTH 600 0
DWIDTH 5 0
BBX 4 7 0 -2
BITMAP
70
50
70
90
70
20
30
ENDCHAR
STARTCHAR uni011A
ENCODING 282
SWIDTH 600 0
DWIDTH 5 0
BBX 5 9 0 0
BITMAP
30
00
78
40
40
70
40
80
F0
ENDCHAR
STARTCHAR uni011B
ENCODING 283
SWIDTH 600 0
DWIDTH 5 0
BBX 4 8 0 0
BITMAP
30
30
00
70
50
70
90
60
ENDCHAR
STARTCHAR uni011C
ENCODING 284
SWIDTH 600 0
DWIDTH 5 0
BBX 4 9 0 0
BITMAP
10
30
30
50
40
70
90
90
70
ENDCHAR
STARTCHAR uni011D
ENCODING 285
SWIDTH 600 0
DWIDTH 5 0
BBX 4 9 0 -2
BITMAP
30
50
70
50
90
90
70
10
E0
ENDCHAR
STARTCHAR Gbreve
ENCODING 286
SWIDTH 600 0
DWIDTH 5 0
BBX 5 8 0 0
BITMAP
38
30
48
40
70
90
90
70
ENDCHAR
STARTCHAR gbreve
ENCODING 287
SWIDTH 600 0
DWIDTH 5 0
BBX 4 9 0 -2
BITMAP
50
30
70
50
90
90
70
10
E0
ENDCHAR
STARTCHAR uni0120
ENCODING 288
SWIDTH 600 0
DWIDTH 5 0
BBX 4 9 0 0
BITMAP
10
00
30
50
40
70
90
90
70
ENDCHAR
STARTCHAR uni0121
ENCODING 289
SWIDTH 600 0
DWIDTH 5 0
BBX 4 9 0 -2
BITMAP
20
00
70
50
90
90
70
10
E0
ENDCHAR
STARTCHAR uni0122
ENCODING 290
SWIDTH 600 0
DWIDTH 5 0
BBX 4 9 0 -2
BITMAP
30
50
40
70
90
90
70
40
40
ENDCHAR
STARTCHAR uni0123
ENCODING 291
SWIDTH 600 0
DWIDTH 5 0
BBX 4 9 0 -2
BITMAP
10
20
70
50
90
90
70
10
E0
ENDCHAR
STARTCHAR uni0124
ENCODING 292
SWIDTH 600 0
DWIDTH 5 0
BBX 5 9 0 0
BITMAP
10
30
48
48
50
70
90
90
90
ENDCHAR
STARTCHAR uni0125
ENCODING 293
SWIDTH 600 0
DWIDTH 5 0
BBX 4 9 0 0
BITMAP
40
A0
40
40
70
50
90
90
90
ENDCHAR
STARTCHAR uni0126
ENCODING 294
SWIDTH 600 0
DWIDTH 5 0
BBX 5 7 0 0
BITMAP
48
78
50
70
90
90
90
ENDCHAR
STARTCHAR uni0127
ENCODING 295
SWIDTH 600 0
DWIDTH 5 0
BBX 4 7 0 0
BITMAP
40
60
70
50
90
90
90
ENDCHAR
STARTCHAR uni0128
ENCODING 296
SWIDTH 600 0
DWIDTH 5 0
BBX 5 9 0 0
BITMAP
78
00
70
20
20
20
20
20
F0
ENDCHAR
STARTCHAR uni0129
ENCODING 297
SWIDTH 600 0
DWIDTH 5 0
BBX 4 8 1 0
BITMAP
50
A0
00
C0
40
40
A0
60
ENDCHAR
STARTCHAR uni012A
ENCODING 298
SWIDTH 600 0
DWIDTH 5 0
BBX 5 9 0 0
BITMAP
38
00
70
20
20
20
20
20
F0
ENDCHAR
STARTCHAR uni012B
ENCODING 299
SWIDTH 600 0
DWIDTH 5 0
BBX 3 7 1 0
BITMAP
E0
00
C0
40
40
A0
60
ENDCHAR
STARTCHAR uni012C
ENCODING 300
SWIDTH 600 0
DWIDTH 5 0
BBX 5 8 0 0
BITMAP
38
70
20
20
20
20
20
F0
ENDCHAR
STARTCHAR uni012D
ENCODING 301
SWIDTH 600 0
DWIDTH 5 0
BBX 3 7 1 0
BITMAP
A0
60
C0
40
40
A0
60
ENDCHAR
STARTCHAR uni012E
ENCODING 302
SWIDTH 600 0
DWIDTH 5 0
BBX 4 9 0 -2
BITMAP
70
20
20
20
20
20
F0
20
30
ENDCHAR
STARTCHAR uni012F
ENCODING 303
SWIDTH 600 0
DWIDTH 5 0
BBX 3 9 1 -2
BITMAP
40
00
C0
40
40
A0
60
80
C0
ENDCHAR
STARTCHAR Idotaccent
ENCODING 304
SWIDTH 600 0
DWIDTH 5 0
BBX 4 9 0 0
BITMAP
10
00
70
20
20
20
20
20
F0
ENDCHAR
STARTCHAR dotlessi
ENCODING 305
SWIDTH 600 0
DWIDTH 5 0
BBX 3 5 1 0
BITMAP
C0
40
40
A0
60
ENDCHAR
STARTCHAR uni0132.NWID
ENCODING 306
SWIDTH 600 0
DWIDTH 5 0
BBX 5 7 0 0
BITMAP
78
48
48
48
50
B0
F0
ENDCHAR
STARTCHAR uni0133.NWID
ENCODING 307
SWIDTH 600 0
DWIDTH 5 0
BBX 5 9 0 -2
BITMAP
48
00
D8
48
50
B0
50
50
20
ENDCHAR
STARTCHAR uni0134
ENCODING 308
SWIDTH 600 0
DWIDTH 5 0
BBX 5 9 0 0
BITMAP
08
18
30
10
10
10
10
90
60
ENDCHAR
STARTCHAR uni0135
ENCODING 309
SWIDTH 600 0
DWIDTH 5 0
BBX 4 9 0 -2
BITMAP
10
30
60
20
20
20
20
A0
C0
ENDCHAR
STARTCHAR uni0136
ENCODING 310
SWIDTH 600 0
DWIDTH 5 0
BBX 5 9 0 -2
BITMAP
58
50
60
60
60
A0
90
40
40
ENDCHAR
STARTCHAR uni0137
ENCODING 311
SWIDTH 600 0
DWIDTH 5 0
BBX 4 9 0 -2
BITMAP
40
40
70
50
70
A0
B0
40
40
ENDCHAR
STARTCHAR uni0138
ENCODING 312
SWIDTH 600 0
DWIDTH 5 0
BBX 4 5 0 0
BITMAP
50
60
40
A0
90
ENDCHAR
STARTCHAR uni0139
ENCODING 313
SWIDTH 600 0
DWIDTH 5 0
BBX 3 8 1 0
BITMAP
40
80
80
80
80
80
80
E0
ENDCHAR
STARTCHAR uni013A
ENCODING 314
SWIDTH 600 0
DWIDTH 5 0
BBX 3 8 1 0
BITMAP
20
C0
40
40
40
40
A0
60
ENDCHAR
STARTCHAR uni013B
ENCODING 315
SWIDTH 600 0
DWIDTH 5 0
BBX 3 9 1 -2
BITMAP
80
80
80
80
80
80
E0
80
80
ENDCHAR
STARTCHAR uni013C
ENCODING 316
SWIDTH 600 0
DWIDTH 5 0
BBX 3 9 1 -2
BITMAP
C0
40
40
40
40
A0
60
80
80
ENDCHAR
STARTCHAR uni013D
ENCODING 317
SWIDTH 600 0
DWIDTH 5 0
BBX 4 7 1 0
BITMAP
90
A0
80
80
80
80
E0
ENDCHAR
STARTCHAR uni013E
ENCODING 318
SWIDTH 600 0
DWIDTH 5 0
BBX 4 7 1 0
BITMAP
D0
60
40
40
40
A0
60
ENDCHAR
STARTCHAR uni013F
ENCODING 319
SWIDTH 600 0
DWIDTH 5 0
BBX 3 7 1 0
BITMAP
80
80
80
A0
80
80
E0
ENDCHAR
STARTCHAR uni0140
ENCODING 320
SWIDTH 600 0
DWIDTH 5 0
BBX 3 7 1 0
BITMAP
C0
40
40
A0
80
A0
60
ENDCHAR
STARTCHAR Lslash
ENCODING 321
SWIDTH 600 0
DWIDTH 5 0
BBX 4 7 0 0
BITMAP
40
40
60
C0
40
40
70
ENDCHAR
STARTCHAR lslash
ENCODING 322
SWIDTH 600 0
DWIDTH 5 0
BBX 3 7 1 0
BITMAP
C0
40
60
C0
40
A0
60
ENDCHAR
STARTCHAR uni0143
ENCODING 323
SWIDTH 600 0
DWIDTH 5 0
BBX 5 8 0 0
BITMAP
10
68
48
70
70
B0
90
90
ENDCHAR
STARTCHAR uni0144
ENCODING 324
SWIDTH 600 0
DWIDTH 5 0
BBX 4 6 0 0
BITMAP
10
70
50
90
90
90
ENDCHAR
STARTCHAR uni0145
ENCODING 325
SWIDTH 600 0
DWIDTH 5 0
BBX 5 9 0 -2
BITMAP
48
48
70
70
B0
90
90
40
40
ENDCHAR
STARTCHAR uni0146
ENCODING 326
SWIDTH 600 0
DWIDTH 5 0
BBX 4 7 0 -2
BITMAP
70
50
90
90
90
40
40
ENDCHAR
STARTCHAR uni0147
ENCODING 327
SWIDTH 600 0
DWIDTH 5 0
BBX 5 9 0 0
BITMAP
30
00
48
48
70
70
B0
90
90
ENDCHAR
STARTCHAR uni0148
ENCODING 328
SWIDTH 600 0
DWIDTH 5 0
BBX 4 8 0 0
BITMAP
30
30
00
70
50
90
90
90
ENDCHAR
STARTCHAR uni0149
ENCODING 329
SWIDTH 600 0
DWIDTH 5 0
BBX 4 7 0 0
BITMAP
40
80
70
50
90
90
90
ENDCHAR
STARTCHAR uni014A
ENCODING 330
SWIDTH 600 0
DWIDTH 5 0
BBX 5 9 0 -2
BITMAP
48
48
70
70
B0
90
90
10
20
ENDCHAR
STARTCHAR uni014B
ENCODING 331
SWIDTH 600 0
DWIDTH 5 0
BBX 4 7 0 -2
BITMAP
70
50
90
90
90
10
20
ENDCHAR
STARTCHAR uni014C
ENCODING 332
SWIDTH 600 0
DWIDTH 5 0
BBX 5 9 0 0
BITMAP
38
00
30
48
48
50
90
90
60
ENDCHAR
STARTCHAR uni014D
ENCODING 333
SWIDTH 600 0
DWIDTH 5 0
BBX 4 7 0 0
BITMAP
70
00
70
50
90
90
60
ENDCHAR
STARTCHAR uni014E
ENCODING 334
SWIDTH 600 0
DWIDTH 5 0
BBX 5 8 0 0
BITMAP
38
30
48
48
50
90
90
60
ENDCHAR
STARTCHAR uni014F
ENCODING 335
SWIDTH 600 0
DWIDTH 5 0
BBX 4 7 0 0
BITMAP
50
30
70
50
90
90
60
ENDCHAR
STARTCHAR uni0150
ENCODING 336
SWIDTH 600 0
DWIDTH 5 0
BBX 5 8 0 0
BITMAP
18
30
48
48
50
90
90
60
ENDCHAR
STARTCHAR uni0151
ENCODING 337
SWIDTH 600 0
DWIDTH 5 0
BBX 5 6 0 0
BITMAP
28
70
50
90
90
60
ENDCHAR
STARTCHAR OE
ENCODING 338
SWIDTH 600 0
DWIDTH 5 0
BBX 5 7 0 0
BITMAP
78
60
A0
B0
A0
A0
70
ENDCHAR
STARTCHAR oe
ENCODING 339
SWIDTH 600 0
DWIDTH 5 0
BBX 4 5 0 0
BITMAP
70
B0
B0
A0
F0
ENDCHAR
STARTCHAR uni0154
ENCODING 340
SWIDTH 600 0
DWIDTH 5 0
BBX 4 8 0 0
BITMAP
10
70
50
50
70
A0
90
90
ENDCHAR
STARTCHAR uni0155
ENCODING 341
SWIDTH 600 0
DWIDTH 5 0
BBX 3 6 1 0
BITMAP
20
E0
A0
80
80
80
ENDCHAR
STARTCHAR uni0156
ENCODING 342
SWIDTH 600 0
DWIDTH 5 0
BBX 4 9 0 -2
BITMAP
70
50
50
70
A0
90
90
40
40
ENDCHAR
STARTCHAR uni0157
ENCODING 343
SWIDTH 600 0
DWIDTH 5 0
BBX 4 7 0 -2
BITMAP
70
50
40
40
40
80
80
ENDCHAR
STARTCHAR uni0158
ENCODING 344
SWIDTH 600 0
DWIDTH 5 0
BBX 4 9 0 0
BITMAP
30
00
70
50
50
70
A0
90
90
ENDCHAR
STARTCHAR uni0159
ENCODING 345
SWIDTH 600 0
DWIDTH 5 0
BBX 3 8 1 0
BITMAP
60
60
00
E0
A0
80
80
80
ENDCHAR
STARTCHAR uni015A
ENCODING 346
SWIDTH 600 0
DWIDTH 5 0
BBX 4 8 0 0
BITMAP
10
30
50
40
20
10
90
60
ENDCHAR
STARTCHAR uni015B
ENCODING 347
SWIDTH 600 0
DWIDTH 5 0
BBX 4 6 0 0
BITMAP
10
70
40
20
90
60
ENDCHAR
STARTCHAR uni015C
ENCODING 348
SWIDTH 600 0
DWIDTH 5 0
BBX 4 9 0 0
BITMAP
10
30
30
50
40
20
10
90
60
ENDCHAR
STARTCHAR uni015D
ENCODING 349
SWIDTH 600 0
DWIDTH 5 0
BBX 4 7 0 0
BITMAP
30
50
70
40
20
90
60
ENDCHAR
STARTCHAR Scedilla
ENCODING 350
SWIDTH 600 0
DWIDTH 5 0
BBX 4 9 0 -2
BITMAP
30
50
40
20
10
90
60
20
60
ENDCHAR
STARTCHAR scedilla
ENCODING 351
SWIDTH 600 0
DWIDTH 5 0
BBX 4 7 0 -2
BITMAP
70
40
20
90
60
20
60
ENDCHAR
STARTCHAR Scaron
ENCODING 352
SWIDTH 600 0
DWIDTH 5 0
BBX 4 9 0 0
BITMAP
30
00
30
50
40
20
10
90
60
ENDCHAR
STARTCHAR scaron
ENCODING 353
SWIDTH 600 0
DWIDTH 5 0
BBX 4 8 0 0
BITMAP
30
30
00
70
40
20
90
60
ENDCHAR
STARTCHAR uni0162
ENCODING 354
SWIDTH 600 0
DWIDTH 5 0
BBX 4 9 1 -2
BITMAP
F0
40
40
40
40
40
40
80
C0
ENDCHAR
STARTCHAR uni0163
ENCODING 355
SWIDTH 600 0
DWIDTH 5 0
BBX 3 9 1 -2
BITMAP
40
40
E0
40
80
A0
60
40
C0
ENDCHAR
STARTCHAR uni0164
ENCODING 356
SWIDTH 600 0
DWIDTH 5 0
BBX 4 9 1 0
BITMAP
60
00
F0
40
40
40
40
40
40
ENDCHAR
STARTCHAR uni0165
ENCODING 357
SWIDTH 600 0
DWIDTH 5 0
BBX 4 7 1 0
BITMAP
50
60
E0
40
80
A0
60
ENDCHAR
STARTCHAR uni0166
ENCODING 358
SWIDTH 600 0
DWIDTH 5 0
BBX 4 7 1 0
BITMAP
F0
40
40
E0
40
40
40
ENDCHAR
STARTCHAR uni0167
ENCODING 359
SWIDTH 600 0
DWIDTH 5 0
BBX 3 7 1 0
BITMAP
40
40
E0
40
80
A0
60
ENDCHAR
STARTCHAR uni0168
ENCODING 360
SWIDTH 600 0
DWIDTH 5 0
BBX 4 9 1 0
BITMAP
F0
00
90
90
A0
A0
A0
A0
C0
ENDCHAR
STARTCHAR uni0169
ENCODING 361
SWIDTH 600 0
DWIDTH 5 0
BBX 5 8 0 0
BITMAP
28
50
00
50
50
90
90
70
ENDCHAR
STARTCHAR uni016A
ENCODING 362
SWIDTH 600 0
DWIDTH 5 0
BBX 4 9 1 0
BITMAP
70
00
90
90
A0
A0
A0
A0
C0
ENDCHAR
STARTCHAR uni016B
ENCODING 363
SWIDTH 600 0
DWIDTH 5 0
BBX 4 7 0 0
BITMAP
70
00
50
50
90
90
70
ENDCHAR
STARTCHAR uni016C
ENCODING 364
SWIDTH 600 0
DWIDTH 5 0
BBX 4 8 1 0
BITMAP
70
90
90
A0
A0
A0
A0
C0
ENDCHAR
STARTCHAR uni016D
ENCODING 365
SWIDTH 600 0
DWIDTH 5 0
BBX 4 7 0 0
BITMAP
50
30
50
50
90
90
70
ENDCHAR
STARTCHAR uni016E
ENCODING 366
SWIDTH 600 0
DWIDTH 5 0
BBX 4 8 1 0
BITMAP
60
90
90
A0
A0
A0
A0
C0
ENDCHAR
STARTCHAR uni016F
ENCODING 367
SWIDTH 600 0
DWIDTH 5 0
BBX 4 7 0 0
BITMAP
30
20
50
50
90
90
70
ENDCHAR
STARTCHAR uni0170
ENCODING 368
SWIDTH 600 0
DWIDTH 5 0
BBX 4 8 1 0
BITMAP
30
D0
90
A0
A0
A0
A0
C0
ENDCHAR
STARTCHAR uni0171
ENCODING 369
SWIDTH 600 0
DWIDTH 5 0
BBX 5 6 0 0
BITMAP
28
50
50
90
90
70
ENDCHAR
STARTCHAR uni0172
ENCODING 370
SWIDTH 600 0
DWIDTH 5 0
BBX 4 9 1 -2
BITMAP
90
90
A0
A0
A0
A0
C0
80
80
ENDCHAR
STARTCHAR uni0173
ENCODING 371
SWIDTH 600 0
DWIDTH 5 0
BBX 4 7 0 -2
BITMAP
50
50
90
90
70
10
10
ENDCHAR
STARTCHAR uni0174
ENCODING 372
SWIDTH 600 0
DWIDTH 5 0
BBX 4 9 1 0
BITMAP
20
60
90
90
E0
A0
A0
A0
C0
ENDCHAR
STARTCHAR uni0175
ENCODING 373
SWIDTH 600 0
DWIDTH 5 0
BBX 4 7 1 0
BITMAP
60
A0
90
E0
E0
E0
C0
ENDCHAR
STARTCHAR uni0176
ENCODING 374
SWIDTH 600 0
DWIDTH 5 0
BBX 4 9 1 0
BITMAP
20
60
90
A0
A0
40
40
40
40
ENDCHAR
STARTCHAR uni0177
ENCODING 375
SWIDTH 600 0
DWIDTH 5 0
BBX 4 9 0 -2
BITMAP
30
50
50
50
90
90
70
10
E0
ENDCHAR
STARTCHAR Ydieresis
ENCODING 376
SWIDTH 600 0
DWIDTH 5 0
BBX 4 9 1 0
BITMAP
50
00
90
A0
A0
40
40
40
40
ENDCHAR
STARTCHAR uni0179
ENCODING 377
SWIDTH 600 0
DWIDTH 5 0
BBX 5 8 0 0
BITMAP
10
78
10
10
20
40
40
F0
ENDCHAR
STARTCHAR uni017A
ENCODING 378
SWIDTH 600 0
DWIDTH 5 0
BBX 4 6 0 0
BITMAP
10
70
10
20
40
F0
ENDCHAR
STARTCHAR uni017B
ENCODING 379
SWIDTH 600 0
DWIDTH 5 0
BBX 5 9 0 0
BITMAP
10
00
78
10
10
20
40
40
F0
ENDCHAR
STARTCHAR uni017C
ENCODING 380
SWIDTH 600 0
DWIDTH 5 0
BBX 4 7 0 0
BITMAP
20
00
70
10
20
40
F0
ENDCHAR
STARTCHAR Zcaron
ENCODING 381
SWIDTH 600 0
DWIDTH 5 0
BBX 5 9 0 0
BITMAP
30
00
78
10
10
20
40
40
F0
ENDCHAR
STARTCHAR zcaron
ENCODING 382
SWIDTH 600 0
DWIDTH 5 0
BBX 4 8 0 0
BITMAP
30
30
00
70
10
20
40
F0
ENDCHAR
STARTCHAR uni017F
ENCODING 383
SWIDTH 600 0
DWIDTH 5 0
BBX 4 9 0 -2
BITMAP
10
20
20
20
20
20
20
40
C0
ENDCHAR
STARTCHAR uni0180
ENCODING 384
SWIDTH 600 0
DWIDTH 5 0
BBX 4 7 0 0
BITMAP
40
60
70
50
90
90
E0
ENDCHAR
STARTCHAR uni0181
ENCODING 385
SWIDTH 600 0
DWIDTH 5 0
BBX 4 7 0 0
BITMAP
F0
D0
50
60
90
90
E0
ENDCHAR
STARTCHAR uni0182
ENCODING 386
SWIDTH 600 0
DWIDTH 5 0
BBX 4 7 0 0
BITMAP
70
40
40
70
90
90
E0
ENDCHAR
STARTCHAR uni0183
ENCODING 387
SWIDTH 600 0
DWIDTH 5 0
BBX 4 7 0 0
BITMAP
70
40
70
50
90
90
E0
ENDCHAR
STARTCHAR uni0184
ENCODING 388
SWIDTH 600 0
DWIDTH 5 0
BBX 3 7 1 0
BITMAP
80
80
80
E0
A0
A0
C0
ENDCHAR
STARTCHAR uni0185
ENCODING 389
SWIDTH 600 0
DWIDTH 5 0
BBX 4 5 0 0
BITMAP
40
C0
70
50
70
ENDCHAR
STARTCHAR uni0186
ENCODING 390
SWIDTH 600 0
DWIDTH 5 0
BBX 4 7 0 0
BITMAP
30
50
10
10
10
90
60
ENDCHAR
STARTCHAR uni0187
ENCODING 391
SWIDTH 600 0
DWIDTH 5 0
BBX 6 9 0 0
BITMAP
04
08
78
48
40
40
80
90
60
ENDCHAR
STARTCHAR uni0188
ENCODING 392
SWIDTH 600 0
DWIDTH 5 0
BBX 5 7 0 0
BITMAP
08
08
70
50
80
90
60
ENDCHAR
STARTCHAR uni0189
ENCODING 393
SWIDTH 600 0
DWIDTH 5 0
BBX 4 7 0 0
BITMAP
70
50
50
D0
90
90
E0
ENDCHAR
STARTCHAR uni018A
ENCODING 394
SWIDTH 600 0
DWIDTH 5 0
BBX 4 7 0 0
BITMAP
F0
D0
50
50
90
90
E0
ENDCHAR
STARTCHAR uni018B
ENCODING 395
SWIDTH 600 0
DWIDTH 5 0
BBX 5 7 0 0
BITMAP
78
08
10
70
90
90
70
ENDCHAR
STARTCHAR uni018C
ENCODING 396
SWIDTH 600 0
DWIDTH 5 0
BBX 5 7 0 0
BITMAP
78
08
70
50
90
90
70
ENDCHAR
STARTCHAR uni018D
ENCODING 397
SWIDTH 600 0
DWIDTH 5 0
BBX 4 7 0 -2
BITMAP
70
50
90
70
20
10
E0
ENDCHAR
STARTCHAR uni018E
ENCODING 398
SWIDTH 600 0
DWIDTH 5 0
BBX 5 7 0 0
BITMAP
78
08
10
70
10
10
F0
ENDCHAR
STARTCHAR uni018F
ENCODING 399
SWIDTH 600 0
DWIDTH 5 0
BBX 4 7 0 0
BITMAP
30
50
10
70
90
90
60
ENDCHAR
STARTCHAR uni0190
ENCODING 400
SWIDTH 600 0
DWIDTH 5 0
BBX 4 7 0 0
BITMAP
30
50
40
60
80
90
60
ENDCHAR
STARTCHAR uni0191
ENCODING 401
SWIDTH 600 0
DWIDTH 5 0
BBX 5 9 0 -2
BITMAP
38
40
40
70
40
40
80
80
80
ENDCHAR
STARTCHAR florin
ENCODING 402
SWIDTH 600 0
DWIDTH 5 0
BBX 5 9 0 -2
BITMAP
18
20
70
20
20
20
40
40
C0
ENDCHAR
STARTCHAR uni0193
ENCODING 403
SWIDTH 600 0
DWIDTH 5 0
BBX 6 9 0 0
BITMAP
04
08
78
48
40
70
90
90
70
ENDCHAR
STARTCHAR uni0194
ENCODING 404
SWIDTH 600 0
DWIDTH 5 0
BBX 4 9 1 -2
BITMAP
90
A0
A0
40
40
40
C0
C0
80
ENDCHAR
STARTCHAR uni0195
ENCODING 405
SWIDTH 600 0
DWIDTH 5 0
BBX 5 7 0 0
BITMAP
40
40
68
B0
B0
B0
B0
ENDCHAR
STARTCHAR uni0196
ENCODING 406
SWIDTH 600 0
DWIDTH 5 0
BBX 3 7 1 0
BITMAP
C0
40
40
40
40
A0
60
ENDCHAR
STARTCHAR uni0197
ENCODING 407
SWIDTH 600 0
DWIDTH 5 0
BBX 4 7 0 0
BITMAP
70
20
20
70
20
20
F0
ENDCHAR
STARTCHAR uni0198
ENCODING 408
SWIDTH 600 0
DWIDTH 5 0
BBX 5 7 0 0
BITMAP
58
50
60
60
60
A0
90
ENDCHAR
STARTCHAR uni0199
ENCODING 409
SWIDTH 600 0
DWIDTH 5 0
BBX 4 7 0 0
BITMAP
20
40
70
50
70
A0
B0
ENDCHAR
STARTCHAR uni019A
ENCODING 410
SWIDTH 600 0
DWIDTH 5 0
BBX 3 7 1 0
BITMAP
C0
40
40
C0
40
A0
60
ENDCHAR
STARTCHAR uni019B
ENCODING 411
SWIDTH 600 0
DWIDTH 5 0
BBX 4 7 0 0
BITMAP
30
20
60
60
60
50
90
ENDCHAR
STARTCHAR uni019C
ENCODING 412
SWIDTH 600 0
DWIDTH 5 0
BBX 5 7 0 0
BITMAP
68
68
68
B0
B0
B0
F0
ENDCHAR
STARTCHAR uni019D
ENCODING 413
SWIDTH 600 0
DWIDTH 5 0
BBX 6 9 -1 -2
BITMAP
24
24
38
38
58
48
48
40
80
ENDCHAR
STARTCHAR uni019E
ENCODING 414
SWIDTH 600 0
DWIDTH 5 0
BBX 4 7 0 -2
BITMAP
70
50
90
90
90
10
10
ENDCHAR
STARTCHAR uni019F
ENCODING 415
SWIDTH 600 0
DWIDTH 5 0
BBX 4 7 0 0
BITMAP
30
50
50
70
90
90
60
ENDCHAR
STARTCHAR uni01A0
ENCODING 416
SWIDTH 600 0
DWIDTH 5 0
BBX 6 9 0 0
BITMAP
04
04
38
48
50
50
90
90
60
ENDCHAR
STARTCHAR uni01A1
ENCODING 417
SWIDTH 600 0
DWIDTH 5 0
BBX 5 7 0 0
BITMAP
08
08
78
50
90
90
60
ENDCHAR
STARTCHAR uni01A2
ENCODING 418
SWIDTH 600 0
DWIDTH 5 0
BBX 5 9 0 -2
BITMAP
68
58
68
A8
B0
B0
D0
10
10
ENDCHAR
STARTCHAR uni01A3
ENCODING 419
SWIDTH 600 0
DWIDTH 5 0
BBX 5 7 0 -2
BITMAP
68
B8
B0
B0
D0
10
10
ENDCHAR
STARTCHAR uni01A4
ENCODING 420
SWIDTH 600 0
DWIDTH 5 0
BBX 4 7 0 0
BITMAP
70
D0
50
70
40
80
80
ENDCHAR
STARTCHAR uni01A5
ENCODING 421
SWIDTH 600 0
DWIDTH 5 0
BBX 4 9 0 -2
BITMAP
60
40
70
50
90
90
E0
80
80
ENDCHAR
STARTCHAR uni01A6
ENCODING 422
SWIDTH 600 0
DWIDTH 5 0
BBX 4 9 0 -2
BITMAP
40
70
50
50
70
A0
A0
20
10
ENDCHAR
STARTCHAR uni01A7
ENCODING 423
SWIDTH 600 0
DWIDTH 5 0
BBX 4 7 0 0
BITMAP
30
50
10
20
40
90
60
ENDCHAR
STARTCHAR uni01A8
ENCODING 424
SWIDTH 600 0
DWIDTH 5 0
BBX 4 5 0 0
BITMAP
70
10
60
80
70
ENDCHAR
STARTCHAR uni01A9
ENCODING 425
SWIDTH 600 0
DWIDTH 5 0
BBX 5 7 0 0
BITMAP
78
40
20
20
40
40
F0
ENDCHAR
STARTCHAR uni01AA
ENCODING 426
SWIDTH 600 0
DWIDTH 5 0
BBX 2 9 1 -2
BITMAP
40
C0
40
40
40
40
40
80
40
ENDCHAR
STARTCHAR uni01AB
ENCODING 427
SWIDTH 600 0
DWIDTH 5 0
BBX 3 9 1 -2
BITMAP
40
40
E0
40
80
A0
60
20
60
ENDCHAR
STARTCHAR uni01AC
ENCODING 428
SWIDTH 600 0
DWIDTH 5 0
BBX 4 7 1 0
BITMAP
F0
C0
40
40
40
40
40
ENDCHAR
STARTCHAR uni01AD
ENCODING 429
SWIDTH 600 0
DWIDTH 5 0
BBX 3 7 1 0
BITMAP
60
40
E0
40
80
A0
60
ENDCHAR
STARTCHAR uni01AE
ENCODING 430
SWIDTH 600 0
DWIDTH 5 0
BBX 4 9 1 -2
BITMAP
F0
40
40
40
40
40
80
80
40
ENDCHAR
STARTCHAR uni01AF
ENCODING 431
SWIDTH 600 0
DWIDTH 5 0
BBX 5 8 1 0
BITMAP
08
90
90
A0
A0
A0
A0
C0
ENDCHAR
STARTCHAR uni01B0
ENCODING 432
SWIDTH 600 0
DWIDTH 5 0
BBX 5 6 0 0
BITMAP
08
48
50
90
90
70
ENDCHAR
STARTCHAR uni01B1
ENCODING 433
SWIDTH 600 0
DWIDTH 5 0
BBX 4 7 1 0
BITMAP
F0
A0
A0
A0
A0
A0
C0
ENDCHAR
STARTCHAR uni01B2
ENCODING 434
SWIDTH 600 0
DWIDTH 5 0
BBX 3 7 1 0
BITMAP
A0
A0
A0
A0
A0
A0
C0
ENDCHAR
STARTCHAR uni01B3
ENCODING 435
SWIDTH 600 0
DWIDTH 5 0
BBX 4 7 1 0
BITMAP
90
A0
A0
40
40
40
40
ENDCHAR
STARTCHAR uni01B4
ENCODING 436
SWIDTH 600 0
DWIDTH 5 0
BBX 5 7 0 -2
BITMAP
48
50
90
90
70
10
E0
ENDCHAR
STARTCHAR uni01B5
ENCODING 437
SWIDTH 600 0
DWIDTH 5 0
BBX 5 7 0 0
BITMAP
78
10
10
70
40
40
F0
ENDCHAR
STARTCHAR uni01B6
ENCODING 438
SWIDTH 600 0
DWIDTH 5 0
BBX 4 5 0 0
BITMAP
70
10
70
40
F0
ENDCHAR
STARTCHAR uni01B7
ENCODING 439
SWIDTH 600 0
DWIDTH 5 0
BBX 4 7 0 0
BITMAP
70
10
20
70
10
90
60
ENDCHAR
STARTCHAR uni01B8
ENCODING 440
SWIDTH 600 0
DWIDTH 5 0
BBX 5 7 0 0
BITMAP
78
20
20
70
80
90
60
ENDCHAR
STARTCHAR uni01B9
ENCODING 441
SWIDTH 600 0
DWIDTH 5 0
BBX 4 7 0 -2
BITMAP
70
40
20
60
80
90
60
ENDCHAR
STARTCHAR uni01BA
ENCODING 442
SWIDTH 600 0
DWIDTH 5 0
BBX 4 7 0 -2
BITMAP
70
20
70
10
60
80
E0
ENDCHAR
STARTCHAR uni01BB
ENCODING 443
SWIDTH 600 0
DWIDTH 5 0
BBX 4 7 0 0
BITMAP
30
50
10
F0
40
80
F0
ENDCHAR
STARTCHAR uni01BC
ENCODING 444
SWIDTH 600 0
DWIDTH 5 0
BBX 4 7 0 0
BITMAP
70
40
70
50
10
90
60
ENDCHAR
STARTCHAR uni01BD
ENCODING 445
SWIDTH 600 0
DWIDTH 5 0
BBX 4 5 0 0
BITMAP
70
40
70
10
F0
ENDCHAR
STARTCHAR uni01BE
ENCODING 446
SWIDTH 600 0
DWIDTH 5 0
BBX 4 7 0 0
BITMAP
20
20
70
20
10
90
60
ENDCHAR
STARTCHAR uni01BF
ENCODING 447
SWIDTH 600 0
DWIDTH 5 0
BBX 4 7 0 -2
BITMAP
70
50
90
A0
C0
80
80
ENDCHAR
STARTCHAR uni01C0
ENCODING 448
SWIDTH 600 0
DWIDTH 5 0
BBX 2 9 1 -1
BITMAP
40
40
40
40
40
40
40
80
80
ENDCHAR
STARTCHAR uni01C1
ENCODING 449
SWIDTH 600 0
DWIDTH 5 0
BBX 3 9 1 -1
BITMAP
60
A0
A0
A0
A0
A0
C0
C0
C0
ENDCHAR
STARTCHAR uni01C2
ENCODING 450
SWIDTH 600 0
DWIDTH 5 0
BBX 3 9 1 -1
BITMAP
20
40
40
E0
40
E0
40
40
80
ENDCHAR
STARTCHAR uni01C3
ENCODING 451
SWIDTH 600 0
DWIDTH 5 0
BBX 2 7 1 0
BITMAP
40
40
40
40
40
00
C0
ENDCHAR
STARTCHAR uni01C4.NWID
ENCODING 452
SWIDTH 600 0
DWIDTH 5 0
BBX 5 9 0 0
BITMAP
18
08
58
A8
A8
D0
D0
E0
B0
ENDCHAR
STARTCHAR uni01C5.NWID
ENCODING 453
SWIDTH 600 0
DWIDTH 5 0
BBX 5 7 0 0
BITMAP
58
A8
B8
C8
D0
D0
B0
ENDCHAR
STARTCHAR uni01C6.NWID
ENCODING 454
SWIDTH 600 0
DWIDTH 5 0
BBX 5 7 0 0
BITMAP
38
28
D8
C8
D0
D0
F0
ENDCHAR
STARTCHAR uni01C7.NWID
ENCODING 455
SWIDTH 600 0
DWIDTH 5 0
BBX 5 7 0 0
BITMAP
48
88
88
88
88
B0
F0
ENDCHAR
STARTCHAR uni01C8.NWID
ENCODING 456
SWIDTH 600 0
DWIDTH 5 0
BBX 5 9 0 -2
BITMAP
48
80
98
88
90
90
D0
50
20
ENDCHAR
STARTCHAR uni01C9.NWID
ENCODING 457
SWIDTH 600 0
DWIDTH 5 0
BBX 5 9 0 -2
BITMAP
C8
40
58
48
90
D0
50
50
20
ENDCHAR
STARTCHAR uni01CA.NWID
ENCODING 458
SWIDTH 600 0
DWIDTH 5 0
BBX 5 7 0 0
BITMAP
A8
A8
A8
C8
C8
F0
F0
ENDCHAR
STARTCHAR uni01CB.NWID
ENCODING 459
SWIDTH 600 0
DWIDTH 5 0
BBX 5 9 0 -2
BITMAP
A8
A0
B8
C8
D0
D0
D0
50
20
ENDCHAR
STARTCHAR uni01CC.NWID
ENCODING 460
SWIDTH 600 0
DWIDTH 5 0
BBX 5 9 0 -2
BITMAP
08
00
D8
C8
D0
D0
D0
50
20
ENDCHAR
STARTCHAR uni01CD
ENCODING 461
SWIDTH 600 0
DWIDTH 5 0
BBX 4 9 0 0
BITMAP
30
00
20
20
50
50
70
90
90
ENDCHAR
STARTCHAR uni01CE
ENCODING 462
SWIDTH 600 0
DWIDTH 5 0
BBX 4 8 0 0
BITMAP
30
30
00
70
50
90
90
70
ENDCHAR
STARTCHAR uni01CF
ENCODING 463
SWIDTH 600 0
DWIDTH 5 0
BBX 4 9 0 0
BITMAP
30
00
70
20
20
20
20
20
F0
ENDCHAR
STARTCHAR uni01D0
ENCODING 464
SWIDTH 600 0
DWIDTH 5 0
BBX 3 8 1 0
BITMAP
A0
40
00
C0
40
40
A0
60
ENDCHAR
STARTCHAR uni01D1
ENCODING 465
SWIDTH 600 0
DWIDTH 5 0
BBX 4 9 0 0
BITMAP
30
00
30
50
50
50
90
90
60
ENDCHAR
STARTCHAR uni01D2
ENCODING 466
SWIDTH 600 0
DWIDTH 5 0
BBX 4 8 0 0
BITMAP
30
30
00
70
50
90
90
60
ENDCHAR
STARTCHAR uni01D3
ENCODING 467
SWIDTH 600 0
DWIDTH 5 0
BBX 4 9 1 0
BITMAP
60
00
90
90
A0
A0
A0
A0
C0
ENDCHAR
STARTCHAR uni01D4
ENCODING 468
SWIDTH 600 0
DWIDTH 5 0
BBX 4 8 0 0
BITMAP
30
30
00
50
50
90
90
70
ENDCHAR
STARTCHAR uni01D5
ENCODING 469
SWIDTH 600 0
DWIDTH 5 0
BBX 4 10 1 0
BITMAP
70
50
00
90
90
A0
A0
A0
A0
C0
ENDCHAR
STARTCHAR uni01D6
ENCODING 470
SWIDTH 600 0
DWIDTH 5 0
BBX 4 9 0 0
BITMAP
30
00
50
00
50
50
90
90
70
ENDCHAR
STARTCHAR uni01D7
ENCODING 471
SWIDTH 600 0
DWIDTH 5 0
BBX 4 10 1 0
BITMAP
10
70
00
90
90
A0
A0
A0
A0
C0
ENDCHAR
STARTCHAR uni01D8
ENCODING 472
SWIDTH 600 0
DWIDTH 5 0
BBX 4 8 0 0
BITMAP
10
50
00
50
50
90
90
70
ENDCHAR
STARTCHAR uni01D9
ENCODING 473
SWIDTH 600 0
DWIDTH 5 0
BBX 4 11 1 0
BITMAP
50
20
50
00
90
90
A0
A0
A0
A0
C0
ENDCHAR
STARTCHAR uni01DA
ENCODING 474
SWIDTH 600 0
DWIDTH 5 0
BBX 4 9 0 0
BITMAP
30
00
50
00
50
50
90
90
70
ENDCHAR
STARTCHAR uni01DB
ENCODING 475
SWIDTH 600 0
DWIDTH 5 0
BBX 4 9 1 0
BITMAP
70
00
90
90
A0
A0
A0
A0
C0
ENDCHAR
STARTCHAR uni01DC
ENCODING 476
SWIDTH 600 0
DWIDTH 5 0
BBX 4 8 0 0
BITMAP
20
50
00
50
50
90
90
70
ENDCHAR
STARTCHAR uni01DD
ENCODING 477
SWIDTH 600 0
DWIDTH 5 0
BBX 4 5 0 0
BITMAP
70
50
70
90
60
ENDCHAR
STARTCHAR uni01DE
ENCODING 478
SWIDTH 600 0
DWIDTH 5 0
BBX 5 10 0 0
BITMAP
38
28
00
20
20
50
50
70
90
90
ENDCHAR
STARTCHAR uni01DF
ENCODING 479
SWIDTH 600 0
DWIDTH 5 0
BBX 4 9 0 0
BITMAP
30
00
50
00
70
50
90
90
70
ENDCHAR
STARTCHAR uni01E0
ENCODING 480
SWIDTH 600 0
DWIDTH 5 0
BBX 5 10 0 0
BITMAP
38
10
00
20
20
50
50
70
90
90
ENDCHAR
STARTCHAR uni01E1
ENCODING 481
SWIDTH 600 0
DWIDTH 5 0
BBX 4 9 0 0
BITMAP
30
00
20
00
70
50
90
90
70
ENDCHAR
STARTCHAR uni01E2
ENCODING 482
SWIDTH 600 0
DWIDTH 5 0
BBX 5 9 0 0
BITMAP
38
00
38
20
20
70
60
A0
B0
ENDCHAR
STARTCHAR uni01E3
ENCODING 483
SWIDTH 600 0
DWIDTH 5 0
BBX 4 7 0 0
BITMAP
70
00
70
30
70
A0
F0
ENDCHAR
STARTCHAR uni01E4
ENCODING 484
SWIDTH 600 0
DWIDTH 5 0
BBX 4 7 0 0
BITMAP
30
50
40
70
90
B0
70
ENDCHAR
STARTCHAR uni01E5
ENCODING 485
SWIDTH 600 0
DWIDTH 5 0
BBX 5 7 0 -2
BITMAP
70
50
F8
90
70
10
E0
ENDCHAR
STARTCHAR uni01E6
ENCODING 486
SWIDTH 600 0
DWIDTH 5 0
BBX 4 9 0 0
BITMAP
30
00
30
50
40
70
90
90
70
ENDCHAR
STARTCHAR uni01E7
ENCODING 487
SWIDTH 600 0
DWIDTH 5 0
BBX 4 10 0 -2
BITMAP
30
30
00
70
50
90
90
70
10
E0
ENDCHAR
STARTCHAR uni01E8
ENCODING 488
SWIDTH 600 0
DWIDTH 5 0
BBX 5 9 0 0
BITMAP
30
00
58
50
60
60
60
A0
90
ENDCHAR
STARTCHAR uni01E9
ENCODING 489
SWIDTH 600 0
DWIDTH 5 0
BBX 4 9 0 0
BITMAP
60
00
40
40
70
50
70
A0
B0
ENDCHAR
STARTCHAR uni01EA
ENCODING 490
SWIDTH 600 0
DWIDTH 5 0
BBX 4 9 0 -2
BITMAP
30
50
50
50
90
90
60
40
40
ENDCHAR
STARTCHAR uni01EB
ENCODING 491
SWIDTH 600 0
DWIDTH 5 0
BBX 4 7 0 -2
BITMAP
70
50
90
90
60
40
40
ENDCHAR
STARTCHAR uni01EC
ENCODING 492
SWIDTH 600 0
DWIDTH 5 0
BBX 5 11 0 -2
BITMAP
38
00
30
48
48
50
90
90
60
40
40
ENDCHAR
STARTCHAR uni01ED
ENCODING 493
SWIDTH 600 0
DWIDTH 5 0
BBX 4 9 0 -2
BITMAP
70
00
70
50
90
90
60
40
40
ENDCHAR
STARTCHAR uni01EE
ENCODING 494
SWIDTH 600 0
DWIDTH 5 0
BBX 4 9 0 0
BITMAP
30
00
70
10
20
70
10
90
60
ENDCHAR
STARTCHAR uni01EF
ENCODING 495
SWIDTH 600 0
DWIDTH 5 0
BBX 4 10 0 -2
BITMAP
30
30
00
70
20
20
60
10
90
E0
ENDCHAR
STARTCHAR uni01F0
ENCODING 496
SWIDTH 600 0
DWIDTH 5 0
BBX 5 10 0 -2
BITMAP
28
10
00
60
20
20
20
20
A0
C0
ENDCHAR
STARTCHAR uni01F1.NWID
ENCODING 497
SWIDTH 600 0
DWIDTH 5 0
BBX 5 7 0 0
BITMAP
58
A8
A8
D0
D0
E0
B0
ENDCHAR
STARTCHAR uni01F2.NWID
ENCODING 498
SWIDTH 600 0
DWIDTH 5 0
BBX 5 7 0 0
BITMAP
40
A0
B8
C8
D0
D0
B0
ENDCHAR
STARTCHAR uni01F3.NWID
ENCODING 499
SWIDTH 600 0
DWIDTH 5 0
BBX 5 7 0 0
BITMAP
20
20
D8
C8
D0
D0
F0
ENDCHAR
STARTCHAR uni01F4
ENCODING 500
SWIDTH 600 0
DWIDTH 5 0
BBX 4 8 0 0
BITMAP
10
30
50
40
70
90
90
70
ENDCHAR
STARTCHAR uni01F5
ENCODING 501
SWIDTH 600 0
DWIDTH 5 0
BBX 4 8 0 -2
BITMAP
10
70
50
90
90
70
10
E0
ENDCHAR
STARTCHAR uni01F6
ENCODING 502
SWIDTH 600 0
DWIDTH 5 0
BBX 5 7 0 0
BITMAP
60
60
68
70
B0
B0
B0
ENDCHAR
STARTCHAR uni01F7
ENCODING 503
SWIDTH 600 0
DWIDTH 5 0
BBX 4 7 0 0
BITMAP
70
50
50
70
60
80
80
ENDCHAR
STARTCHAR uni01F8
ENCODING 504
SWIDTH 600 0
DWIDTH 5 0
BBX 5 8 0 0
BITMAP
20
58
48
70
70
B0
90
90
ENDCHAR
STARTCHAR uni01F9
ENCODING 505
SWIDTH 600 0
DWIDTH 5 0
BBX 4 6 0 0
BITMAP
20
70
50
90
90
90
ENDCHAR
STARTCHAR uni01FA
ENCODING 506
SWIDTH 600 0
DWIDTH 5 0
BBX 5 10 0 0
BITMAP
08
10
30
20
20
50
50
70
90
90
ENDCHAR
STARTCHAR uni01FB
ENCODING 507
SWIDTH 600 0
DWIDTH 5 0
BBX 4 8 0 0
BITMAP
10
30
20
70
50
90
90
70
ENDCHAR
STARTCHAR uni01FC
ENCODING 508
SWIDTH 600 0
DWIDTH 5 0
BBX 5 8 0 0
BITMAP
10
38
20
20
70
60
A0
B0
ENDCHAR
STARTCHAR uni01FD
ENCODING 509
SWIDTH 600 0
DWIDTH 5 0
BBX 4 6 0 0
BITMAP
10
70
30
70
A0
F0
ENDCHAR
STARTCHAR uni01FE
ENCODING 510
SWIDTH 600 0
DWIDTH 5 0
BBX 5 8 0 0
BITMAP
10
38
50
68
70
D0
D0
E0
ENDCHAR
STARTCHAR uni01FF
ENCODING 511
SWIDTH 600 0
DWIDTH 5 0
BBX 4 6 0 0
BITMAP
10
70
50
B0
D0
E0
ENDCHAR
STARTCHAR uni0200
ENCODING 512
SWIDTH 600 0
DWIDTH 5 0
BBX 4 8 0 0
BITMAP
50
30
20
50
50
70
90
90
ENDCHAR
STARTCHAR uni0201
ENCODING 513
SWIDTH 600 0
DWIDTH 5 0
BBX 4 6 0 0
BITMAP
50
70
50
90
90
70
ENDCHAR
STARTCHAR uni0202
ENCODING 514
SWIDTH 600 0
DWIDTH 5 0
BBX 4 9 0 0
BITMAP
30
50
20
20
50
50
70
90
90
ENDCHAR
STARTCHAR uni0203
ENCODING 515
SWIDTH 600 0
DWIDTH 5 0
BBX 4 7 0 0
BITMAP
30
40
70
50
90
90
70
ENDCHAR
STARTCHAR uni0204
ENCODING 516
SWIDTH 600 0
DWIDTH 5 0
BBX 5 8 0 0
BITMAP
50
78
40
40
70
40
80
F0
ENDCHAR
STARTCHAR uni0205
ENCODING 517
SWIDTH 600 0
DWIDTH 5 0
BBX 4 6 0 0
BITMAP
50
70
50
70
90
60
ENDCHAR
STARTCHAR uni0206
ENCODING 518
SWIDTH 600 0
DWIDTH 5 0
BBX 5 9 0 0
BITMAP
30
48
78
40
40
70
40
80
F0
ENDCHAR
STARTCHAR uni0207
ENCODING 519
SWIDTH 600 0
DWIDTH 5 0
BBX 4 7 0 0
BITMAP
30
40
70
50
70
90
60
ENDCHAR
STARTCHAR uni0208
ENCODING 520
SWIDTH 600 0
DWIDTH 5 0
BBX 4 8 0 0
BITMAP
50
70
20
20
20
20
20
F0
ENDCHAR
STARTCHAR uni0209
ENCODING 521
SWIDTH 600 0
DWIDTH 5 0
BBX 3 6 1 0
BITMAP
A0
C0
40
40
A0
60
ENDCHAR
STARTCHAR uni020A
ENCODING 522
SWIDTH 600 0
DWIDTH 5 0
BBX 4 9 0 0
BITMAP
30
50
70
20
20
20
20
20
F0
ENDCHAR
STARTCHAR uni020B
ENCODING 523
SWIDTH 600 0
DWIDTH 5 0
BBX 3 7 1 0
BITMAP
60
80
C0
40
40
A0
60
ENDCHAR
STARTCHAR uni020C
ENCODING 524
SWIDTH 600 0
DWIDTH 5 0
BBX 4 8 0 0
BITMAP
50
30
50
50
50
90
90
60
ENDCHAR
STARTCHAR uni020D
ENCODING 525
SWIDTH 600 0
DWIDTH 5 0
BBX 4 6 0 0
BITMAP
50
70
50
90
90
60
ENDCHAR
STARTCHAR uni020E
ENCODING 526
SWIDTH 600 0
DWIDTH 5 0
BBX 4 9 0 0
BITMAP
30
50
30
50
50
50
90
90
60
ENDCHAR
STARTCHAR uni020F
ENCODING 527
SWIDTH 600 0
DWIDTH 5 0
BBX 4 7 0 0
BITMAP
30
40
70
50
90
90
60
ENDCHAR
STARTCHAR uni0210
ENCODING 528
SWIDTH 600 0
DWIDTH 5 0
BBX 4 8 0 0
BITMAP
50
70
50
50
70
A0
90
90
ENDCHAR
STARTCHAR uni0211
ENCODING 529
SWIDTH 600 0
DWIDTH 5 0
BBX 3 6 1 0
BITMAP
A0
E0
A0
80
80
80
ENDCHAR
STARTCHAR uni0212
ENCODING 530
SWIDTH 600 0
DWIDTH 5 0
BBX 4 9 0 0
BITMAP
30
50
70
50
50
70
A0
90
90
ENDCHAR
STARTCHAR uni0213
ENCODING 531
SWIDTH 600 0
DWIDTH 5 0
BBX 3 7 1 0
BITMAP
60
80
E0
A0
80
80
80
ENDCHAR
STARTCHAR uni0214
ENCODING 532
SWIDTH 600 0
DWIDTH 5 0
BBX 4 8 1 0
BITMAP
A0
D0
90
A0
A0
A0
A0
C0
ENDCHAR
STARTCHAR uni0215
ENCODING 533
SWIDTH 600 0
DWIDTH 5 0
BBX 4 6 0 0
BITMAP
50
50
50
90
90
70
ENDCHAR
STARTCHAR uni0216
ENCODING 534
SWIDTH 600 0
DWIDTH 5 0
BBX 4 9 1 0
BITMAP
60
90
90
90
A0
A0
A0
A0
C0
ENDCHAR
STARTCHAR uni0217
ENCODING 535
SWIDTH 600 0
DWIDTH 5 0
BBX 4 7 0 0
BITMAP
30
40
50
50
90
90
70
ENDCHAR
STARTCHAR uni0218
ENCODING 536
SWIDTH 600 0
DWIDTH 5 0
BBX 4 9 0 -2
BITMAP
30
50
40
20
10
90
60
40
40
ENDCHAR
STARTCHAR uni0219
ENCODING 537
SWIDTH 600 0
DWIDTH 5 0
BBX 4 7 0 -2
BITMAP
70
40
20
90
60
40
40
ENDCHAR
STARTCHAR uni021A
ENCODING 538
SWIDTH 600 0
DWIDTH 5 0
BBX 4 9 1 -2
BITMAP
F0
40
40
40
40
40
40
80
80
ENDCHAR
STARTCHAR uni021B
ENCODING 539
SWIDTH 600 0
DWIDTH 5 0
BBX 3 9 1 -2
BITMAP
40
40
E0
40
80
A0
60
40
40
ENDCHAR
STARTCHAR uni021C
ENCODING 540
SWIDTH 600 0
DWIDTH 5 0
BBX 4 7 0 0
BITMAP
30
50
10
70
10
10
E0
ENDCHAR
STARTCHAR uni021D
ENCODING 541
SWIDTH 600 0
DWIDTH 5 0
BBX 4 7 0 -2
BITMAP
70
50
10
70
10
20
C0
ENDCHAR
STARTCHAR uni021E
ENCODING 542
SWIDTH 600 0
DWIDTH 5 0
BBX 5 9 0 0
BITMAP
30
00
48
48
50
70
90
90
90
ENDCHAR
STARTCHAR uni021F
ENCODING 543
SWIDTH 600 0
DWIDTH 5 0
BBX 4 9 0 0
BITMAP
60
00
40
40
70
50
90
90
90
ENDCHAR
STARTCHAR uni0220
ENCODING 544
SWIDTH 600 0
DWIDTH 5 0
BBX 4 9 0 -2
BITMAP
70
50
50
50
90
90
90
10
10
ENDCHAR
STARTCHAR uni0221
ENCODING 545
SWIDTH 600 0
DWIDTH 5 0
BBX 5 8 0 -1
BITMAP
10
10
70
50
90
B8
70
40
ENDCHAR
STARTCHAR uni0222
ENCODING 546
SWIDTH 600 0
DWIDTH 5 0
BBX 4 7 0 0
BITMAP
50
50
50
70
90
90
60
ENDCHAR
STARTCHAR uni0223
ENCODING 547
SWIDTH 600 0
DWIDTH 5 0
BBX 4 7 0 0
BITMAP
50
50
70
50
90
90
60
ENDCHAR
STARTCHAR uni0224
ENCODING 548
SWIDTH 600 0
DWIDTH 5 0
BBX 5 8 0 -1
BITMAP
78
10
10
20
40
40
E0
10
ENDCHAR
STARTCHAR uni0225
ENCODING 549
SWIDTH 600 0
DWIDTH 5 0
BBX 4 6 0 -1
BITMAP
70
10
20
40
E0
10
ENDCHAR
STARTCHAR uni0226
ENCODING 550
SWIDTH 600 0
DWIDTH 5 0
BBX 4 9 0 0
BITMAP
10
00
20
20
50
50
70
90
90
ENDCHAR
STARTCHAR uni0227
ENCODING 551
SWIDTH 600 0
DWIDTH 5 0
BBX 4 7 0 0
BITMAP
20
00
70
50
90
90
70
ENDCHAR
STARTCHAR uni0228
ENCODING 552
SWIDTH 600 0
DWIDTH 5 0
BBX 5 9 0 -2
BITMAP
78
40
40
70
40
80
F0
40
60
ENDCHAR
STARTCHAR uni0229
ENCODING 553
SWIDTH 600 0
DWIDTH 5 0
BBX 4 7 0 -2
BITMAP
70
50
70
90
60
40
60
ENDCHAR
STARTCHAR uni022A
ENCODING 554
SWIDTH 600 0
DWIDTH 5 0
BBX 5 10 0 0
BITMAP
38
28
00
30
48
48
50
90
90
60
ENDCHAR
STARTCHAR uni022B
ENCODING 555
SWIDTH 600 0
DWIDTH 5 0
BBX 4 9 0 0
BITMAP
30
00
50
00
70
50
90
90
60
ENDCHAR
STARTCHAR uni022C
ENCODING 556
SWIDTH 600 0
DWIDTH 5 0
BBX 5 10 0 0
BITMAP
38
78
00
30
48
48
50
90
90
60
ENDCHAR
STARTCHAR uni022D
ENCODING 557
SWIDTH 600 0
DWIDTH 5 0
BBX 5 9 0 0
BITMAP
30
28
50
00
70
50
90
90
60
ENDCHAR
STARTCHAR uni022E
ENCODING 558
SWIDTH 600 0
DWIDTH 5 0
BBX 4 9 0 0
BITMAP
10
00
30
50
50
50
90
90
60
ENDCHAR
STARTCHAR uni022F
ENCODING 559
SWIDTH 600 0
DWIDTH 5 0
BBX 4 7 0 0
BITMAP
20
00
70
50
90
90
60
ENDCHAR
STARTCHAR uni0230
ENCODING 560
SWIDTH 600 0
DWIDTH 5 0
BBX 5 10 0 0
BITMAP
38
10
00
30
48
48
50
90
90
60
ENDCHAR
STARTCHAR uni0231
ENCODING 561
SWIDTH 600 0
DWIDTH 5 0
BBX 4 9 0 0
BITMAP
30
00
20
00
70
50
90
90
60
ENDCHAR
STARTCHAR uni0232
ENCODING 562
SWIDTH 600 0
DWIDTH 5 0
BBX 4 9 1 0
BITMAP
70
00
90
A0
A0
40
40
40
40
ENDCHAR
STARTCHAR uni0233
ENCODING 563
SWIDTH 600 0
DWIDTH 5 0
BBX 4 9 0 -2
BITMAP
70
00
50
50
90
90
70
10
E0
ENDCHAR
STARTCHAR uni0234
ENCODING 564
SWIDTH 600 0
DWIDTH 5 0
BBX 4 7 0 0
BITMAP
60
20
20
20
30
50
B0
ENDCHAR
STARTCHAR uni0235
ENCODING 565
SWIDTH 600 0
DWIDTH 5 0
BBX 5 5 0 0
BITMAP
60
50
90
98
F0
ENDCHAR
STARTCHAR uni0236
ENCODING 566
SWIDTH 600 0
DWIDTH 5 0
BBX 4 7 0 0
BITMAP
20
20
70
20
20
50
A0
ENDCHAR
STARTCHAR uni0237
ENCODING 567
SWIDTH 600 0
DWIDTH 5 0
BBX 3 7 0 -2
BITMAP
60
20
20
20
20
A0
C0
ENDCHAR
STARTCHAR uni0238
ENCODING 568
SWIDTH 600 0
DWIDTH 5 0
BBX 4 7 0 0
BITMAP
20
20
70
B0
B0
B0
F0
ENDCHAR
STARTCHAR uni0239
ENCODING 569
SWIDTH 600 0
DWIDTH 5 0
BBX 4 7 0 -2
BITMAP
70
B0
B0
B0
F0
40
40
ENDCHAR
STARTCHAR uni023A
ENCODING 570
SWIDTH 600 0
DWIDTH 5 0
BBX 5 8 0 -1
BITMAP
28
30
50
70
70
50
90
80
ENDCHAR
STARTCHAR uni023B
ENCODING 571
SWIDTH 600 0
DWIDTH 5 0
BBX 5 8 0 -1
BITMAP
38
50
50
60
A0
D0
60
80
ENDCHAR
STARTCHAR uni023C
ENCODING 572
SWIDTH 600 0
DWIDTH 5 0
BBX 4 6 0 -1
BITMAP
70
50
A0
D0
60
80
ENDCHAR
STARTCHAR uni023D
ENCODING 573
SWIDTH 600 0
DWIDTH 5 0
BBX 4 7 0 0
BITMAP
40
40
40
E0
40
40
70
ENDCHAR
STARTCHAR uni023E
ENCODING 574
SWIDTH 600 0
DWIDTH 5 0
BBX 5 8 0 -1
BITMAP
78
30
30
20
20
40
40
80
ENDCHAR
STARTCHAR uni023F
ENCODING 575
SWIDTH 600 0
DWIDTH 5 0
BBX 4 7 0 -2
BITMAP
70
40
20
10
E0
80
60
ENDCHAR
STARTCHAR uni0240
ENCODING 576
SWIDTH 600 0
DWIDTH 5 0
BBX 4 7 0 -2
BITMAP
70
10
20
40
80
40
20
ENDCHAR
STARTCHAR uni0241
ENCODING 577
SWIDTH 600 0
DWIDTH 5 0
BBX 3 7 1 0
BITMAP
60
A0
20
20
40
40
40
ENDCHAR
STARTCHAR uni0242
ENCODING 578
SWIDTH 600 0
DWIDTH 5 0
BBX 3 5 1 0
BITMAP
E0
A0
20
40
40
ENDCHAR
STARTCHAR uni0243
ENCODING 579
SWIDTH 600 0
DWIDTH 5 0
BBX 4 7 0 0
BITMAP
70
50
50
60
90
D0
E0
ENDCHAR
STARTCHAR uni0244
ENCODING 580
SWIDTH 600 0
DWIDTH 5 0
BBX 5 7 0 0
BITMAP
48
48
50
F0
90
90
60
ENDCHAR
STARTCHAR uni0245
ENCODING 581
SWIDTH 600 0
DWIDTH 5 0
BBX 4 7 0 0
BITMAP
20
20
50
50
50
90
90
ENDCHAR
STARTCHAR uni0246
ENCODING 582
SWIDTH 600 0
DWIDTH 5 0
BBX 5 8 0 -1
BITMAP
78
50
50
70
40
40
F0
80
ENDCHAR
STARTCHAR uni0247
ENCODING 583
SWIDTH 600 0
DWIDTH 5 0
BBX 4 6 0 -1
BITMAP
70
50
70
D0
60
80
ENDCHAR
STARTCHAR uni0248
ENCODING 584
SWIDTH 600 0
DWIDTH 5 0
BBX 5 7 0 0
BITMAP
30
10
10
38
10
90
60
ENDCHAR
STARTCHAR uni0249
ENCODING 585
SWIDTH 600 0
DWIDTH 5 0
BBX 4 9 0 -2
BITMAP
10
00
60
20
30
20
20
20
C0
ENDCHAR
STARTCHAR uni024A
ENCODING 586
SWIDTH 600 0
DWIDTH 5 0
BBX 5 9 0 -2
BITMAP
78
48
50
50
90
90
70
10
10
ENDCHAR
STARTCHAR uni024B
ENCODING 587
SWIDTH 600 0
DWIDTH 5 0
BBX 4 7 0 -2
BITMAP
70
50
90
90
70
10
10
ENDCHAR
STARTCHAR uni024C
ENCODING 588
SWIDTH 600 0
DWIDTH 5 0
BBX 4 7 0 0
BITMAP
70
50
50
F0
A0
90
90
ENDCHAR
STARTCHAR uni024D
ENCODING 589
SWIDTH 600 0
DWIDTH 5 0
BBX 4 5 0 0
BITMAP
70
50
E0
40
40
ENDCHAR
STARTCHAR uni024E
ENCODING 590
SWIDTH 600 0
DWIDTH 5 0
BBX 4 7 1 0
BITMAP
90
F0
A0
40
40
40
40
ENDCHAR
STARTCHAR uni024F
ENCODING 591
SWIDTH 600 0
DWIDTH 5 0
BBX 4 7 0 -2
BITMAP
50
50
F0
90
70
10
E0
ENDCHAR
STARTCHAR uni0250
ENCODING 592
SWIDTH 600 0
DWIDTH 5 0
BBX 4 5 0 0
BITMAP
B0
50
70
90
60
ENDCHAR
STARTCHAR uni0251
ENCODING 593
SWIDTH 600 0
DWIDTH 5 0
BBX 4 5 0 0
BITMAP
70
50
90
90
70
ENDCHAR
STARTCHAR uni0252
ENCODING 594
SWIDTH 600 0
DWIDTH 5 0
BBX 4 5 0 0
BITMAP
B0
50
90
90
E0
ENDCHAR
STARTCHAR uni0253
ENCODING 595
SWIDTH 600 0
DWIDTH 5 0
BBX 4 7 0 0
BITMAP
60
40
70
50
90
90
E0
ENDCHAR
STARTCHAR uni0254
ENCODING 596
SWIDTH 600 0
DWIDTH 5 0
BBX 4 5 0 0
BITMAP
70
90
10
90
60
ENDCHAR
STARTCHAR uni0255
ENCODING 597
SWIDTH 600 0
DWIDTH 5 0
BBX 4 5 0 0
BITMAP
70
50
70
90
E0
ENDCHAR
STARTCHAR uni0256
ENCODING 598
SWIDTH 600 0
DWIDTH 5 0
BBX 5 9 0 -2
BITMAP
08
08
70
50
90
90
70
10
10
ENDCHAR
STARTCHAR uni0257
ENCODING 599
SWIDTH 600 0
DWIDTH 5 0
BBX 5 7 0 0
BITMAP
08
08
70
50
90
90
70
ENDCHAR
STARTCHAR uni0258
ENCODING 600
SWIDTH 600 0
DWIDTH 5 0
BBX 4 5 0 0
BITMAP
70
50
70
90
60
ENDCHAR
STARTCHAR uni0259
ENCODING 601
SWIDTH 600 0
DWIDTH 5 0
BBX 4 5 0 0
BITMAP
70
50
70
90
60
ENDCHAR
STARTCHAR uni025A
ENCODING 602
SWIDTH 600 0
DWIDTH 5 0
BBX 5 5 0 0
BITMAP
60
50
70
A8
60
ENDCHAR
STARTCHAR uni025B
ENCODING 603
SWIDTH 600 0
DWIDTH 5 0
BBX 4 5 0 0
BITMAP
70
40
60
80
70
ENDCHAR
STARTCHAR uni025C
ENCODING 604
SWIDTH 600 0
DWIDTH 5 0
BBX 4 5 0 0
BITMAP
70
10
20
10
F0
ENDCHAR
STARTCHAR uni025D
ENCODING 605
SWIDTH 600 0
DWIDTH 5 0
BBX 5 5 0 0
BITMAP
70
18
60
20
E0
ENDCHAR
STARTCHAR uni025E
ENCODING 606
SWIDTH 600 0
DWIDTH 5 0
BBX 4 5 0 0
BITMAP
70
50
A0
90
70
ENDCHAR
STARTCHAR uni025F
ENCODING 607
SWIDTH 600 0
DWIDTH 5 0
BBX 4 7 0 -2
BITMAP
60
20
30
20
20
20
C0
ENDCHAR
STARTCHAR uni0260
ENCODING 608
SWIDTH 600 0
DWIDTH 5 0
BBX 5 9 0 -2
BITMAP
08
08
70
50
90
90
70
10
E0
ENDCHAR
STARTCHAR uni0261
ENCODING 609
SWIDTH 600 0
DWIDTH 5 0
BBX 4 7 0 -2
BITMAP
70
50
90
90
70
10
E0
ENDCHAR
STARTCHAR uni0262
ENCODING 610
SWIDTH 600 0
DWIDTH 5 0
BBX 4 5 0 0
BITMAP
70
50
B0
90
70
ENDCHAR
STARTCHAR uni0263
ENCODING 611
SWIDTH 600 0
DWIDTH 5 0
BBX 3 7 1 -2
BITMAP
A0
A0
40
40
C0
C0
80
ENDCHAR
STARTCHAR uni0264
ENCODING 612
SWIDTH 600 0
DWIDTH 5 0
BBX 3 5 1 0
BITMAP
A0
40
C0
C0
C0
ENDCHAR
STARTCHAR uni0265
ENCODING 613
SWIDTH 600 0
DWIDTH 5 0
BBX 4 7 0 -2
BITMAP
50
50
90
90
70
10
10
ENDCHAR
STARTCHAR uni0266
ENCODING 614
SWIDTH 600 0
DWIDTH 5 0
BBX 4 7 0 0
BITMAP
60
40
70
50
90
90
90
ENDCHAR
STARTCHAR uni0267
ENCODING 615
SWIDTH 600 0
DWIDTH 5 0
BBX 4 9 0 -2
BITMAP
60
40
70
50
90
90
90
10
20
ENDCHAR
STARTCHAR uni0268
ENCODING 616
SWIDTH 600 0
DWIDTH 5 0
BBX 3 7 1 0
BITMAP
40
00
C0
40
C0
A0
60
ENDCHAR
STARTCHAR uni0269
ENCODING 617
SWIDTH 600 0
DWIDTH 5 0
BBX 3 5 1 0
BITMAP
C0
40
40
A0
60
ENDCHAR
STARTCHAR uni026A
ENCODING 618
SWIDTH 600 0
DWIDTH 5 0
BBX 3 5 1 0
BITMAP
E0
40
40
40
C0
ENDCHAR
STARTCHAR uni026B
ENCODING 619
SWIDTH 600 0
DWIDTH 5 0
BBX 3 7 1 0
BITMAP
C0
40
40
E0
40
A0
60
ENDCHAR
STARTCHAR uni026C
ENCODING 620
SWIDTH 600 0
DWIDTH 5 0
BBX 3 7 1 0
BITMAP
C0
40
40
C0
C0
A0
60
ENDCHAR
STARTCHAR uni026D
ENCODING 621
SWIDTH 600 0
DWIDTH 5 0
BBX 2 9 1 -2
BITMAP
C0
40
40
40
40
40
80
80
40
ENDCHAR
STARTCHAR uni026E
ENCODING 622
SWIDTH 600 0
DWIDTH 5 0
BBX 4 9 0 -2
BITMAP
40
40
70
50
A0
B0
10
90
E0
ENDCHAR
STARTCHAR uni026F
ENCODING 623
SWIDTH 600 0
DWIDTH 5 0
BBX 5 5 0 0
BITMAP
68
B0
B0
B0
F0
ENDCHAR
STARTCHAR uni0270
ENCODING 624
SWIDTH 600 0
DWIDTH 5 0
BBX 5 7 0 -2
BITMAP
68
B0
B0
B0
F0
10
10
ENDCHAR
STARTCHAR uni0271
ENCODING 625
SWIDTH 600 0
DWIDTH 5 0
BBX 4 7 0 -2
BITMAP
70
B0
B0
B0
B0
10
20
ENDCHAR
STARTCHAR uni0272
ENCODING 626
SWIDTH 600 0
DWIDTH 5 0
BBX 5 7 -1 -2
BITMAP
38
28
48
48
48
40
80
ENDCHAR
STARTCHAR uni0273
ENCODING 627
SWIDTH 600 0
DWIDTH 5 0
BBX 4 7 0 -2
BITMAP
70
50
90
90
90
10
10
ENDCHAR
STARTCHAR uni0274
ENCODING 628
SWIDTH 600 0
DWIDTH 5 0
BBX 4 5 0 0
BITMAP
50
50
B0
B0
90
ENDCHAR
STARTCHAR uni0275
ENCODING 629
SWIDTH 600 0
DWIDTH 5 0
BBX 4 5 0 0
BITMAP
70
50
70
90
60
ENDCHAR
STARTCHAR uni0276
ENCODING 630
SWIDTH 600 0
DWIDTH 5 0
BBX 5 5 0 0
BITMAP
78
A0
B0
A0
70
ENDCHAR
STARTCHAR uni0277
ENCODING 631
SWIDTH 600 0
DWIDTH 5 0
BBX 4 5 0 0
BITMAP
70
50
B0
B0
F0
ENDCHAR
STARTCHAR uni0278
ENCODING 632
SWIDTH 600 0
DWIDTH 5 0
BBX 4 9 0 -2
BITMAP
20
20
70
B0
B0
B0
70
40
40
ENDCHAR
STARTCHAR uni0279
ENCODING 633
SWIDTH 600 0
DWIDTH 5 0
BBX 4 5 0 0
BITMAP
10
10
10
A0
E0
ENDCHAR
STARTCHAR uni027A
ENCODING 634
SWIDTH 600 0
DWIDTH 5 0
BBX 4 7 0 0
BITMAP
10
10
10
10
10
A0
E0
ENDCHAR
STARTCHAR uni027B
ENCODING 635
SWIDTH 600 0
DWIDTH 5 0
BBX 4 7 0 -2
BITMAP
10
10
10
A0
E0
20
10
ENDCHAR
STARTCHAR uni027C
ENCODING 636
SWIDTH 600 0
DWIDTH 5 0
BBX 3 7 1 -2
BITMAP
E0
A0
80
80
80
80
80
ENDCHAR
STARTCHAR uni027D
ENCODING 637
SWIDTH 600 0
DWIDTH 5 0
BBX 3 7 1 -2
BITMAP
E0
A0
80
80
80
80
80
ENDCHAR
STARTCHAR uni027E
ENCODING 638
SWIDTH 600 0
DWIDTH 5 0
BBX 3 5 1 0
BITMAP
60
80
80
80
80
ENDCHAR
STARTCHAR uni027F
ENCODING 639
SWIDTH 600 0
DWIDTH 5 0
BBX 2 7 1 -2
BITMAP
C0
40
40
40
40
40
80
ENDCHAR
STARTCHAR uni0280
ENCODING 640
SWIDTH 600 0
DWIDTH 5 0
BBX 4 5 0 0
BITMAP
70
50
70
A0
90
ENDCHAR
STARTCHAR uni0281
ENCODING 641
SWIDTH 600 0
DWIDTH 5 0
BBX 5 5 0 0
BITMAP
58
50
70
90
F0
ENDCHAR
STARTCHAR uni0282
ENCODING 642
SWIDTH 600 0
DWIDTH 5 0
BBX 4 7 0 -2
BITMAP
70
40
60
90
E0
80
80
ENDCHAR
STARTCHAR uni0283
ENCODING 643
SWIDTH 600 0
DWIDTH 5 0
BBX 4 9 0 -2
BITMAP
10
20
20
20
20
20
20
40
C0
ENDCHAR
STARTCHAR uni0284
ENCODING 644
SWIDTH 600 0
DWIDTH 5 0
BBX 5 9 0 -2
BITMAP
18
10
20
20
30
20
20
A0
C0
ENDCHAR
STARTCHAR uni0285
ENCODING 645
SWIDTH 600 0
DWIDTH 5 0
BBX 2 7 1 -2
BITMAP
80
40
40
40
40
80
40
ENDCHAR
STARTCHAR uni0286
ENCODING 646
SWIDTH 600 0
DWIDTH 5 0
BBX 4 9 0 -2
BITMAP
10
20
20
20
20
20
C0
E0
D0
ENDCHAR
STARTCHAR uni0287
ENCODING 647
SWIDTH 600 0
DWIDTH 5 0
BBX 4 7 0 -2
BITMAP
60
A0
20
20
F0
20
20
ENDCHAR
STARTCHAR uni0288
ENCODING 648
SWIDTH 600 0
DWIDTH 5 0
BBX 3 9 1 -2
BITMAP
40
40
E0
40
40
80
80
80
40
ENDCHAR
STARTCHAR uni0289
ENCODING 649
SWIDTH 600 0
DWIDTH 5 0
BBX 4 5 0 0
BITMAP
50
50
F0
90
70
ENDCHAR
STARTCHAR uni028A
ENCODING 650
SWIDTH 600 0
DWIDTH 5 0
BBX 3 5 1 0
BITMAP
A0
A0
A0
A0
C0
ENDCHAR
STARTCHAR uni028B
ENCODING 651
SWIDTH 600 0
DWIDTH 5 0
BBX 3 5 1 0
BITMAP
A0
A0
A0
A0
C0
ENDCHAR
STARTCHAR uni028C
ENCODING 652
SWIDTH 600 0
DWIDTH 5 0
BBX 4 5 0 0
BITMAP
20
60
50
50
90
ENDCHAR
STARTCHAR uni028D
ENCODING 653
SWIDTH 600 0
DWIDTH 5 0
BBX 4 5 0 0
BITMAP
50
50
B0
B0
90
ENDCHAR
STARTCHAR uni028E
ENCODING 654
SWIDTH 600 0
DWIDTH 5 0
BBX 4 7 0 0
BITMAP
10
20
20
60
50
50
90
ENDCHAR
STARTCHAR uni028F
ENCODING 655
SWIDTH 600 0
DWIDTH 5 0
BBX 3 5 1 0
BITMAP
A0
A0
40
40
40
ENDCHAR
STARTCHAR uni0290
ENCODING 656
SWIDTH 600 0
DWIDTH 5 0
BBX 4 7 0 -2
BITMAP
70
10
20
40
F0
10
10
ENDCHAR
STARTCHAR uni0291
ENCODING 657
SWIDTH 600 0
DWIDTH 5 0
BBX 4 6 0 -1
BITMAP
70
10
20
50
F0
40
ENDCHAR
STARTCHAR uni0292
ENCODING 658
SWIDTH 600 0
DWIDTH 5 0
BBX 4 7 0 -2
BITMAP
70
20
20
60
10
90
E0
ENDCHAR
STARTCHAR uni0293
ENCODING 659
SWIDTH 600 0
DWIDTH 5 0
BBX 4 7 0 -2
BITMAP
70
20
20
60
70
90
F0
ENDCHAR
STARTCHAR uni0294
ENCODING 660
SWIDTH 600 0
DWIDTH 5 0
BBX 3 7 1 0
BITMAP
60
A0
20
20
40
40
40
ENDCHAR
STARTCHAR uni0295
ENCODING 661
SWIDTH 600 0
DWIDTH 5 0
BBX 3 7 1 0
BITMAP
60
A0
80
80
40
40
40
ENDCHAR
STARTCHAR uni0296
ENCODING 662
SWIDTH 600 0
DWIDTH 5 0
BBX 4 7 0 0
BITMAP
20
20
20
10
10
90
60
ENDCHAR
STARTCHAR uni0297
ENCODING 663
SWIDTH 600 0
DWIDTH 5 0
BBX 4 7 0 -2
BITMAP
70
50
80
80
80
90
60
ENDCHAR
STARTCHAR uni0298
ENCODING 664
SWIDTH 600 0
DWIDTH 5 0
BBX 4 7 0 0
BITMAP
30
50
50
70
90
90
60
ENDCHAR
STARTCHAR uni0299
ENCODING 665
SWIDTH 600 0
DWIDTH 5 0
BBX 4 5 0 0
BITMAP
70
50
60
90
F0
ENDCHAR
STARTCHAR uni029A
ENCODING 666
SWIDTH 600 0
DWIDTH 5 0
BBX 4 5 0 0
BITMAP
70
50
70
90
60
ENDCHAR
STARTCHAR uni029B
ENCODING 667
SWIDTH 600 0
DWIDTH 5 0
BBX 5 7 0 0
BITMAP
08
08
70
50
B0
90
70
ENDCHAR
STARTCHAR uni029C
ENCODING 668
SWIDTH 600 0
DWIDTH 5 0
BBX 4 5 0 0
BITMAP
50
50
70
90
90
ENDCHAR
STARTCHAR uni029D
ENCODING 669
SWIDTH 600 0
DWIDTH 5 0
BBX 4 9 0 -2
BITMAP
10
00
60
20
20
20
60
A0
50
ENDCHAR
STARTCHAR uni029E
ENCODING 670
SWIDTH 600 0
DWIDTH 5 0
BBX 3 7 1 -2
BITMAP
A0
60
E0
A0
E0
20
40
ENDCHAR
STARTCHAR uni029F
ENCODING 671
SWIDTH 600 0
DWIDTH 5 0
BBX 3 5 1 0
BITMAP
80
80
80
80
E0
ENDCHAR
STARTCHAR uni02A0
ENCODING 672
SWIDTH 600 0
DWIDTH 5 0
BBX 5 9 0 -2
BITMAP
08
08
70
50
90
90
70
10
10
ENDCHAR
STARTCHAR uni02A1
ENCODING 673
SWIDTH 600 0
DWIDTH 5 0
BBX 3 7 1 0
BITMAP
60
A0
20
20
40
C0
40
ENDCHAR
STARTCHAR uni02A2
ENCODING 674
SWIDTH 600 0
DWIDTH 5 0
BBX 3 7 1 0
BITMAP
60
A0
80
80
40
C0
40
ENDCHAR
STARTCHAR uni02A3
ENCODING 675
SWIDTH 600 0
DWIDTH 5 0
BBX 5 7 0 0
BITMAP
20
20
78
B0
A0
A0
F0
ENDCHAR
STARTCHAR uni02A4
ENCODING 676
SWIDTH 600 0
DWIDTH 5 0
BBX 4 9 0 -2
BITMAP
20
20
70
B0
A0
D0
D0
30
20
ENDCHAR
STARTCHAR uni02A5
ENCODING 677
SWIDTH 600 0
DWIDTH 5 0
BBX 5 8 0 -1
BITMAP
20
20
78
B0
A0
B0
F0
20
ENDCHAR
STARTCHAR uni02A6
ENCODING 678
SWIDTH 600 0
DWIDTH 5 0
BBX 3 7 1 0
BITMAP
80
80
E0
E0
A0
A0
E0
ENDCHAR
STARTCHAR uni02A7
ENCODING 679
SWIDTH 600 0
DWIDTH 5 0
BBX 4 9 1 -2
BITMAP
90
A0
E0
A0
A0
A0
C0
40
C0
ENDCHAR
STARTCHAR uni02A8
ENCODING 680
SWIDTH 600 0
DWIDTH 5 0
BBX 3 7 1 0
BITMAP
80
80
E0
C0
E0
E0
E0
ENDCHAR
STARTCHAR uni02A9
ENCODING 681
SWIDTH 600 0
DWIDTH 5 0
BBX 4 9 0 -2
BITMAP
20
40
70
70
70
70
70
90
A0
ENDCHAR
STARTCHAR uni02AA
ENCODING 682
SWIDTH 600 0
DWIDTH 5 0
BBX 3 7 1 0
BITMAP
80
80
A0
E0
A0
A0
E0
ENDCHAR
STARTCHAR uni02AB
ENCODING 683
SWIDTH 600 0
DWIDTH 5 0
BBX 4 7 1 0
BITMAP
80
80
B0
A0
A0
C0
E0
ENDCHAR
STARTCHAR uni02AC
ENCODING 684
SWIDTH 600 0
DWIDTH 5 0
BBX 5 7 0 0
BITMAP
48
68
50
00
90
B0
60
ENDCHAR
STARTCHAR uni02AD
ENCODING 685
SWIDTH 600 0
DWIDTH 5 0
BBX 5 5 0 1
BITMAP
78
50
00
70
90
ENDCHAR
STARTCHAR uni02AE
ENCODING 686
SWIDTH 600 0
DWIDTH 5 0
BBX 4 7 0 -2
BITMAP
90
50
90
90
70
10
10
ENDCHAR
STARTCHAR uni02AF
ENCODING 687
SWIDTH 600 0
DWIDTH 5 0
BBX 4 8 0 -3
BITMAP
90
50
90
90
70
10
10
10
ENDCHAR
STARTCHAR uni02B0
ENCODING 688
SWIDTH 600 0
DWIDTH 5 0
BBX 3 4 1 3
BITMAP
80
E0
A0
A0
ENDCHAR
STARTCHAR uni02B1
ENCODING 689
SWIDTH 600 0
DWIDTH 5 0
BBX 3 4 1 3
BITMAP
40
E0
A0
A0
ENDCHAR
STARTCHAR uni02B2
ENCODING 690
SWIDTH 600 0
DWIDTH 5 0
BBX 3 6 1 1
BITMAP
20
40
40
40
40
C0
ENDCHAR
STARTCHAR uni02B3
ENCODING 691
SWIDTH 600 0
DWIDTH 5 0
BBX 3 3 1 3
BITMAP
60
80
80
ENDCHAR
STARTCHAR uni02B4
ENCODING 692
SWIDTH 600 0
DWIDTH 5 0
BBX 3 3 1 3
BITMAP
20
20
C0
ENDCHAR
STARTCHAR uni02B5
ENCODING 693
SWIDTH 600 0
DWIDTH 5 0
BBX 3 5 1 1
BITMAP
20
20
C0
40
20
ENDCHAR
STARTCHAR uni02B6
ENCODING 694
SWIDTH 600 0
DWIDTH 5 0
BBX 3 3 1 3
BITMAP
A0
E0
E0
ENDCHAR
STARTCHAR uni02B7
ENCODING 695
SWIDTH 600 0
DWIDTH 5 0
BBX 3 3 1 3
BITMAP
A0
E0
A0
ENDCHAR
STARTCHAR uni02B8
ENCODING 696
SWIDTH 600 0
DWIDTH 5 0
BBX 3 5 1 1
BITMAP
A0
A0
E0
20
C0
ENDCHAR
STARTCHAR uni02B9
ENCODING 697
SWIDTH 600 0
DWIDTH 5 0
BBX 2 3 2 4
BITMAP
40
80
80
ENDCHAR
STARTCHAR uni02BA
ENCODING 698
SWIDTH 600 0
DWIDTH 5 0
BBX 4 3 1 4
BITMAP
50
A0
A0
ENDCHAR
STARTCHAR uni02BB
ENCODING 699
SWIDTH 600 0
DWIDTH 5 0
BBX 2 3 2 4
BITMAP
40
80
80
ENDCHAR
STARTCHAR uni02BC
ENCODING 700
SWIDTH 600 0
DWIDTH 5 0
BBX 1 3 2 4
BITMAP
80
80
80
ENDCHAR
STARTCHAR uni02BD
ENCODING 701
SWIDTH 600 0
DWIDTH 5 0
BBX 1 3 2 4
BITMAP
80
80
80
ENDCHAR
STARTCHAR uni02BE
ENCODING 702
SWIDTH 600 0
DWIDTH 5 0
BBX 2 4 2 4
BITMAP
80
40
40
80
ENDCHAR
STARTCHAR uni02BF
ENCODING 703
SWIDTH 600 0
DWIDTH 5 0
BBX 2 4 2 4
BITMAP
40
80
80
80
ENDCHAR
STARTCHAR uni02C0
ENCODING 704
SWIDTH 600 0
DWIDTH 5 0
BBX 3 4 1 3
BITMAP
60
A0
40
40
ENDCHAR
STARTCHAR uni02C1
ENCODING 705
SWIDTH 600 0
DWIDTH 5 0
BBX 3 4 1 3
BITMAP
60
80
40
40
ENDCHAR
STARTCHAR uni02C2
ENCODING 706
SWIDTH 600 0
DWIDTH 5 0
BBX 2 1 2 5
BITMAP
C0
ENDCHAR
STARTCHAR uni02C3
ENCODING 707
SWIDTH 600 0
DWIDTH 5 0
BBX 2 1 2 5
BITMAP
C0
ENDCHAR
STARTCHAR uni02C4
ENCODING 708
SWIDTH 600 0
DWIDTH 5 0
BBX 2 2 2 5
BITMAP
C0
40
ENDCHAR
STARTCHAR uni02C5
ENCODING 709
SWIDTH 600 0
DWIDTH 5 0
BBX 2 2 2 6
BITMAP
C0
C0
ENDCHAR
STARTCHAR circumflex
ENCODING 710
SWIDTH 600 0
DWIDTH 5 0
BBX 3 2 1 5
BITMAP
60
A0
ENDCHAR
STARTCHAR caron
ENCODING 711
SWIDTH 600 0
DWIDTH 5 0
BBX 2 2 2 6
BITMAP
C0
C0
ENDCHAR
STARTCHAR uni02C8
ENCODING 712
SWIDTH 600 0
DWIDTH 5 0
BBX 1 3 2 4
BITMAP
80
80
80
ENDCHAR
STARTCHAR uni02C9
ENCODING 713
SWIDTH 600 0
DWIDTH 5 0
BBX 3 1 1 6
BITMAP
E0
ENDCHAR
STARTCHAR uni02CA
ENCODING 714
SWIDTH 600 0
DWIDTH 5 0
BBX 2 1 2 5
BITMAP
C0
ENDCHAR
STARTCHAR uni02CB
ENCODING 715
SWIDTH 600 0
DWIDTH 5 0
BBX 1 1 2 5
BITMAP
80
ENDCHAR
STARTCHAR uni02CC
ENCODING 716
SWIDTH 600 0
DWIDTH 5 0
BBX 1 3 1 -2
BITMAP
80
80
80
ENDCHAR
STARTCHAR uni02CD
ENCODING 717
SWIDTH 600 0
DWIDTH 5 0
BBX 3 1 0 -2
BITMAP
E0
ENDCHAR
STARTCHAR uni02CE
ENCODING 718
SWIDTH 600 0
DWIDTH 5 0
BBX 2 2 1 -2
BITMAP
80
40
ENDCHAR
STARTCHAR uni02CF
ENCODING 719
SWIDTH 600 0
DWIDTH 5 0
BBX 1 2 1 -2
BITMAP
80
80
ENDCHAR
STARTCHAR uni02D0
ENCODING 720
SWIDTH 600 0
DWIDTH 5 0
BBX 2 5 1 0
BITMAP
40
40
00
40
C0
ENDCHAR
STARTCHAR uni02D1
ENCODING 721
SWIDTH 600 0
DWIDTH 5 0
BBX 1 2 2 3
BITMAP
80
80
ENDCHAR
STARTCHAR uni02D2
ENCODING 722
SWIDTH 600 0
DWIDTH 5 0
BBX 1 2 2 2
BITMAP
80
80
ENDCHAR
STARTCHAR uni02D3
ENCODING 723
SWIDTH 600 0
DWIDTH 5 0
BBX 1 2 2 2
BITMAP
80
80
ENDCHAR
STARTCHAR uni02D4
ENCODING 724
SWIDTH 600 0
DWIDTH 5 0
BBX 2 2 1 1
BITMAP
40
C0
ENDCHAR
STARTCHAR uni02D5
ENCODING 725
SWIDTH 600 0
DWIDTH 5 0
BBX 2 2 1 2
BITMAP
C0
40
ENDCHAR
STARTCHAR uni02D6
ENCODING 726
SWIDTH 600 0
DWIDTH 5 0
BBX 2 3 1 1
BITMAP
40
C0
40
ENDCHAR
STARTCHAR uni02D7
ENCODING 727
SWIDTH 600 0
DWIDTH 5 0
BBX 2 1 1 2
BITMAP
C0
ENDCHAR
STARTCHAR breve
ENCODING 728
SWIDTH 600 0
DWIDTH 5 0
BBX 3 2 1 5
BITMAP
A0
60
ENDCHAR
STARTCHAR dotaccent
ENCODING 729
SWIDTH 600 0
DWIDTH 5 0
BBX 1 1 2 6
BITMAP
80
ENDCHAR
STARTCHAR ring
ENCODING 730
SWIDTH 600 0
DWIDTH 5 0
BBX 2 2 2 5
BITMAP
C0
80
ENDCHAR
STARTCHAR ogonek
ENCODING 731
SWIDTH 600 0
DWIDTH 5 0
BBX 1 2 1 -2
BITMAP
80
80
ENDCHAR
STARTCHAR tilde
ENCODING 732
SWIDTH 600 0
DWIDTH 5 0
BBX 4 2 1 6
BITMAP
50
A0
ENDCHAR
STARTCHAR hungarumlaut
ENCODING 733
SWIDTH 600 0
DWIDTH 5 0
BBX 4 1 1 5
BITMAP
F0
ENDCHAR
STARTCHAR uni02DE
ENCODING 734
SWIDTH 600 0
DWIDTH 5 0
BBX 5 4 -1 0
BITMAP
30
50
A0
18
ENDCHAR
STARTCHAR uni02DF
ENCODING 735
SWIDTH 600 0
DWIDTH 5 0
BBX 2 1 2 5
BITMAP
C0
ENDCHAR
STARTCHAR uni02E0
ENCODING 736
SWIDTH 600 0
DWIDTH 5 0
BBX 3 5 1 1
BITMAP
A0
40
40
40
40
ENDCHAR
STARTCHAR uni02E1
ENCODING 737
SWIDTH 600 0
DWIDTH 5 0
BBX 2 4 2 3
BITMAP
80
80
80
C0
ENDCHAR
STARTCHAR uni02E2
ENCODING 738
SWIDTH 600 0
DWIDTH 5 0
BBX 3 3 1 3
BITMAP
E0
40
E0
ENDCHAR
STARTCHAR uni02E3
ENCODING 739
SWIDTH 600 0
DWIDTH 5 0
BBX 3 3 1 3
BITMAP
E0
40
A0
ENDCHAR
STARTCHAR uni02E4
ENCODING 740
SWIDTH 600 0
DWIDTH 5 0
BBX 2 4 2 3
BITMAP
C0
80
80
80
ENDCHAR
STARTCHAR uni02E5
ENCODING 741
SWIDTH 600 0
DWIDTH 5 0
BBX 3 7 1 0
BITMAP
E0
20
20
20
20
20
20
ENDCHAR
STARTCHAR uni02E6
ENCODING 742
SWIDTH 600 0
DWIDTH 5 0
BBX 3 6 1 1
BITMAP
20
E0
20
20
20
20
ENDCHAR
STARTCHAR uni02E7
ENCODING 743
SWIDTH 600 0
DWIDTH 5 0
BBX 3 7 1 0
BITMAP
20
20
20
E0
20
20
20
ENDCHAR
STARTCHAR uni02E8
ENCODING 744
SWIDTH 600 0
DWIDTH 5 0
BBX 3 7 1 0
BITMAP
20
20
20
20
20
E0
20
ENDCHAR
STARTCHAR uni02E9
ENCODING 745
SWIDTH 600 0
DWIDTH 5 0
BBX 3 7 1 0
BITMAP
20
20
20
20
20
20
C0
ENDCHAR
STARTCHAR uni02EA
ENCODING 746
SWIDTH 600 0
DWIDTH 5 0
BBX 2 4 1 0
BITMAP
80
80
80
C0
ENDCHAR
STARTCHAR uni02EB
ENCODING 747
SWIDTH 600 0
DWIDTH 5 0
BBX 3 3 1 0
BITMAP
80
E0
80
ENDCHAR
STARTCHAR uni02EC
ENCODING 748
SWIDTH 600 0
DWIDTH 5 0
BBX 2 2 1 -2
BITMAP
C0
80
ENDCHAR
STARTCHAR uni02ED
ENCODING 749
SWIDTH 600 0
DWIDTH 5 0
BBX 4 2 1 5
BITMAP
F0
E0
ENDCHAR
STARTCHAR uni02EE
ENCODING 750
SWIDTH 600 0
DWIDTH 5 0
BBX 3 3 1 4
BITMAP
A0
A0
A0
ENDCHAR
STARTCHAR uni02EF
ENCODING 751
SWIDTH 600 0
DWIDTH 5 0
BBX 2 2 1 -2
BITMAP
40
80
ENDCHAR
STARTCHAR uni02F0
ENCODING 752
SWIDTH 600 0
DWIDTH 5 0
BBX 2 2 1 -3
BITMAP
80
40
ENDCHAR
STARTCHAR uni02F1
ENCODING 753
SWIDTH 600 0
DWIDTH 5 0
BBX 2 2 1 -2
BITMAP
40
C0
ENDCHAR
STARTCHAR uni02F2
ENCODING 754
SWIDTH 600 0
DWIDTH 5 0
BBX 2 2 1 -2
BITMAP
80
C0
ENDCHAR
STARTCHAR uni02F3
ENCODING 755
SWIDTH 600 0
DWIDTH 5 0
BBX 2 2 1 -3
BITMAP
C0
80
ENDCHAR
STARTCHAR uni02F4
ENCODING 756
SWIDTH 600 0
DWIDTH 5 0
BBX 2 1 1 2
BITMAP
C0
ENDCHAR
STARTCHAR uni02F5
ENCODING 757
SWIDTH 600 0
DWIDTH 5 0
BBX 3 1 1 2
BITMAP
E0
ENDCHAR
STARTCHAR uni02F6
ENCODING 758
SWIDTH 600 0
DWIDTH 5 0
BBX 3 2 1 2
BITMAP
60
A0
ENDCHAR
STARTCHAR uni02F7
ENCODING 759
SWIDTH 600 0
DWIDTH 5 0
BBX 3 2 0 -2
BITMAP
60
A0
ENDCHAR
STARTCHAR uni02F8
ENCODING 760
SWIDTH 600 0
DWIDTH 5 0
BBX 1 4 2 3
BITMAP
80
00
00
80
ENDCHAR
STARTCHAR uni02F9
ENCODING 761
SWIDTH 600 0
DWIDTH 5 0
BBX 3 3 1 4
BITMAP
60
80
80
ENDCHAR
STARTCHAR uni02FA
ENCODING 762
SWIDTH 600 0
DWIDTH 5 0
BBX 3 3 1 4
BITMAP
E0
20
20
ENDCHAR
STARTCHAR uni02FB
ENCODING 763
SWIDTH 600 0
DWIDTH 5 0
BBX 2 3 1 0
BITMAP
80
80
C0
ENDCHAR
STARTCHAR uni02FC
ENCODING 764
SWIDTH 600 0
DWIDTH 5 0
BBX 3 3 1 0
BITMAP
20
20
C0
ENDCHAR
STARTCHAR uni02FD
ENCODING 765
SWIDTH 600 0
DWIDTH 5 0
BBX 4 2 0 -2
BITMAP
90
F0
ENDCHAR
STARTCHAR uni02FE
ENCODING 766
SWIDTH 600 0
DWIDTH 5 0
BBX 3 2 0 -2
BITMAP
80
E0
ENDCHAR
STARTCHAR uni02FF
ENCODING 767
SWIDTH 600 0
DWIDTH 5 0
BBX 3 1 0 -2
BITMAP
E0
ENDCHAR
STARTCHAR uni0300.join-l
ENCODING 768
SWIDTH 0 0
DWIDTH 0 0
BBX 1 1 -3 5
BITMAP
80
ENDCHAR
STARTCHAR uni0301.join-l
ENCODING 769
SWIDTH 0 0
DWIDTH 0 0
BBX 2 1 -3 5
BITMAP
C0
ENDCHAR
STARTCHAR uni0302.join-l
ENCODING 770
SWIDTH 0 0
DWIDTH 0 0
BBX 2 2 -3 5
BITMAP
C0
C0
ENDCHAR
STARTCHAR uni0303.join-l
ENCODING 771
SWIDTH 0 0
DWIDTH 0 0
BBX 4 2 -4 6
BITMAP
50
A0
ENDCHAR
STARTCHAR uni0304.join-l
ENCODING 772
SWIDTH 0 0
DWIDTH 0 0
BBX 2 1 -3 6
BITMAP
C0
ENDCHAR
STARTCHAR uni0305.join-l
ENCODING 773
SWIDTH 0 0
DWIDTH 0 0
BBX 4 1 -4 6
BITMAP
F0
ENDCHAR
STARTCHAR uni0306.join-l
ENCODING 774
SWIDTH 0 0
DWIDTH 0 0
BBX 3 2 -3 5
BITMAP
A0
C0
ENDCHAR
STARTCHAR uni0307.join-l
ENCODING 775
SWIDTH 0 0
DWIDTH 0 0
BBX 1 1 -2 6
BITMAP
80
ENDCHAR
STARTCHAR uni0308.join-l
ENCODING 776
SWIDTH 0 0
DWIDTH 0 0
BBX 2 1 -3 6
BITMAP
C0
ENDCHAR
STARTCHAR uni0309.join-l
ENCODING 777
SWIDTH 0 0
DWIDTH 0 0
BBX 2 2 -3 5
BITMAP
C0
40
ENDCHAR
STARTCHAR uni030A.join-l
ENCODING 778
SWIDTH 0 0
DWIDTH 0 0
BBX 2 2 -3 5
BITMAP
C0
C0
ENDCHAR
STARTCHAR uni030B.join-l
ENCODING 779
SWIDTH 0 0
DWIDTH 0 0
BBX 3 1 -3 5
BITMAP
E0
ENDCHAR
STARTCHAR uni030C.join-l
ENCODING 780
SWIDTH 0 0
DWIDTH 0 0
BBX 2 2 -3 6
BITMAP
C0
C0
ENDCHAR
STARTCHAR uni030D.join-l
ENCODING 781
SWIDTH 0 0
DWIDTH 0 0
BBX 1 1 -2 6
BITMAP
80
ENDCHAR
STARTCHAR uni030E.join-l
ENCODING 782
SWIDTH 0 0
DWIDTH 0 0
BBX 2 1 -3 6
BITMAP
C0
ENDCHAR
STARTCHAR uni030F.join-l
ENCODING 783
SWIDTH 0 0
DWIDTH 0 0
BBX 3 1 -4 5
BITMAP
E0
ENDCHAR
STARTCHAR uni0310.join-l
ENCODING 784
SWIDTH 0 0
DWIDTH 0 0
BBX 2 2 -3 5
BITMAP
C0
C0
ENDCHAR
STARTCHAR uni0311.join-l
ENCODING 785
SWIDTH 0 0
DWIDTH 0 0
BBX 2 1 -3 6
BITMAP
C0
ENDCHAR
STARTCHAR uni0312.join-l
ENCODING 786
SWIDTH 0 0
DWIDTH 0 0
BBX 1 2 -2 5
BITMAP
80
80
ENDCHAR
STARTCHAR uni0313.join-l
ENCODING 787
SWIDTH 0 0
DWIDTH 0 0
BBX 1 2 -2 5
BITMAP
80
80
ENDCHAR
STARTCHAR uni0314.join-l
ENCODING 788
SWIDTH 0 0
DWIDTH 0 0
BBX 1 2 -2 5
BITMAP
80
80
ENDCHAR
STARTCHAR uni0315.join-l
ENCODING 789
SWIDTH 0 0
DWIDTH 0 0
BBX 1 2 0 5
BITMAP
80
80
ENDCHAR
STARTCHAR uni0316.join-l
ENCODING 790
SWIDTH 0 0
DWIDTH 0 0
BBX 1 2 -3 -2
BITMAP
80
80
ENDCHAR
STARTCHAR uni0317.join-l
ENCODING 791
SWIDTH 0 0
DWIDTH 0 0
BBX 2 2 -4 -2
BITMAP
40
80
ENDCHAR
STARTCHAR uni0318.join-l
ENCODING 792
SWIDTH 0 0
DWIDTH 0 0
BBX 2 1 -4 -2
BITMAP
C0
ENDCHAR
STARTCHAR uni0319.join-l
ENCODING 793
SWIDTH 0 0
DWIDTH 0 0
BBX 2 1 -4 -2
BITMAP
C0
ENDCHAR
STARTCHAR uni031A.join-l
ENCODING 794
SWIDTH 0 0
DWIDTH 0 0
BBX 2 2 -1 5
BITMAP
C0
40
ENDCHAR
STARTCHAR uni031B.join-l
ENCODING 795
SWIDTH 0 0
DWIDTH 0 0
BBX 1 2 0 4
BITMAP
80
80
ENDCHAR
STARTCHAR uni031C.join-l
ENCODING 796
SWIDTH 0 0
DWIDTH 0 0
BBX 1 2 -4 -2
BITMAP
80
80
ENDCHAR
STARTCHAR uni031D.join-l
ENCODING 797
SWIDTH 0 0
DWIDTH 0 0
BBX 2 2 -4 -2
BITMAP
40
C0
ENDCHAR
STARTCHAR uni031E.join-l
ENCODING 798
SWIDTH 0 0
DWIDTH 0 0
BBX 2 2 -4 -3
BITMAP
C0
80
ENDCHAR
STARTCHAR uni031F.join-l
ENCODING 799
SWIDTH 0 0
DWIDTH 0 0
BBX 2 1 -4 -2
BITMAP
C0
ENDCHAR
STARTCHAR uni0320.join-l
ENCODING 800
SWIDTH 0 0
DWIDTH 0 0
BBX 2 1 -4 -2
BITMAP
C0
ENDCHAR
STARTCHAR uni0321.join-l
ENCODING 801
SWIDTH 0 0
DWIDTH 0 0
BBX 2 2 -2 -2
BITMAP
40
80
ENDCHAR
STARTCHAR uni0322.join-l
ENCODING 802
SWIDTH 0 0
DWIDTH 0 0
BBX 1 2 -1 -2
BITMAP
80
80
ENDCHAR
STARTCHAR uni0323.join-l
ENCODING 803
SWIDTH 0 0
DWIDTH 0 0
BBX 1 1 -4 -2
BITMAP
80
ENDCHAR
STARTCHAR uni0324.join-l
ENCODING 804
SWIDTH 0 0
DWIDTH 0 0
BBX 2 1 -4 -2
BITMAP
C0
ENDCHAR
STARTCHAR uni0325.join-l
ENCODING 805
SWIDTH 0 0
DWIDTH 0 0
BBX 2 2 -4 -3
BITMAP
C0
C0
ENDCHAR
STARTCHAR uni0326.join-l
ENCODING 806
SWIDTH 0 0
DWIDTH 0 0
BBX 1 2 -4 -2
BITMAP
80
80
ENDCHAR
STARTCHAR uni0327.join-l
ENCODING 807
SWIDTH 0 0
DWIDTH 0 0
BBX 2 2 -4 -2
BITMAP
40
C0
ENDCHAR
STARTCHAR uni0328.join-l
ENCODING 808
SWIDTH 0 0
DWIDTH 0 0
BBX 2 2 -4 -2
BITMAP
C0
C0
ENDCHAR
STARTCHAR uni0329.join-l
ENCODING 809
SWIDTH 0 0
DWIDTH 0 0
BBX 1 1 -4 -2
BITMAP
80
ENDCHAR
STARTCHAR uni032A.join-l
ENCODING 810
SWIDTH 0 0
DWIDTH 0 0
BBX 2 2 -4 -3
BITMAP
C0
C0
ENDCHAR
STARTCHAR uni032B.join-l
ENCODING 811
SWIDTH 0 0
DWIDTH 0 0
BBX 2 2 -4 -2
BITMAP
C0
C0
ENDCHAR
STARTCHAR uni032C.join-l
ENCODING 812
SWIDTH 0 0
DWIDTH 0 0
BBX 2 2 -4 -2
BITMAP
C0
C0
ENDCHAR
STARTCHAR uni032D.join-l
ENCODING 813
SWIDTH 0 0
DWIDTH 0 0
BBX 2 2 -4 -3
BITMAP
C0
C0
ENDCHAR
STARTCHAR uni032E.join-l
ENCODING 814
SWIDTH 0 0
DWIDTH 0 0
BBX 2 2 -4 -2
BITMAP
C0
C0
ENDCHAR
STARTCHAR uni032F.join-l
ENCODING 815
SWIDTH 0 0
DWIDTH 0 0
BBX 3 1 -5 -2
BITMAP
E0
ENDCHAR
STARTCHAR uni0330.join-l
ENCODING 816
SWIDTH 0 0
DWIDTH 0 0
BBX 4 2 -5 -2
BITMAP
50
A0
ENDCHAR
STARTCHAR uni0331.join-l
ENCODING 817
SWIDTH 0 0
DWIDTH 0 0
BBX 2 1 -4 -2
BITMAP
C0
ENDCHAR
STARTCHAR uni0332.join-l
ENCODING 818
SWIDTH 0 0
DWIDTH 0 0
BBX 4 1 -5 -2
BITMAP
F0
ENDCHAR
STARTCHAR uni0333.join-l
ENCODING 819
SWIDTH 0 0
DWIDTH 0 0
BBX 5 2 -6 -2
BITMAP
78
F8
ENDCHAR
STARTCHAR uni0334.join-l
ENCODING 820
SWIDTH 0 0
DWIDTH 0 0
BBX 3 2 -4 2
BITMAP
60
E0
ENDCHAR
STARTCHAR uni0335.join-l
ENCODING 821
SWIDTH 0 0
DWIDTH 0 0
BBX 3 1 -4 2
BITMAP
E0
ENDCHAR
STARTCHAR uni0336.join-l
ENCODING 822
SWIDTH 0 0
DWIDTH 0 0
BBX 5 1 -5 2
BITMAP
F8
ENDCHAR
STARTCHAR uni0337.join-l
ENCODING 823
SWIDTH 0 0
DWIDTH 0 0
BBX 3 6 -4 -1
BITMAP
20
20
40
40
80
80
ENDCHAR
STARTCHAR uni0338.join-l
ENCODING 824
SWIDTH 0 0
DWIDTH 0 0
BBX 5 8 -5 -2
BITMAP
08
10
10
20
20
40
40
80
ENDCHAR
STARTCHAR uni0339.join-l
ENCODING 825
SWIDTH 0 0
DWIDTH 0 0
BBX 1 2 -3 -2
BITMAP
80
80
ENDCHAR
STARTCHAR uni033A.join-l
ENCODING 826
SWIDTH 0 0
DWIDTH 0 0
BBX 2 2 -4 -2
BITMAP
C0
C0
ENDCHAR
STARTCHAR uni033B.join-l
ENCODING 827
SWIDTH 0 0
DWIDTH 0 0
BBX 2 2 -4 -2
BITMAP
C0
C0
ENDCHAR
STARTCHAR uni033C.join-l
ENCODING 828
SWIDTH 0 0
DWIDTH 0 0
BBX 2 2 -4 -3
BITMAP
C0
C0
ENDCHAR
STARTCHAR uni033D.join-l
ENCODING 829
SWIDTH 0 0
DWIDTH 0 0
BBX 2 1 -3 5
BITMAP
C0
ENDCHAR
STARTCHAR uni033E.join-l
ENCODING 830
SWIDTH 0 0
DWIDTH 0 0
BBX 1 1 -2 6
BITMAP
80
ENDCHAR
STARTCHAR uni033F.join-l
ENCODING 831
SWIDTH 0 0
DWIDTH 0 0
BBX 5 2 -4 5
BITMAP
F8
F0
ENDCHAR
STARTCHAR uni0340.join-l
ENCODING 832
SWIDTH 0 0
DWIDTH 0 0
BBX 1 1 -3 5
BITMAP
80
ENDCHAR
STARTCHAR uni0341.join-l
ENCODING 833
SWIDTH 0 0
DWIDTH 0 0
BBX 2 1 -3 5
BITMAP
C0
ENDCHAR
STARTCHAR uni0342.join-l
ENCODING 834
SWIDTH 0 0
DWIDTH 0 0
BBX 2 1 -3 6
BITMAP
C0
ENDCHAR
STARTCHAR uni0343.join-l
ENCODING 835
SWIDTH 0 0
DWIDTH 0 0
BBX 1 2 -2 5
BITMAP
80
80
ENDCHAR
STARTCHAR uni0344.join-l
ENCODING 836
SWIDTH 0 0
DWIDTH 0 0
BBX 4 2 -4 5
BITMAP
20
90
ENDCHAR
STARTCHAR uni0345.join-l
ENCODING 837
SWIDTH 0 0
DWIDTH 0 0
BBX 1 1 -4 -2
BITMAP
80
ENDCHAR
STARTCHAR uni0346.join-l
ENCODING 838
SWIDTH 0 0
DWIDTH 0 0
BBX 2 2 -3 5
BITMAP
C0
C0
ENDCHAR
STARTCHAR uni0347.join-l
ENCODING 839
SWIDTH 0 0
DWIDTH 0 0
BBX 2 2 -4 -2
BITMAP
C0
C0
ENDCHAR
STARTCHAR uni0348.join-l
ENCODING 840
SWIDTH 0 0
DWIDTH 0 0
BBX 2 1 -4 -2
BITMAP
C0
ENDCHAR
STARTCHAR uni0349.join-l
ENCODING 841
SWIDTH 0 0
DWIDTH 0 0
BBX 2 2 -4 -3
BITMAP
C0
40
ENDCHAR
STARTCHAR uni034A.join-l
ENCODING 842
SWIDTH 0 0
DWIDTH 0 0
BBX 4 2 -4 6
BITMAP
70
E0
ENDCHAR
STARTCHAR uni034B.join-l
ENCODING 843
SWIDTH 0 0
DWIDTH 0 0
BBX 4 3 -4 5
BITMAP
20
F0
40
ENDCHAR
STARTCHAR uni034C.join-l
ENCODING 844
SWIDTH 0 0
DWIDTH 0 0
BBX 4 3 -4 5
BITMAP
50
F0
A0
ENDCHAR
STARTCHAR uni034D.join-l
ENCODING 845
SWIDTH 0 0
DWIDTH 0 0
BBX 4 1 -5 -2
BITMAP
F0
ENDCHAR
STARTCHAR uni034E.join-l
ENCODING 846
SWIDTH 0 0
DWIDTH 0 0
BBX 2 2 -4 -2
BITMAP
40
C0
ENDCHAR
STARTCHAR uni034F.join-m
ENCODING 847
SWIDTH 0 0
DWIDTH 0 0
BBX 1 1 0 0
BITMAP
00
ENDCHAR
STARTCHAR uni0350.join-l
ENCODING 848
SWIDTH 0 0
DWIDTH 0 0
BBX 2 1 -3 5
BITMAP
C0
ENDCHAR
STARTCHAR uni0351.join-l
ENCODING 849
SWIDTH 0 0
DWIDTH 0 0
BBX 1 2 -3 5
BITMAP
80
80
ENDCHAR
STARTCHAR uni0352.join-l
ENCODING 850
SWIDTH 0 0
DWIDTH 0 0
BBX 2 2 -3 5
BITMAP
C0
80
ENDCHAR
STARTCHAR uni0353.join-l
ENCODING 851
SWIDTH 0 0
DWIDTH 0 0
BBX 2 2 -4 -2
BITMAP
C0
C0
ENDCHAR
STARTCHAR uni0354.join-l
ENCODING 852
SWIDTH 0 0
DWIDTH 0 0
BBX 2 2 -4 -2
BITMAP
40
C0
ENDCHAR
STARTCHAR uni0355.join-l
ENCODING 853
SWIDTH 0 0
DWIDTH 0 0
BBX 2 2 -4 -2
BITMAP
80
C0
ENDCHAR
STARTCHAR uni0356.join-l
ENCODING 854
SWIDTH 0 0
DWIDTH 0 0
BBX 4 3 -5 -3
BITMAP
80
F0
10
ENDCHAR
STARTCHAR uni0357.join-l
ENCODING 855
SWIDTH 0 0
DWIDTH 0 0
BBX 1 2 -2 5
BITMAP
80
80
ENDCHAR
STARTCHAR uni0358.join-l
ENCODING 856
SWIDTH 0 0
DWIDTH 0 0
BBX 1 1 0 5
BITMAP
80
ENDCHAR
STARTCHAR uni0359.join-l
ENCODING 857
SWIDTH 0 0
DWIDTH 0 0
BBX 2 2 -4 -2
BITMAP
40
80
ENDCHAR
STARTCHAR uni035A.join-l
ENCODING 858
SWIDTH 0 0
DWIDTH 0 0
BBX 2 2 -4 -3
BITMAP
C0
C0
ENDCHAR
STARTCHAR uni035B.join-l
ENCODING 859
SWIDTH 0 0
DWIDTH 0 0
BBX 2 1 -3 6
BITMAP
C0
ENDCHAR
STARTCHAR uni035C.join-m
ENCODING 860
SWIDTH 0 0
DWIDTH 0 0
BBX 8 2 -5 -5
BITMAP
C3
3C
ENDCHAR
STARTCHAR uni035D.join-m
ENCODING 861
SWIDTH 0 0
DWIDTH 0 0
BBX 8 2 -3 7
BITMAP
83
7C
ENDCHAR
STARTCHAR uni035E.join-m
ENCODING 862
SWIDTH 0 0
DWIDTH 0 0
BBX 7 1 -3 8
BITMAP
FE
ENDCHAR
STARTCHAR uni035F.join-m
ENCODING 863
SWIDTH 0 0
DWIDTH 0 0
BBX 8 1 -5 -5
BITMAP
FF
ENDCHAR
STARTCHAR uni0360.join-m
ENCODING 864
SWIDTH 0 0
DWIDTH 0 0
BBX 8 2 -3 7
BITMAP
71
8E
ENDCHAR
STARTCHAR uni0361.join-m
ENCODING 865
SWIDTH 0 0
DWIDTH 0 0
BBX 7 2 -3 8
BITMAP
7C
82
ENDCHAR
STARTCHAR uni0362.join-m
ENCODING 866
SWIDTH 0 0
DWIDTH 0 0
BBX 8 3 -5 -6
BITMAP
02
FF
02
ENDCHAR
STARTCHAR uni0363.join-l
ENCODING 867
SWIDTH 0 0
DWIDTH 0 0
BBX 2 2 -3 5
BITMAP
C0
C0
ENDCHAR
STARTCHAR uni0364.join-l
ENCODING 868
SWIDTH 0 0
DWIDTH 0 0
BBX 2 3 -3 5
BITMAP
40
C0
40
ENDCHAR
STARTCHAR uni0365.join-l
ENCODING 869
SWIDTH 0 0
DWIDTH 0 0
BBX 2 3 -3 5
BITMAP
C0
40
40
ENDCHAR
STARTCHAR uni0366.join-l
ENCODING 870
SWIDTH 0 0
DWIDTH 0 0
BBX 2 3 -3 5
BITMAP
40
C0
80
ENDCHAR
STARTCHAR uni0367.join-l
ENCODING 871
SWIDTH 0 0
DWIDTH 0 0
BBX 2 2 -3 5
BITMAP
C0
C0
ENDCHAR
STARTCHAR uni0368.join-l
ENCODING 872
SWIDTH 0 0
DWIDTH 0 0
BBX 2 3 -3 5
BITMAP
40
80
40
ENDCHAR
STARTCHAR uni0369.join-l
ENCODING 873
SWIDTH 0 0
DWIDTH 0 0
BBX 2 3 -3 5
BITMAP
40
C0
C0
ENDCHAR
STARTCHAR uni036A.join-l
ENCODING 874
SWIDTH 0 0
DWIDTH 0 0
BBX 2 3 -3 6
BITMAP
80
C0
C0
ENDCHAR
STARTCHAR uni036B.join-l
ENCODING 875
SWIDTH 0 0
DWIDTH 0 0
BBX 2 2 -3 6
BITMAP
C0
C0
ENDCHAR
STARTCHAR uni036C.join-l
ENCODING 876
SWIDTH 0 0
DWIDTH 0 0
BBX 2 2 -3 6
BITMAP
40
80
ENDCHAR
STARTCHAR uni036D.join-l
ENCODING 877
SWIDTH 0 0
DWIDTH 0 0
BBX 1 4 -2 5
BITMAP
80
80
80
80
ENDCHAR
STARTCHAR uni036E.join-l
ENCODING 878
SWIDTH 0 0
DWIDTH 0 0
BBX 2 2 -3 6
BITMAP
C0
40
ENDCHAR
STARTCHAR uni036F.join-l
ENCODING 879
SWIDTH 0 0
DWIDTH 0 0
BBX 2 2 -3 6
BITMAP
C0
C0
ENDCHAR
STARTCHAR uni0370
ENCODING 880
SWIDTH 600 0
DWIDTH 5 0
BBX 3 7 1 0
BITMAP
80
80
80
E0
80
80
80
ENDCHAR
STARTCHAR uni0371
ENCODING 881
SWIDTH 600 0
DWIDTH 5 0
BBX 3 5 1 0
BITMAP
80
80
E0
80
80
ENDCHAR
STARTCHAR uni0372
ENCODING 882
SWIDTH 600 0
DWIDTH 5 0
BBX 4 7 1 0
BITMAP
F0
D0
D0
E0
40
40
40
ENDCHAR
STARTCHAR uni0373
ENCODING 883
SWIDTH 600 0
DWIDTH 5 0
BBX 5 7 0 -2
BITMAP
78
B0
B0
B0
20
40
40
ENDCHAR
STARTCHAR uni0374
ENCODING 884
SWIDTH 600 0
DWIDTH 5 0
BBX 2 3 2 4
BITMAP
40
80
80
ENDCHAR
STARTCHAR uni0375
ENCODING 885
SWIDTH 600 0
DWIDTH 5 0
BBX 2 3 1 -1
BITMAP
40
80
80
ENDCHAR
STARTCHAR uni0376
ENCODING 886
SWIDTH 600 0
DWIDTH 5 0
BBX 5 7 0 0
BITMAP
48
50
70
70
D0
D0
90
ENDCHAR
STARTCHAR uni0377
ENCODING 887
SWIDTH 600 0
DWIDTH 5 0
BBX 4 5 0 0
BITMAP
50
50
B0
D0
90
ENDCHAR
STARTCHAR uni037A
ENCODING 890
SWIDTH 600 0
DWIDTH 5 0
BBX 1 1 1 -2
BITMAP
80
ENDCHAR
STARTCHAR uni037B
ENCODING 891
SWIDTH 600 0
DWIDTH 5 0
BBX 4 5 0 0
BITMAP
70
50
10
90
60
ENDCHAR
STARTCHAR uni037C
ENCODING 892
SWIDTH 600 0
DWIDTH 5 0
BBX 4 5 0 0
BITMAP
70
50
A0
90
60
ENDCHAR
STARTCHAR uni037D
ENCODING 893
SWIDTH 600 0
DWIDTH 5 0
BBX 4 5 0 0
BITMAP
70
50
30
90
60
ENDCHAR
STARTCHAR uni037E
ENCODING 894
SWIDTH 600 0
DWIDTH 5 0
BBX 2 7 1 -2
BITMAP
40
00
00
00
C0
40
80
ENDCHAR
STARTCHAR uni037F
ENCODING 895
SWIDTH 600 0
DWIDTH 5 0
BBX 4 7 0 0
BITMAP
30
10
10
10
10
90
60
ENDCHAR
STARTCHAR uni0384
ENCODING 900
SWIDTH 600 0
DWIDTH 5 0
BBX 1 1 2 6
BITMAP
80
ENDCHAR
STARTCHAR uni0385
ENCODING 901
SWIDTH 600 0
DWIDTH 5 0
BBX 3 2 1 5
BITMAP
40
A0
ENDCHAR
STARTCHAR uni0386
ENCODING 902
SWIDTH 600 0
DWIDTH 5 0
BBX 4 7 0 0
BITMAP
60
20
50
50
70
90
90
ENDCHAR
STARTCHAR uni0387
ENCODING 903
SWIDTH 600 0
DWIDTH 5 0
BBX 1 1 2 3
BITMAP
80
ENDCHAR
STARTCHAR uni0388
ENCODING 904
SWIDTH 600 0
DWIDTH 5 0
BBX 5 7 0 0
BITMAP
F8
40
40
70
40
80
F0
ENDCHAR
STARTCHAR uni0389
ENCODING 905
SWIDTH 600 0
DWIDTH 5 0
BBX 5 7 0 0
BITMAP
C8
48
50
70
90
90
90
ENDCHAR
STARTCHAR uni038A
ENCODING 906
SWIDTH 600 0
DWIDTH 5 0
BBX 4 7 0 0
BITMAP
F0
20
20
20
20
20
F0
ENDCHAR
STARTCHAR uni038C
ENCODING 908
SWIDTH 600 0
DWIDTH 5 0
BBX 4 7 0 0
BITMAP
B0
50
50
50
90
90
60
ENDCHAR
STARTCHAR uni038E
ENCODING 910
SWIDTH 600 0
DWIDTH 5 0
BBX 5 7 0 0
BITMAP
C8
50
50
20
20
20
20
ENDCHAR
STARTCHAR uni038F
ENCODING 911
SWIDTH 600 0
DWIDTH 5 0
BBX 4 7 0 0
BITMAP
B0
50
50
50
90
50
F0
ENDCHAR
STARTCHAR uni0390
ENCODING 912
SWIDTH 600 0
DWIDTH 5 0
BBX 3 7 1 0
BITMAP
40
A0
C0
40
40
A0
60
ENDCHAR
STARTCHAR uni0391
ENCODING 913
SWIDTH 600 0
DWIDTH 5 0
BBX 4 7 0 0
BITMAP
20
20
50
50
70
90
90
ENDCHAR
STARTCHAR uni0392
ENCODING 914
SWIDTH 600 0
DWIDTH 5 0
BBX 4 7 0 0
BITMAP
70
50
50
60
90
90
E0
ENDCHAR
STARTCHAR uni0393
ENCODING 915
SWIDTH 600 0
DWIDTH 5 0
BBX 4 7 1 0
BITMAP
70
80
80
80
80
80
80
ENDCHAR
STARTCHAR uni0394
ENCODING 916
SWIDTH 600 0
DWIDTH 5 0
BBX 4 7 0 0
BITMAP
20
20
50
50
50
90
F0
ENDCHAR
STARTCHAR uni0395
ENCODING 917
SWIDTH 600 0
DWIDTH 5 0
BBX 5 7 0 0
BITMAP
78
40
40
70
40
80
F0
ENDCHAR
STARTCHAR uni0396
ENCODING 918
SWIDTH 600 0
DWIDTH 5 0
BBX 5 7 0 0
BITMAP
78
10
10
20
40
40
F0
ENDCHAR
STARTCHAR uni0397
ENCODING 919
SWIDTH 600 0
DWIDTH 5 0
BBX 5 7 0 0
BITMAP
48
48
50
70
90
90
90
ENDCHAR
STARTCHAR uni0398
ENCODING 920
SWIDTH 600 0
DWIDTH 5 0
BBX 4 7 0 0
BITMAP
30
50
50
70
90
90
60
ENDCHAR
STARTCHAR uni0399
ENCODING 921
SWIDTH 600 0
DWIDTH 5 0
BBX 4 7 0 0
BITMAP
70
20
20
20
20
20
F0
ENDCHAR
STARTCHAR uni039A
ENCODING 922
SWIDTH 600 0
DWIDTH 5 0
BBX 5 7 0 0
BITMAP
58
50
60
60
60
A0
90
ENDCHAR
STARTCHAR uni039B
ENCODING 923
SWIDTH 600 0
DWIDTH 5 0
BBX 4 7 0 0
BITMAP
20
20
50
50
50
90
90
ENDCHAR
STARTCHAR uni039C
ENCODING 924
SWIDTH 600 0
DWIDTH 5 0
BBX 5 7 0 0
BITMAP
48
58
D0
B0
B0
90
90
ENDCHAR
STARTCHAR uni039D
ENCODING 925
SWIDTH 600 0
DWIDTH 5 0
BBX 5 7 0 0
BITMAP
48
48
70
70
B0
90
90
ENDCHAR
STARTCHAR uni039E
ENCODING 926
SWIDTH 600 0
DWIDTH 5 0
BBX 5 7 0 0
BITMAP
78
00
00
70
00
00
F0
ENDCHAR
STARTCHAR uni039F
ENCODING 927
SWIDTH 600 0
DWIDTH 5 0
BBX 4 7 0 0
BITMAP
30
50
50
50
90
90
60
ENDCHAR
STARTCHAR uni03A0
ENCODING 928
SWIDTH 600 0
DWIDTH 5 0
BBX 5 7 0 0
BITMAP
78
48
50
50
90
90
90
ENDCHAR
STARTCHAR uni03A1
ENCODING 929
SWIDTH 600 0
DWIDTH 5 0
BBX 4 7 0 0
BITMAP
70
50
50
70
40
80
80
ENDCHAR
STARTCHAR uni03A3
ENCODING 931
SWIDTH 600 0
DWIDTH 5 0
BBX 5 7 0 0
BITMAP
78
40
20
20
40
40
F0
ENDCHAR
STARTCHAR uni03A4
ENCODING 932
SWIDTH 600 0
DWIDTH 5 0
BBX 4 7 1 0
BITMAP
F0
40
40
40
40
40
40
ENDCHAR
STARTCHAR uni03A5
ENCODING 933
SWIDTH 600 0
DWIDTH 5 0
BBX 4 7 1 0
BITMAP
90
A0
A0
40
40
40
40
ENDCHAR
STARTCHAR uni03A6
ENCODING 934
SWIDTH 600 0
DWIDTH 5 0
BBX 4 7 0 0
BITMAP
20
70
B0
B0
B0
70
20
ENDCHAR
STARTCHAR uni03A7
ENCODING 935
SWIDTH 600 0
DWIDTH 5 0
BBX 5 7 0 0
BITMAP
48
50
20
20
20
60
90
ENDCHAR
STARTCHAR uni03A8
ENCODING 936
SWIDTH 600 0
DWIDTH 5 0
BBX 4 7 1 0
BITMAP
D0
D0
D0
E0
E0
40
40
ENDCHAR
STARTCHAR uni03A9
ENCODING 937
SWIDTH 600 0
DWIDTH 5 0
BBX 4 7 0 0
BITMAP
30
50
50
50
90
50
F0
ENDCHAR
STARTCHAR uni03AA
ENCODING 938
SWIDTH 600 0
DWIDTH 5 0
BBX 5 9 0 0
BITMAP
28
00
70
20
20
20
20
20
F0
ENDCHAR
STARTCHAR uni03AB
ENCODING 939
SWIDTH 600 0
DWIDTH 5 0
BBX 4 9 1 0
BITMAP
50
00
90
A0
A0
40
40
40
40
ENDCHAR
STARTCHAR uni03AC
ENCODING 940
SWIDTH 600 0
DWIDTH 5 0
BBX 4 7 0 0
BITMAP
20
00
70
90
90
90
70
ENDCHAR
STARTCHAR uni03AD
ENCODING 941
SWIDTH 600 0
DWIDTH 5 0
BBX 4 7 0 0
BITMAP
20
00
70
40
60
80
70
ENDCHAR
STARTCHAR uni03AE
ENCODING 942
SWIDTH 600 0
DWIDTH 5 0
BBX 4 9 0 -2
BITMAP
20
00
70
50
90
90
90
10
10
ENDCHAR
STARTCHAR uni03AF
ENCODING 943
SWIDTH 600 0
DWIDTH 5 0
BBX 3 7 1 0
BITMAP
40
00
C0
40
40
A0
60
ENDCHAR
STARTCHAR uni03B0
ENCODING 944
SWIDTH 600 0
DWIDTH 5 0
BBX 3 7 1 0
BITMAP
40
A0
A0
A0
A0
A0
C0
ENDCHAR
STARTCHAR uni03B1
ENCODING 945
SWIDTH 600 0
DWIDTH 5 0
BBX 4 5 0 0
BITMAP
70
90
90
90
70
ENDCHAR
STARTCHAR uni03B2
ENCODING 946
SWIDTH 600 0
DWIDTH 5 0
BBX 4 9 0 -2
BITMAP
30
50
50
60
90
90
E0
80
80
ENDCHAR
STARTCHAR uni03B3
ENCODING 947
SWIDTH 600 0
DWIDTH 5 0
BBX 3 7 1 -2
BITMAP
A0
A0
A0
40
80
80
80
ENDCHAR
STARTCHAR uni03B4
ENCODING 948
SWIDTH 600 0
DWIDTH 5 0
BBX 4 7 0 0
BITMAP
30
40
60
50
90
90
60
ENDCHAR
STARTCHAR uni03B5
ENCODING 949
SWIDTH 600 0
DWIDTH 5 0
BBX 4 5 0 0
BITMAP
70
40
60
80
70
ENDCHAR
STARTCHAR uni03B6
ENCODING 950
SWIDTH 600 0
DWIDTH 5 0
BBX 4 9 1 -2
BITMAP
F0
40
80
80
80
80
C0
20
40
ENDCHAR
STARTCHAR uni03B7
ENCODING 951
SWIDTH 600 0
DWIDTH 5 0
BBX 4 7 0 -2
BITMAP
70
50
90
90
90
10
10
ENDCHAR
STARTCHAR uni03B8
ENCODING 952
SWIDTH 600 0
DWIDTH 5 0
BBX 3 7 1 0
BITMAP
60
A0
A0
E0
A0
A0
C0
ENDCHAR
STARTCHAR uni03B9
ENCODING 953
SWIDTH 600 0
DWIDTH 5 0
BBX 3 5 1 0
BITMAP
C0
40
40
A0
60
ENDCHAR
STARTCHAR uni03BA
ENCODING 954
SWIDTH 600 0
DWIDTH 5 0
BBX 4 5 0 0
BITMAP
50
60
40
A0
90
ENDCHAR
STARTCHAR uni03BB
ENCODING 955
SWIDTH 600 0
DWIDTH 5 0
BBX 4 7 0 0
BITMAP
20
20
20
60
60
50
90
ENDCHAR
STARTCHAR uni03BC
ENCODING 956
SWIDTH 600 0
DWIDTH 5 0
BBX 4 7 0 -2
BITMAP
50
50
90
90
F0
80
80
ENDCHAR
STARTCHAR uni03BD
ENCODING 957
SWIDTH 600 0
DWIDTH 5 0
BBX 3 5 1 0
BITMAP
A0
A0
A0
C0
80
ENDCHAR
STARTCHAR uni03BE
ENCODING 958
SWIDTH 600 0
DWIDTH 5 0
BBX 5 9 0 -2
BITMAP
78
40
40
30
40
80
60
10
20
ENDCHAR
STARTCHAR uni03BF
ENCODING 959
SWIDTH 600 0
DWIDTH 5 0
BBX 4 5 0 0
BITMAP
70
50
90
90
60
ENDCHAR
STARTCHAR pi
ENCODING 960
SWIDTH 600 0
DWIDTH 5 0
BBX 4 5 1 0
BITMAP
F0
A0
A0
A0
A0
ENDCHAR
STARTCHAR uni03C1
ENCODING 961
SWIDTH 600 0
DWIDTH 5 0
BBX 4 7 0 -2
BITMAP
70
50
90
90
E0
80
80
ENDCHAR
STARTCHAR uni03C2
ENCODING 962
SWIDTH 600 0
DWIDTH 5 0
BBX 4 7 0 -2
BITMAP
70
50
80
80
60
10
20
ENDCHAR
STARTCHAR uni03C3
ENCODING 963
SWIDTH 600 0
DWIDTH 5 0
BBX 5 5 0 0
BITMAP
78
50
90
90
60
ENDCHAR
STARTCHAR uni03C4
ENCODING 964
SWIDTH 600 0
DWIDTH 5 0
BBX 3 5 1 0
BITMAP
E0
40
40
A0
60
ENDCHAR
STARTCHAR uni03C5
ENCODING 965
SWIDTH 600 0
DWIDTH 5 0
BBX 3 5 1 0
BITMAP
A0
A0
A0
A0
C0
ENDCHAR
STARTCHAR uni03C6
ENCODING 966
SWIDTH 600 0
DWIDTH 5 0
BBX 4 7 0 -2
BITMAP
50
B0
B0
B0
60
40
40
ENDCHAR
STARTCHAR uni03C7
ENCODING 967
SWIDTH 600 0
DWIDTH 5 0
BBX 4 7 0 -2
BITMAP
50
50
20
20
60
60
A0
ENDCHAR
STARTCHAR uni03C8
ENCODING 968
SWIDTH 600 0
DWIDTH 5 0
BBX 5 9 0 -2
BITMAP
20
20
68
B0
B0
B0
60
40
40
ENDCHAR
STARTCHAR uni03C9
ENCODING 969
SWIDTH 600 0
DWIDTH 5 0
BBX 4 5 0 0
BITMAP
50
B0
B0
B0
F0
ENDCHAR
STARTCHAR uni03CA
ENCODING 970
SWIDTH 600 0
DWIDTH 5 0
BBX 3 7 1 0
BITMAP
A0
00
C0
40
40
A0
60
ENDCHAR
STARTCHAR uni03CB
ENCODING 971
SWIDTH 600 0
DWIDTH 5 0
BBX 3 7 1 0
BITMAP
A0
00
A0
A0
A0
A0
C0
ENDCHAR
STARTCHAR uni03CC
ENCODING 972
SWIDTH 600 0
DWIDTH 5 0
BBX 4 7 0 0
BITMAP
20
00
70
50
90
90
60
ENDCHAR
STARTCHAR uni03CD
ENCODING 973
SWIDTH 600 0
DWIDTH 5 0
BBX 3 7 1 0
BITMAP
40
00
A0
A0
A0
A0
C0
ENDCHAR
STARTCHAR uni03CE
ENCODING 974
SWIDTH 600 0
DWIDTH 5 0
BBX 4 7 0 0
BITMAP
20
00
50
B0
B0
B0
F0
ENDCHAR
STARTCHAR uni03CF
ENCODING 975
SWIDTH 600 0
DWIDTH 5 0
BBX 5 9 0 -2
BITMAP
58
50
60
60
60
A0
90
20
40
ENDCHAR
STARTCHAR uni03D0
ENCODING 976
SWIDTH 600 0
DWIDTH 5 0
BBX 4 7 0 0
BITMAP
30
50
50
60
90
90
60
ENDCHAR
STARTCHAR uni03D1
ENCODING 977
SWIDTH 600 0
DWIDTH 5 0
BBX 5 7 0 0
BITMAP
30
28
30
18
90
90
60
ENDCHAR
STARTCHAR uni03D2
ENCODING 978
SWIDTH 600 0
DWIDTH 5 0
BBX 4 7 1 0
BITMAP
90
A0
A0
40
40
40
40
ENDCHAR
STARTCHAR uni03D3
ENCODING 979
SWIDTH 600 0
DWIDTH 5 0
BBX 6 7 -1 0
BITMAP
64
A8
28
10
10
10
10
ENDCHAR
STARTCHAR uni03D4
ENCODING 980
SWIDTH 600 0
DWIDTH 5 0
BBX 4 9 1 0
BITMAP
50
00
90
A0
A0
40
40
40
40
ENDCHAR
STARTCHAR uni03D5
ENCODING 981
SWIDTH 600 0
DWIDTH 5 0
BBX 4 9 0 -2
BITMAP
20
20
70
B0
B0
B0
70
40
40
ENDCHAR
STARTCHAR uni03D6
ENCODING 982
SWIDTH 600 0
DWIDTH 5 0
BBX 5 5 0 0
BITMAP
78
90
B0
B0
F0
ENDCHAR
STARTCHAR uni03D7
ENCODING 983
SWIDTH 600 0
DWIDTH 5 0
BBX 5 7 0 -2
BITMAP
48
50
70
50
90
10
20
ENDCHAR
STARTCHAR uni03D8
ENCODING 984
SWIDTH 600 0
DWIDTH 5 0
BBX 3 7 1 0
BITMAP
60
A0
A0
A0
A0
E0
40
ENDCHAR
STARTCHAR uni03D9
ENCODING 985
SWIDTH 600 0
DWIDTH 5 0
BBX 4 7 0 -2
BITMAP
70
50
90
90
60
40
40
ENDCHAR
STARTCHAR uni03DA
ENCODING 986
SWIDTH 600 0
DWIDTH 5 0
BBX 3 7 1 0
BITMAP
60
A0
80
80
80
C0
40
ENDCHAR
STARTCHAR uni03DB
ENCODING 987
SWIDTH 600 0
DWIDTH 5 0
BBX 4 8 0 -2
BITMAP
10
70
40
80
80
60
10
20
ENDCHAR
STARTCHAR uni03DC
ENCODING 988
SWIDTH 600 0
DWIDTH 5 0
BBX 4 7 1 0
BITMAP
70
80
80
E0
80
80
80
ENDCHAR
STARTCHAR uni03DD
ENCODING 989
SWIDTH 600 0
DWIDTH 5 0
BBX 4 7 0 -2
BITMAP
70
40
70
40
80
80
80
ENDCHAR
STARTCHAR uni03DE
ENCODING 990
SWIDTH 600 0
DWIDTH 5 0
BBX 3 7 1 0
BITMAP
40
80
80
E0
20
20
40
ENDCHAR
STARTCHAR uni03DF
ENCODING 991
SWIDTH 600 0
DWIDTH 5 0
BBX 3 7 1 0
BITMAP
80
80
A0
E0
A0
20
20
ENDCHAR
STARTCHAR uni03E0
ENCODING 992
SWIDTH 600 0
DWIDTH 5 0
BBX 4 7 0 0
BITMAP
20
20
20
50
70
70
D0
ENDCHAR
STARTCHAR uni03E1
ENCODING 993
SWIDTH 600 0
DWIDTH 5 0
BBX 3 6 1 -2
BITMAP
80
40
A0
E0
20
40
ENDCHAR
STARTCHAR uni03F0
ENCODING 1008
SWIDTH 600 0
DWIDTH 5 0
BBX 5 5 0 0
BITMAP
48
50
70
50
90
ENDCHAR
STARTCHAR uni03F1
ENCODING 1009
SWIDTH 600 0
DWIDTH 5 0
BBX 4 7 0 -2
BITMAP
70
50
90
90
E0
80
70
ENDCHAR
STARTCHAR uni03F2
ENCODING 1010
SWIDTH 600 0
DWIDTH 5 0
BBX 4 5 0 0
BITMAP
70
50
80
90
60
ENDCHAR
STARTCHAR uni03F3
ENCODING 1011
SWIDTH 600 0
DWIDTH 5 0
BBX 4 9 0 -2
BITMAP
10
00
60
20
20
20
20
A0
C0
ENDCHAR
STARTCHAR uni03F4
ENCODING 1012
SWIDTH 600 0
DWIDTH 5 0
BBX 4 7 0 0
BITMAP
30
50
50
70
90
90
60
ENDCHAR
STARTCHAR uni03F5
ENCODING 1013
SWIDTH 600 0
DWIDTH 5 0
BBX 4 5 0 0
BITMAP
70
40
60
80
70
ENDCHAR
STARTCHAR uni03F6
ENCODING 1014
SWIDTH 600 0
DWIDTH 5 0
BBX 4 5 0 0
BITMAP
70
10
70
10
E0
ENDCHAR
STARTCHAR uni03F7
ENCODING 1015
SWIDTH 600 0
DWIDTH 5 0
BBX 4 7 0 0
BITMAP
40
70
50
50
50
60
80
ENDCHAR
STARTCHAR uni03F8
ENCODING 1016
SWIDTH 600 0
DWIDTH 5 0
BBX 4 9 0 -2
BITMAP
40
40
70
50
90
90
E0
80
80
ENDCHAR
STARTCHAR uni03F9
ENCODING 1017
SWIDTH 600 0
DWIDTH 5 0
BBX 4 7 0 0
BITMAP
30
50
40
40
80
90
60
ENDCHAR
STARTCHAR uni03FA
ENCODING 1018
SWIDTH 600 0
DWIDTH 5 0
BBX 5 7 0 0
BITMAP
48
58
68
90
90
90
90
ENDCHAR
STARTCHAR uni03FB
ENCODING 1019
SWIDTH 600 0
DWIDTH 5 0
BBX 5 7 0 -2
BITMAP
58
F0
90
90
90
80
80
ENDCHAR
STARTCHAR uni03FC
ENCODING 1020
SWIDTH 600 0
DWIDTH 5 0
BBX 4 7 0 -2
BITMAP
70
50
90
90
E0
C0
80
ENDCHAR
STARTCHAR uni03FD
ENCODING 1021
SWIDTH 600 0
DWIDTH 5 0
BBX 4 7 0 0
BITMAP
30
50
10
10
10
90
60
ENDCHAR
STARTCHAR uni03FE
ENCODING 1022
SWIDTH 600 0
DWIDTH 5 0
BBX 4 7 0 0
BITMAP
30
50
40
60
80
90
60
ENDCHAR
STARTCHAR uni03FF
ENCODING 1023
SWIDTH 600 0
DWIDTH 5 0
BBX 4 7 0 0
BITMAP
30
50
10
30
10
90
60
ENDCHAR
STARTCHAR uni0400
ENCODING 1024
SWIDTH 600 0
DWIDTH 5 0
BBX 5 8 0 0
BITMAP
20
78
40
40
70
40
80
F0
ENDCHAR
STARTCHAR uni0401
ENCODING 1025
SWIDTH 600 0
DWIDTH 5 0
BBX 5 9 0 0
BITMAP
28
00
78
40
40
70
40
80
F0
ENDCHAR
STARTCHAR uni0402
ENCODING 1026
SWIDTH 600 0
DWIDTH 5 0
BBX 3 7 1 0
BITMAP
E0
80
60
A0
A0
A0
C0
ENDCHAR
STARTCHAR uni0403
ENCODING 1027
SWIDTH 600 0
DWIDTH 5 0
BBX 4 8 1 0
BITMAP
20
70
80
80
80
80
80
80
ENDCHAR
STARTCHAR uni0404
ENCODING 1028
SWIDTH 600 0
DWIDTH 5 0
BBX 4 7 0 0
BITMAP
30
50
40
60
80
90
60
ENDCHAR
STARTCHAR uni0405
ENCODING 1029
SWIDTH 600 0
DWIDTH 5 0
BBX 4 7 0 0
BITMAP
30
50
40
20
10
90
60
ENDCHAR
STARTCHAR uni0406
ENCODING 1030
SWIDTH 600 0
DWIDTH 5 0
BBX 4 7 0 0
BITMAP
70
20
20
20
20
20
F0
ENDCHAR
STARTCHAR uni0407
ENCODING 1031
SWIDTH 600 0
DWIDTH 5 0
BBX 5 9 0 0
BITMAP
28
00
70
20
20
20
20
20
F0
ENDCHAR
STARTCHAR uni0408
ENCODING 1032
SWIDTH 600 0
DWIDTH 5 0
BBX 4 7 0 0
BITMAP
30
10
10
10
10
90
60
ENDCHAR
STARTCHAR uni0409
ENCODING 1033
SWIDTH 600 0
DWIDTH 5 0
BBX 4 7 0 0
BITMAP
60
60
60
B0
B0
B0
B0
ENDCHAR
STARTCHAR uni040A
ENCODING 1034
SWIDTH 600 0
DWIDTH 5 0
BBX 4 7 0 0
BITMAP
60
60
60
70
B0
B0
B0
ENDCHAR
STARTCHAR uni040B
ENCODING 1035
SWIDTH 600 0
DWIDTH 5 0
BBX 3 7 1 0
BITMAP
E0
80
60
A0
A0
A0
A0
ENDCHAR
STARTCHAR uni040C
ENCODING 1036
SWIDTH 600 0
DWIDTH 5 0
BBX 5 8 0 0
BITMAP
10
68
50
60
60
60
A0
90
ENDCHAR
STARTCHAR uni040D
ENCODING 1037
SWIDTH 600 0
DWIDTH 5 0
BBX 5 8 0 0
BITMAP
20
58
50
70
70
D0
D0
90
ENDCHAR
STARTCHAR uni040E
ENCODING 1038
SWIDTH 600 0
DWIDTH 5 0
BBX 4 8 1 0
BITMAP
70
90
A0
A0
C0
40
80
80
ENDCHAR
STARTCHAR uni040F
ENCODING 1039
SWIDTH 600 0
DWIDTH 5 0
BBX 5 8 0 -1
BITMAP
48
48
50
50
90
90
F0
40
ENDCHAR
STARTCHAR uni0410
ENCODING 1040
SWIDTH 600 0
DWIDTH 5 0
BBX 4 7 0 0
BITMAP
20
20
50
50
70
90
90
ENDCHAR
STARTCHAR uni0411
ENCODING 1041
SWIDTH 600 0
DWIDTH 5 0
BBX 4 7 0 0
BITMAP
70
40
40
70
90
90
E0
ENDCHAR
STARTCHAR uni0412
ENCODING 1042
SWIDTH 600 0
DWIDTH 5 0
BBX 4 7 0 0
BITMAP
70
50
50
60
90
90
E0
ENDCHAR
STARTCHAR uni0413
ENCODING 1043
SWIDTH 600 0
DWIDTH 5 0
BBX 4 7 1 0
BITMAP
70
80
80
80
80
80
80
ENDCHAR
STARTCHAR uni0414
ENCODING 1044
SWIDTH 600 0
DWIDTH 5 0
BBX 4 8 0 -1
BITMAP
30
50
50
50
50
90
F0
90
ENDCHAR
STARTCHAR uni0415
ENCODING 1045
SWIDTH 600 0
DWIDTH 5 0
BBX 5 7 0 0
BITMAP
78
40
40
70
40
80
F0
ENDCHAR
STARTCHAR uni0416
ENCODING 1046
SWIDTH 600 0
DWIDTH 5 0
BBX 5 7 0 0
BITMAP
68
68
70
70
70
B0
B0
ENDCHAR
STARTCHAR uni0417
ENCODING 1047
SWIDTH 600 0
DWIDTH 5 0
BBX 4 7 0 0
BITMAP
30
50
10
20
10
90
60
ENDCHAR
STARTCHAR uni0418
ENCODING 1048
SWIDTH 600 0
DWIDTH 5 0
BBX 5 7 0 0
BITMAP
48
50
70
70
D0
D0
90
ENDCHAR
STARTCHAR uni0419
ENCODING 1049
SWIDTH 600 0
DWIDTH 5 0
BBX 5 8 0 0
BITMAP
38
48
50
70
70
D0
D0
90
ENDCHAR
STARTCHAR uni041A
ENCODING 1050
SWIDTH 600 0
DWIDTH 5 0
BBX 5 7 0 0
BITMAP
48
50
60
60
60
A0
90
ENDCHAR
STARTCHAR uni041B
ENCODING 1051
SWIDTH 600 0
DWIDTH 5 0
BBX 5 7 0 0
BITMAP
78
48
50
50
50
90
90
ENDCHAR
STARTCHAR uni041C
ENCODING 1052
SWIDTH 600 0
DWIDTH 5 0
BBX 5 7 0 0
BITMAP
48
58
D0
B0
B0
90
90
ENDCHAR
STARTCHAR uni041D
ENCODING 1053
SWIDTH 600 0
DWIDTH 5 0
BBX 5 7 0 0
BITMAP
48
48
50
70
90
90
90
ENDCHAR
STARTCHAR uni041E
ENCODING 1054
SWIDTH 600 0
DWIDTH 5 0
BBX 4 7 0 0
BITMAP
30
50
50
50
90
90
60
ENDCHAR
STARTCHAR uni041F
ENCODING 1055
SWIDTH 600 0
DWIDTH 5 0
BBX 5 7 0 0
BITMAP
78
48
50
50
90
90
90
ENDCHAR
STARTCHAR uni0420
ENCODING 1056
SWIDTH 600 0
DWIDTH 5 0
BBX 4 7 0 0
BITMAP
70
50
50
70
40
80
80
ENDCHAR
STARTCHAR uni0421
ENCODING 1057
SWIDTH 600 0
DWIDTH 5 0
BBX 4 7 0 0
BITMAP
30
50
40
40
80
90
60
ENDCHAR
STARTCHAR uni0422
ENCODING 1058
SWIDTH 600 0
DWIDTH 5 0
BBX 4 7 1 0
BITMAP
F0
40
40
40
40
40
40
ENDCHAR
STARTCHAR uni0423
ENCODING 1059
SWIDTH 600 0
DWIDTH 5 0
BBX 4 7 1 0
BITMAP
90
A0
A0
C0
40
80
80
ENDCHAR
STARTCHAR uni0424
ENCODING 1060
SWIDTH 600 0
DWIDTH 5 0
BBX 5 7 0 0
BITMAP
20
70
68
A8
B0
70
40
ENDCHAR
STARTCHAR uni0425
ENCODING 1061
SWIDTH 600 0
DWIDTH 5 0
BBX 5 7 0 0
BITMAP
48
50
20
20
20
60
90
ENDCHAR
STARTCHAR uni0426
ENCODING 1062
SWIDTH 600 0
DWIDTH 5 0
BBX 5 8 0 -1
BITMAP
48
48
50
50
90
90
F0
10
ENDCHAR
STARTCHAR uni0427
ENCODING 1063
SWIDTH 600 0
DWIDTH 5 0
BBX 4 7 1 0
BITMAP
90
90
A0
A0
E0
20
20
ENDCHAR
STARTCHAR uni0428
ENCODING 1064
SWIDTH 600 0
DWIDTH 5 0
BBX 5 7 0 0
BITMAP
68
68
68
B0
B0
B0
F0
ENDCHAR
STARTCHAR uni0429
ENCODING 1065
SWIDTH 600 0
DWIDTH 5 0
BBX 5 8 0 -1
BITMAP
68
68
68
B0
B0
B0
F8
08
ENDCHAR
STARTCHAR uni042A
ENCODING 1066
SWIDTH 600 0
DWIDTH 5 0
BBX 3 7 1 0
BITMAP
80
80
80
E0
A0
A0
C0
ENDCHAR
STARTCHAR uni042B
ENCODING 1067
SWIDTH 600 0
DWIDTH 5 0
BBX 5 7 0 0
BITMAP
48
48
48
70
B0
B0
D0
ENDCHAR
STARTCHAR uni042C
ENCODING 1068
SWIDTH 600 0
DWIDTH 5 0
BBX 4 7 0 0
BITMAP
40
40
40
70
90
90
E0
ENDCHAR
STARTCHAR uni042D
ENCODING 1069
SWIDTH 600 0
DWIDTH 5 0
BBX 4 7 0 0
BITMAP
30
50
10
30
10
90
60
ENDCHAR
STARTCHAR uni042E
ENCODING 1070
SWIDTH 600 0
DWIDTH 5 0
BBX 5 7 0 0
BITMAP
70
68
68
50
B0
D0
B0
ENDCHAR
STARTCHAR uni042F
ENCODING 1071
SWIDTH 600 0
DWIDTH 5 0
BBX 5 7 0 0
BITMAP
78
48
50
70
50
50
90
ENDCHAR
STARTCHAR uni0430
ENCODING 1072
SWIDTH 600 0
DWIDTH 5 0
BBX 4 5 0 0
BITMAP
70
50
90
90
70
ENDCHAR
STARTCHAR uni0431
ENCODING 1073
SWIDTH 600 0
DWIDTH 5 0
BBX 5 7 0 0
BITMAP
38
40
70
50
90
90
60
ENDCHAR
STARTCHAR uni0432
ENCODING 1074
SWIDTH 600 0
DWIDTH 5 0
BBX 4 5 0 0
BITMAP
70
50
A0
90
70
ENDCHAR
STARTCHAR uni0433
ENCODING 1075
SWIDTH 600 0
DWIDTH 5 0
BBX 4 5 0 0
BITMAP
70
10
60
80
70
ENDCHAR
STARTCHAR uni0434
ENCODING 1076
SWIDTH 600 0
DWIDTH 5 0
BBX 4 7 0 0
BITMAP
20
10
70
50
90
90
60
ENDCHAR
STARTCHAR uni0435
ENCODING 1077
SWIDTH 600 0
DWIDTH 5 0
BBX 4 5 0 0
BITMAP
70
50
70
90
60
ENDCHAR
STARTCHAR uni0436
ENCODING 1078
SWIDTH 600 0
DWIDTH 5 0
BBX 5 5 0 0
BITMAP
A8
70
70
B0
B0
ENDCHAR
STARTCHAR uni0437
ENCODING 1079
SWIDTH 600 0
DWIDTH 5 0
BBX 4 5 0 0
BITMAP
70
10
20
10
F0
ENDCHAR
STARTCHAR uni0438
ENCODING 1080
SWIDTH 600 0
DWIDTH 5 0
BBX 4 5 0 0
BITMAP
50
50
90
90
70
ENDCHAR
STARTCHAR uni0439
ENCODING 1081
SWIDTH 600 0
DWIDTH 5 0
BBX 4 7 0 0
BITMAP
50
30
50
50
90
90
70
ENDCHAR
STARTCHAR uni043A
ENCODING 1082
SWIDTH 600 0
DWIDTH 5 0
BBX 4 5 0 0
BITMAP
50
60
60
A0
90
ENDCHAR
STARTCHAR uni043B
ENCODING 1083
SWIDTH 600 0
DWIDTH 5 0
BBX 4 5 0 0
BITMAP
70
50
50
90
90
ENDCHAR
STARTCHAR uni043C
ENCODING 1084
SWIDTH 600 0
DWIDTH 5 0
BBX 5 5 0 0
BITMAP
58
50
F0
B0
B0
ENDCHAR
STARTCHAR uni043D
ENCODING 1085
SWIDTH 600 0
DWIDTH 5 0
BBX 4 5 0 0
BITMAP
50
50
70
90
90
ENDCHAR
STARTCHAR uni043E
ENCODING 1086
SWIDTH 600 0
DWIDTH 5 0
BBX 4 5 0 0
BITMAP
70
50
90
90
60
ENDCHAR
STARTCHAR uni043F
ENCODING 1087
SWIDTH 600 0
DWIDTH 5 0
BBX 4 5 0 0
BITMAP
70
50
90
90
90
ENDCHAR
STARTCHAR uni0440
ENCODING 1088
SWIDTH 600 0
DWIDTH 5 0
BBX 4 7 0 -2
BITMAP
70
50
90
90
E0
80
80
ENDCHAR
STARTCHAR uni0441
ENCODING 1089
SWIDTH 600 0
DWIDTH 5 0
BBX 4 5 0 0
BITMAP
70
50
80
90
60
ENDCHAR
STARTCHAR uni0442
ENCODING 1090
SWIDTH 600 0
DWIDTH 5 0
BBX 4 5 0 0
BITMAP
70
B0
B0
B0
B0
ENDCHAR
STARTCHAR uni0443
ENCODING 1091
SWIDTH 600 0
DWIDTH 5 0
BBX 4 7 0 -2
BITMAP
50
50
90
90
70
10
E0
ENDCHAR
STARTCHAR uni0444
ENCODING 1092
SWIDTH 600 0
DWIDTH 5 0
BBX 5 9 0 -2
BITMAP
18
20
70
B0
B0
B0
70
40
C0
ENDCHAR
STARTCHAR uni0445
ENCODING 1093
SWIDTH 600 0
DWIDTH 5 0
BBX 4 5 0 0
BITMAP
50
60
20
60
90
ENDCHAR
STARTCHAR uni0446
ENCODING 1094
SWIDTH 600 0
DWIDTH 5 0
BBX 4 6 0 -1
BITMAP
50
50
90
90
70
10
ENDCHAR
STARTCHAR uni0447
ENCODING 1095
SWIDTH 600 0
DWIDTH 5 0
BBX 3 5 1 0
BITMAP
A0
A0
A0
E0
20
ENDCHAR
STARTCHAR uni0448
ENCODING 1096
SWIDTH 600 0
DWIDTH 5 0
BBX 5 5 0 0
BITMAP
68
B0
B0
B0
F0
ENDCHAR
STARTCHAR uni0449
ENCODING 1097
SWIDTH 600 0
DWIDTH 5 0
BBX 5 6 0 -1
BITMAP
68
B0
B0
B0
F8
08
ENDCHAR
STARTCHAR uni044A
ENCODING 1098
SWIDTH 600 0
DWIDTH 5 0
BBX 4 5 0 0
BITMAP
C0
40
70
50
70
ENDCHAR
STARTCHAR uni044B
ENCODING 1099
SWIDTH 600 0
DWIDTH 5 0
BBX 5 5 0 0
BITMAP
48
90
F0
B0
D0
ENDCHAR
STARTCHAR uni044C
ENCODING 1100
SWIDTH 600 0
DWIDTH 5 0
BBX 4 5 0 0
BITMAP
40
40
70
90
60
ENDCHAR
STARTCHAR uni044D
ENCODING 1101
SWIDTH 600 0
DWIDTH 5 0
BBX 4 5 0 0
BITMAP
70
50
30
90
60
ENDCHAR
STARTCHAR uni044E
ENCODING 1102
SWIDTH 600 0
DWIDTH 5 0
BBX 4 5 0 0
BITMAP
70
B0
D0
D0
B0
ENDCHAR
STARTCHAR uni044F
ENCODING 1103
SWIDTH 600 0
DWIDTH 5 0
BBX 4 5 0 0
BITMAP
70
90
70
50
90
ENDCHAR
STARTCHAR uni0450
ENCODING 1104
SWIDTH 600 0
DWIDTH 5 0
BBX 4 6 0 0
BITMAP
20
70
50
70
90
60
ENDCHAR
STARTCHAR uni0451
ENCODING 1105
SWIDTH 600 0
DWIDTH 5 0
BBX 4 7 0 0
BITMAP
50
00
70
50
70
90
60
ENDCHAR
STARTCHAR uni0452
ENCODING 1106
SWIDTH 600 0
DWIDTH 5 0
BBX 4 9 0 -2
BITMAP
40
60
70
50
90
90
90
10
20
ENDCHAR
STARTCHAR uni0453
ENCODING 1107
SWIDTH 600 0
DWIDTH 5 0
BBX 4 6 0 0
BITMAP
10
70
10
60
80
70
ENDCHAR
STARTCHAR uni0454
ENCODING 1108
SWIDTH 600 0
DWIDTH 5 0
BBX 4 5 0 0
BITMAP
70
50
60
90
60
ENDCHAR
STARTCHAR uni0455
ENCODING 1109
SWIDTH 600 0
DWIDTH 5 0
BBX 4 5 0 0
BITMAP
70
40
20
90
60
ENDCHAR
STARTCHAR uni0456
ENCODING 1110
SWIDTH 600 0
DWIDTH 5 0
BBX 3 7 1 0
BITMAP
40
00
C0
40
40
A0
60
ENDCHAR
STARTCHAR uni0457
ENCODING 1111
SWIDTH 600 0
DWIDTH 5 0
BBX 3 7 1 0
BITMAP
A0
00
C0
40
40
A0
60
ENDCHAR
STARTCHAR uni0458
ENCODING 1112
SWIDTH 600 0
DWIDTH 5 0
BBX 4 9 0 -2
BITMAP
10
00
60
20
20
20
20
A0
C0
ENDCHAR
STARTCHAR uni0459
ENCODING 1113
SWIDTH 600 0
DWIDTH 5 0
BBX 4 5 0 0
BITMAP
60
A0
B0
B0
B0
ENDCHAR
STARTCHAR uni045A
ENCODING 1114
SWIDTH 600 0
DWIDTH 5 0
BBX 4 5 0 0
BITMAP
60
A0
F0
B0
B0
ENDCHAR
STARTCHAR uni045B
ENCODING 1115
SWIDTH 600 0
DWIDTH 5 0
BBX 4 7 0 0
BITMAP
40
60
70
50
90
90
90
ENDCHAR
STARTCHAR uni045C
ENCODING 1116
SWIDTH 600 0
DWIDTH 5 0
BBX 4 6 0 0
BITMAP
10
70
60
60
A0
90
ENDCHAR
STARTCHAR uni045D
ENCODING 1117
SWIDTH 600 0
DWIDTH 5 0
BBX 4 6 0 0
BITMAP
20
50
50
90
90
70
ENDCHAR
STARTCHAR uni045E
ENCODING 1118
SWIDTH 600 0
DWIDTH 5 0
BBX 4 9 0 -2
BITMAP
50
30
50
50
90
90
70
10
E0
ENDCHAR
STARTCHAR uni045F
ENCODING 1119
SWIDTH 600 0
DWIDTH 5 0
BBX 4 7 0 -2
BITMAP
50
50
90
90
70
40
40
ENDCHAR
STARTCHAR uni0460
ENCODING 1120
SWIDTH 600 0
DWIDTH 5 0
BBX 4 7 1 0
BITMAP
D0
D0
D0
E0
E0
E0
C0
ENDCHAR
STARTCHAR uni0461
ENCODING 1121
SWIDTH 600 0
DWIDTH 5 0
BBX 4 5 1 0
BITMAP
D0
E0
E0
E0
C0
ENDCHAR
STARTCHAR uni0462
ENCODING 1122
SWIDTH 600 0
DWIDTH 5 0
BBX 4 7 0 0
BITMAP
20
F0
40
70
50
50
70
ENDCHAR
STARTCHAR uni0463
ENCODING 1123
SWIDTH 600 0
DWIDTH 5 0
BBX 4 5 0 0
BITMAP
60
A0
B0
B0
B0
ENDCHAR
STARTCHAR uni0464
ENCODING 1124
SWIDTH 600 0
DWIDTH 5 0
BBX 5 7 0 0
BITMAP
70
68
60
60
A0
D0
B0
ENDCHAR
STARTCHAR uni0465
ENCODING 1125
SWIDTH 600 0
DWIDTH 5 0
BBX 4 5 0 0
BITMAP
70
B0
E0
D0
B0
ENDCHAR
STARTCHAR uni0466
ENCODING 1126
SWIDTH 600 0
DWIDTH 5 0
BBX 4 7 0 0
BITMAP
20
20
50
70
70
B0
B0
ENDCHAR
STARTCHAR uni0467
ENCODING 1127
SWIDTH 600 0
DWIDTH 5 0
BBX 4 5 0 0
BITMAP
20
60
60
B0
D0
ENDCHAR
STARTCHAR uni0468
ENCODING 1128
SWIDTH 600 0
DWIDTH 5 0
BBX 4 7 0 0
BITMAP
50
90
B0
F0
D0
F0
F0
ENDCHAR
STARTCHAR uni0469
ENCODING 1129
SWIDTH 600 0
DWIDTH 5 0
BBX 4 5 0 0
BITMAP
90
B0
F0
B0
F0
ENDCHAR
STARTCHAR uni046A
ENCODING 1130
SWIDTH 600 0
DWIDTH 5 0
BBX 5 7 0 0
BITMAP
78
50
20
70
70
B0
B0
ENDCHAR
STARTCHAR uni046B
ENCODING 1131
SWIDTH 600 0
DWIDTH 5 0
BBX 5 5 0 0
BITMAP
78
50
70
B0
B0
ENDCHAR
STARTCHAR uni046C
ENCODING 1132
SWIDTH 600 0
DWIDTH 5 0
BBX 5 7 0 0
BITMAP
78
A8
B0
F0
B0
F0
F0
ENDCHAR
STARTCHAR uni046D
ENCODING 1133
SWIDTH 600 0
DWIDTH 5 0
BBX 5 5 0 0
BITMAP
B8
B0
F0
D0
F0
ENDCHAR
STARTCHAR uni046E
ENCODING 1134
SWIDTH 600 0
DWIDTH 5 0
BBX 4 11 0 -2
BITMAP
30
00
30
50
10
20
10
10
60
80
C0
ENDCHAR
STARTCHAR uni046F
ENCODING 1135
SWIDTH 600 0
DWIDTH 5 0
BBX 4 10 0 -2
BITMAP
30
30
00
70
10
20
10
70
80
C0
ENDCHAR
STARTCHAR uni0470
ENCODING 1136
SWIDTH 600 0
DWIDTH 5 0
BBX 4 7 1 0
BITMAP
D0
D0
D0
E0
E0
40
40
ENDCHAR
STARTCHAR uni0471
ENCODING 1137
SWIDTH 600 0
DWIDTH 5 0
BBX 5 7 0 -2
BITMAP
68
B0
B0
B0
60
40
40
ENDCHAR
STARTCHAR uni0472
ENCODING 1138
SWIDTH 600 0
DWIDTH 5 0
BBX 4 7 0 0
BITMAP
30
50
50
70
90
90
60
ENDCHAR
STARTCHAR uni0473
ENCODING 1139
SWIDTH 600 0
DWIDTH 5 0
BBX 4 5 0 0
BITMAP
70
50
B0
90
60
ENDCHAR
STARTCHAR uni0474
ENCODING 1140
SWIDTH 600 0
DWIDTH 5 0
BBX 4 7 1 0
BITMAP
90
A0
A0
A0
C0
C0
40
ENDCHAR
STARTCHAR uni0475
ENCODING 1141
SWIDTH 600 0
DWIDTH 5 0
BBX 4 5 1 0
BITMAP
90
A0
A0
C0
C0
ENDCHAR
STARTCHAR uni0476
ENCODING 1142
SWIDTH 600 0
DWIDTH 5 0
BBX 4 8 1 0
BITMAP
A0
D0
A0
A0
A0
C0
C0
40
ENDCHAR
STARTCHAR uni0477
ENCODING 1143
SWIDTH 600 0
DWIDTH 5 0
BBX 4 6 1 0
BITMAP
A0
90
A0
A0
C0
C0
ENDCHAR
STARTCHAR uni0478.NWID
ENCODING 1144
SWIDTH 600 0
DWIDTH 5 0
BBX 5 9 0 -2
BITMAP
40
A0
A8
E8
E8
E8
D0
10
30
ENDCHAR
STARTCHAR uni0479.NWID
ENCODING 1145
SWIDTH 600 0
DWIDTH 5 0
BBX 5 7 0 -2
BITMAP
58
E8
E8
E8
D0
10
30
ENDCHAR
STARTCHAR uni047A
ENCODING 1146
SWIDTH 600 0
DWIDTH 5 0
BBX 5 7 0 0
BITMAP
70
48
88
88
90
90
70
ENDCHAR
STARTCHAR uni047B
ENCODING 1147
SWIDTH 600 0
DWIDTH 5 0
BBX 4 5 0 0
BITMAP
70
90
90
90
70
ENDCHAR
STARTCHAR uni047C
ENCODING 1148
SWIDTH 600 0
DWIDTH 5 0
BBX 5 10 0 0
BITMAP
10
38
10
50
48
48
90
90
B0
F0
ENDCHAR
STARTCHAR uni047D
ENCODING 1149
SWIDTH 600 0
DWIDTH 5 0
BBX 5 8 0 0
BITMAP
30
28
20
50
90
90
B0
F0
ENDCHAR
STARTCHAR uni047E
ENCODING 1150
SWIDTH 600 0
DWIDTH 5 0
BBX 4 9 1 0
BITMAP
70
B0
D0
D0
D0
E0
E0
E0
C0
ENDCHAR
STARTCHAR uni047F
ENCODING 1151
SWIDTH 600 0
DWIDTH 5 0
BBX 4 7 1 0
BITMAP
F0
D0
D0
E0
E0
E0
C0
ENDCHAR
STARTCHAR uni0480
ENCODING 1152
SWIDTH 600 0
DWIDTH 5 0
BBX 4 9 0 -2
BITMAP
30
50
40
40
80
80
60
20
20
ENDCHAR
STARTCHAR uni0481
ENCODING 1153
SWIDTH 600 0
DWIDTH 5 0
BBX 4 7 0 -2
BITMAP
70
50
80
80
60
20
20
ENDCHAR
STARTCHAR uni0482
ENCODING 1154
SWIDTH 600 0
DWIDTH 5 0
BBX 4 5 0 -1
BITMAP
10
60
30
C0
A0
ENDCHAR
STARTCHAR uni0483.join-l
ENCODING 1155
SWIDTH 0 0
DWIDTH 0 0
BBX 2 1 -3 6
BITMAP
C0
ENDCHAR
STARTCHAR uni0484.join-l
ENCODING 1156
SWIDTH 0 0
DWIDTH 0 0
BBX 3 2 -4 6
BITMAP
60
A0
ENDCHAR
STARTCHAR uni0485.join-l
ENCODING 1157
SWIDTH 0 0
DWIDTH 0 0
BBX 1 2 -2 5
BITMAP
80
80
ENDCHAR
STARTCHAR uni0486.join-l
ENCODING 1158
SWIDTH 0 0
DWIDTH 0 0
BBX 1 2 -2 5
BITMAP
80
80
ENDCHAR
STARTCHAR uni0487.join-l
ENCODING 1159
SWIDTH 0 0
DWIDTH 0 0
BBX 3 2 -3 6
BITMAP
C0
A0
ENDCHAR
STARTCHAR uni048A
ENCODING 1162
SWIDTH 600 0
DWIDTH 5 0
BBX 5 10 0 -1
BITMAP
38
00
48
50
70
70
D0
D0
98
10
ENDCHAR
STARTCHAR uni048B
ENCODING 1163
SWIDTH 600 0
DWIDTH 5 0
BBX 5 8 0 -1
BITMAP
30
00
50
50
90
90
78
10
ENDCHAR
STARTCHAR uni048C
ENCODING 1164
SWIDTH 600 0
DWIDTH 5 0
BBX 4 7 0 0
BITMAP
40
60
40
70
90
90
E0
ENDCHAR
STARTCHAR uni048D
ENCODING 1165
SWIDTH 600 0
DWIDTH 5 0
BBX 4 5 0 0
BITMAP
C0
40
70
90
60
ENDCHAR
STARTCHAR uni048E
ENCODING 1166
SWIDTH 600 0
DWIDTH 5 0
BBX 4 7 0 0
BITMAP
70
50
70
70
50
80
80
ENDCHAR
STARTCHAR uni048F
ENCODING 1167
SWIDTH 600 0
DWIDTH 5 0
BBX 4 7 0 -2
BITMAP
70
50
90
B0
E0
A0
80
ENDCHAR
STARTCHAR uni0490
ENCODING 1168
SWIDTH 600 0
DWIDTH 5 0
BBX 4 9 1 0
BITMAP
10
10
70
80
80
80
80
80
80
ENDCHAR
STARTCHAR uni0491
ENCODING 1169
SWIDTH 600 0
DWIDTH 5 0
BBX 5 7 0 0
BITMAP
08
08
70
40
40
40
80
ENDCHAR
STARTCHAR uni0492
ENCODING 1170
SWIDTH 600 0
DWIDTH 5 0
BBX 5 7 0 0
BITMAP
38
40
40
E0
40
40
40
ENDCHAR
STARTCHAR uni0493
ENCODING 1171
SWIDTH 600 0
DWIDTH 5 0
BBX 4 5 0 0
BITMAP
70
30
60
A0
70
ENDCHAR
STARTCHAR uni0494
ENCODING 1172
SWIDTH 600 0
DWIDTH 5 0
BBX 4 9 1 -2
BITMAP
70
80
80
E0
A0
A0
A0
20
40
ENDCHAR
STARTCHAR uni0495
ENCODING 1173
SWIDTH 600 0
DWIDTH 5 0
BBX 3 7 1 -2
BITMAP
E0
80
E0
A0
A0
20
40
ENDCHAR
STARTCHAR uni0496
ENCODING 1174
SWIDTH 600 0
DWIDTH 5 0
BBX 5 8 0 -1
BITMAP
68
68
70
70
70
B0
B8
08
ENDCHAR
STARTCHAR uni0497
ENCODING 1175
SWIDTH 600 0
DWIDTH 5 0
BBX 5 6 0 -1
BITMAP
A8
70
70
B0
B8
08
ENDCHAR
STARTCHAR uni0498
ENCODING 1176
SWIDTH 600 0
DWIDTH 5 0
BBX 4 8 0 -1
BITMAP
30
50
10
20
10
90
60
40
ENDCHAR
STARTCHAR uni0499
ENCODING 1177
SWIDTH 600 0
DWIDTH 5 0
BBX 4 6 0 -1
BITMAP
70
10
20
10
F0
40
ENDCHAR
STARTCHAR uni049A
ENCODING 1178
SWIDTH 600 0
DWIDTH 5 0
BBX 5 8 0 -1
BITMAP
48
50
60
60
60
A0
90
10
ENDCHAR
STARTCHAR uni049B
ENCODING 1179
SWIDTH 600 0
DWIDTH 5 0
BBX 4 6 0 -1
BITMAP
50
60
60
A0
90
10
ENDCHAR
STARTCHAR uni049C
ENCODING 1180
SWIDTH 600 0
DWIDTH 5 0
BBX 5 7 0 0
BITMAP
48
50
70
60
50
90
90
ENDCHAR
STARTCHAR uni049D
ENCODING 1181
SWIDTH 600 0
DWIDTH 5 0
BBX 4 5 0 0
BITMAP
50
50
60
D0
90
ENDCHAR
STARTCHAR uni049E
ENCODING 1182
SWIDTH 600 0
DWIDTH 5 0
BBX 5 7 0 0
BITMAP
48
70
60
60
60
A0
90
ENDCHAR
STARTCHAR uni049F
ENCODING 1183
SWIDTH 600 0
DWIDTH 5 0
BBX 4 7 0 0
BITMAP
40
60
50
60
60
A0
90
ENDCHAR
STARTCHAR uni04A0
ENCODING 1184
SWIDTH 600 0
DWIDTH 5 0
BBX 4 7 1 0
BITMAP
D0
60
A0
C0
C0
A0
A0
ENDCHAR
STARTCHAR uni04A1
ENCODING 1185
SWIDTH 600 0
DWIDTH 5 0
BBX 4 5 0 0
BITMAP
D0
50
60
60
50
ENDCHAR
STARTCHAR uni04A2
ENCODING 1186
SWIDTH 600 0
DWIDTH 5 0
BBX 5 8 0 -1
BITMAP
48
48
50
70
90
90
90
10
ENDCHAR
STARTCHAR uni04A3
ENCODING 1187
SWIDTH 600 0
DWIDTH 5 0
BBX 4 6 0 -1
BITMAP
50
50
70
90
90
10
ENDCHAR
STARTCHAR uni04A4
ENCODING 1188
SWIDTH 600 0
DWIDTH 5 0
BBX 5 7 0 0
BITMAP
58
50
50
60
A0
A0
A0
ENDCHAR
STARTCHAR uni04A5
ENCODING 1189
SWIDTH 600 0
DWIDTH 5 0
BBX 5 5 0 0
BITMAP
58
90
E0
A0
A0
ENDCHAR
STARTCHAR uni04A6
ENCODING 1190
SWIDTH 600 0
DWIDTH 5 0
BBX 4 9 0 -2
BITMAP
60
60
70
B0
B0
B0
B0
10
20
ENDCHAR
STARTCHAR uni04A7
ENCODING 1191
SWIDTH 600 0
DWIDTH 5 0
BBX 4 7 0 -2
BITMAP
60
A0
B0
B0
B0
10
20
ENDCHAR
STARTCHAR uni04A8
ENCODING 1192
SWIDTH 600 0
DWIDTH 5 0
BBX 4 7 0 0
BITMAP
60
50
B0
B0
B0
B0
70
ENDCHAR
STARTCHAR uni04A9
ENCODING 1193
SWIDTH 600 0
DWIDTH 5 0
BBX 4 5 0 0
BITMAP
60
B0
B0
B0
70
ENDCHAR
STARTCHAR uni04AA
ENCODING 1194
SWIDTH 600 0
DWIDTH 5 0
BBX 4 9 0 -2
BITMAP
30
50
40
40
80
80
90
60
40
ENDCHAR
STARTCHAR uni04AB
ENCODING 1195
SWIDTH 600 0
DWIDTH 5 0
BBX 4 6 0 -1
BITMAP
70
50
80
90
60
40
ENDCHAR
STARTCHAR uni04AC
ENCODING 1196
SWIDTH 600 0
DWIDTH 5 0
BBX 4 8 1 -1
BITMAP
F0
40
40
40
40
40
40
40
ENDCHAR
STARTCHAR uni04AD
ENCODING 1197
SWIDTH 600 0
DWIDTH 5 0
BBX 5 6 0 -1
BITMAP
70
B0
B0
B0
B8
08
ENDCHAR
STARTCHAR uni04AE
ENCODING 1198
SWIDTH 600 0
DWIDTH 5 0
BBX 4 7 1 0
BITMAP
90
A0
A0
40
40
40
40
ENDCHAR
STARTCHAR uni04AF
ENCODING 1199
SWIDTH 600 0
DWIDTH 5 0
BBX 4 7 1 -2
BITMAP
B0
A0
A0
C0
40
80
80
ENDCHAR
STARTCHAR uni04B0
ENCODING 1200
SWIDTH 600 0
DWIDTH 5 0
BBX 4 7 1 0
BITMAP
90
A0
A0
40
E0
40
40
ENDCHAR
STARTCHAR uni04B1
ENCODING 1201
SWIDTH 600 0
DWIDTH 5 0
BBX 4 7 1 -2
BITMAP
B0
A0
A0
C0
C0
80
80
ENDCHAR
STARTCHAR uni04B2
ENCODING 1202
SWIDTH 600 0
DWIDTH 5 0
BBX 5 8 0 -1
BITMAP
48
50
20
20
60
50
90
10
ENDCHAR
STARTCHAR uni04B3
ENCODING 1203
SWIDTH 600 0
DWIDTH 5 0
BBX 4 6 0 -1
BITMAP
50
60
20
60
90
10
ENDCHAR
STARTCHAR uni04B4
ENCODING 1204
SWIDTH 600 0
DWIDTH 5 0
BBX 4 8 1 -1
BITMAP
D0
90
90
A0
A0
A0
E0
20
ENDCHAR
STARTCHAR uni04B5
ENCODING 1205
SWIDTH 600 0
DWIDTH 5 0
BBX 5 9 0 -1
BITMAP
28
50
00
50
50
90
90
70
10
ENDCHAR
STARTCHAR uni04B6
ENCODING 1206
SWIDTH 600 0
DWIDTH 5 0
BBX 4 8 1 -1
BITMAP
90
90
A0
A0
E0
20
20
20
ENDCHAR
STARTCHAR uni04B7
ENCODING 1207
SWIDTH 600 0
DWIDTH 5 0
BBX 3 6 1 -1
BITMAP
A0
A0
A0
E0
20
20
ENDCHAR
STARTCHAR uni04B8
ENCODING 1208
SWIDTH 600 0
DWIDTH 5 0
BBX 4 7 1 0
BITMAP
90
90
A0
E0
E0
60
20
ENDCHAR
STARTCHAR uni04B9
ENCODING 1209
SWIDTH 600 0
DWIDTH 5 0
BBX 3 5 1 0
BITMAP
A0
A0
E0
E0
60
ENDCHAR
STARTCHAR uni04BA
ENCODING 1210
SWIDTH 600 0
DWIDTH 5 0
BBX 4 7 0 0
BITMAP
40
40
40
70
90
90
90
ENDCHAR
STARTCHAR uni04BB
ENCODING 1211
SWIDTH 600 0
DWIDTH 5 0
BBX 4 7 0 0
BITMAP
40
40
70
50
90
90
90
ENDCHAR
STARTCHAR uni04BC
ENCODING 1212
SWIDTH 600 0
DWIDTH 5 0
BBX 4 7 1 0
BITMAP
60
50
D0
E0
40
A0
60
ENDCHAR
STARTCHAR uni04BD
ENCODING 1213
SWIDTH 600 0
DWIDTH 5 0
BBX 4 5 0 0
BITMAP
30
B0
70
40
30
ENDCHAR
STARTCHAR uni04BE
ENCODING 1214
SWIDTH 600 0
DWIDTH 5 0
BBX 4 8 1 -1
BITMAP
60
50
D0
E0
40
A0
40
40
ENDCHAR
STARTCHAR uni04BF
ENCODING 1215
SWIDTH 600 0
DWIDTH 5 0
BBX 4 7 0 -2
BITMAP
30
B0
70
40
50
20
20
ENDCHAR
STARTCHAR uni04C0
ENCODING 1216
SWIDTH 600 0
DWIDTH 5 0
BBX 4 7 0 0
BITMAP
70
20
20
20
20
20
F0
ENDCHAR
STARTCHAR uni04C1
ENCODING 1217
SWIDTH 600 0
DWIDTH 5 0
BBX 5 8 0 0
BITMAP
38
68
68
70
70
70
B0
B0
ENDCHAR
STARTCHAR uni04C2
ENCODING 1218
SWIDTH 600 0
DWIDTH 5 0
BBX 5 7 0 0
BITMAP
48
30
A8
70
70
B0
B0
ENDCHAR
STARTCHAR uni04C3
ENCODING 1219
SWIDTH 600 0
DWIDTH 5 0
BBX 5 9 0 -2
BITMAP
48
50
60
70
50
90
90
10
20
ENDCHAR
STARTCHAR uni04C4
ENCODING 1220
SWIDTH 600 0
DWIDTH 5 0
BBX 4 7 0 -2
BITMAP
50
60
60
90
90
10
20
ENDCHAR
STARTCHAR uni04C5
ENCODING 1221
SWIDTH 600 0
DWIDTH 5 0
BBX 5 8 0 -1
BITMAP
78
48
50
50
50
90
98
10
ENDCHAR
STARTCHAR uni04C6
ENCODING 1222
SWIDTH 600 0
DWIDTH 5 0
BBX 5 6 0 -1
BITMAP
70
50
50
90
98
10
ENDCHAR
STARTCHAR uni04C7
ENCODING 1223
SWIDTH 600 0
DWIDTH 5 0
BBX 5 9 0 -2
BITMAP
48
48
50
70
90
90
90
10
20
ENDCHAR
STARTCHAR uni04C8
ENCODING 1224
SWIDTH 600 0
DWIDTH 5 0
BBX 4 7 0 -2
BITMAP
50
50
70
90
90
10
20
ENDCHAR
STARTCHAR uni04C9
ENCODING 1225
SWIDTH 600 0
DWIDTH 5 0
BBX 5 8 0 -1
BITMAP
48
48
50
70
90
90
98
10
ENDCHAR
STARTCHAR uni04CA
ENCODING 1226
SWIDTH 600 0
DWIDTH 5 0
BBX 5 6 0 -1
BITMAP
50
50
70
90
98
10
ENDCHAR
STARTCHAR uni04CB
ENCODING 1227
SWIDTH 600 0
DWIDTH 5 0
BBX 4 8 1 -1
BITMAP
90
90
A0
A0
E0
20
60
40
ENDCHAR
STARTCHAR uni04CC
ENCODING 1228
SWIDTH 600 0
DWIDTH 5 0
BBX 3 6 1 -1
BITMAP
A0
A0
A0
E0
60
40
ENDCHAR
STARTCHAR uni04CD
ENCODING 1229
SWIDTH 600 0
DWIDTH 5 0
BBX 5 8 0 -1
BITMAP
48
58
D0
B0
B0
90
98
10
ENDCHAR
STARTCHAR uni04CE
ENCODING 1230
SWIDTH 600 0
DWIDTH 5 0
BBX 5 6 0 -1
BITMAP
58
50
F0
B0
B8
10
ENDCHAR
STARTCHAR uni04CF
ENCODING 1231
SWIDTH 600 0
DWIDTH 5 0
BBX 3 7 1 0
BITMAP
C0
40
40
40
40
A0
60
ENDCHAR
STARTCHAR uni04D0
ENCODING 1232
SWIDTH 600 0
DWIDTH 5 0
BBX 5 8 0 0
BITMAP
38
20
20
50
50
70
90
90
ENDCHAR
STARTCHAR uni04D1
ENCODING 1233
SWIDTH 600 0
DWIDTH 5 0
BBX 4 7 0 0
BITMAP
50
30
70
50
90
90
70
ENDCHAR
STARTCHAR uni04D2
ENCODING 1234
SWIDTH 600 0
DWIDTH 5 0
BBX 5 9 0 0
BITMAP
28
00
20
20
50
50
70
90
90
ENDCHAR
STARTCHAR uni04D3
ENCODING 1235
SWIDTH 600 0
DWIDTH 5 0
BBX 4 7 0 0
BITMAP
50
00
70
50
90
90
70
ENDCHAR
STARTCHAR uni04D4
ENCODING 1236
SWIDTH 600 0
DWIDTH 5 0
BBX 5 7 0 0
BITMAP
38
20
20
70
60
A0
B0
ENDCHAR
STARTCHAR uni04D5
ENCODING 1237
SWIDTH 600 0
DWIDTH 5 0
BBX 4 5 0 0
BITMAP
70
30
70
A0
F0
ENDCHAR
STARTCHAR uni04D6
ENCODING 1238
SWIDTH 600 0
DWIDTH 5 0
BBX 5 8 0 0
BITMAP
38
78
40
40
70
40
80
F0
ENDCHAR
STARTCHAR uni04D7
ENCODING 1239
SWIDTH 600 0
DWIDTH 5 0
BBX 4 7 0 0
BITMAP
50
30
70
50
70
90
60
ENDCHAR
STARTCHAR uni04D8
ENCODING 1240
SWIDTH 600 0
DWIDTH 5 0
BBX 4 7 0 0
BITMAP
30
50
10
70
90
90
60
ENDCHAR
STARTCHAR uni04D9
ENCODING 1241
SWIDTH 600 0
DWIDTH 5 0
BBX 4 5 0 0
BITMAP
70
10
70
90
60
ENDCHAR
STARTCHAR uni04DA
ENCODING 1242
SWIDTH 600 0
DWIDTH 5 0
BBX 5 9 0 0
BITMAP
28
00
30
48
10
70
90
90
60
ENDCHAR
STARTCHAR uni04DB
ENCODING 1243
SWIDTH 600 0
DWIDTH 5 0
BBX 4 7 0 0
BITMAP
50
00
70
10
70
90
60
ENDCHAR
STARTCHAR uni04DC
ENCODING 1244
SWIDTH 600 0
DWIDTH 5 0
BBX 5 9 0 0
BITMAP
28
00
68
68
70
70
70
B0
B0
ENDCHAR
STARTCHAR uni04DD
ENCODING 1245
SWIDTH 600 0
DWIDTH 5 0
BBX 5 7 0 0
BITMAP
50
00
A8
70
70
B0
B0
ENDCHAR
STARTCHAR uni04DE
ENCODING 1246
SWIDTH 600 0
DWIDTH 5 0
BBX 5 9 0 0
BITMAP
28
00
30
48
10
20
10
90
60
ENDCHAR
STARTCHAR uni04DF
ENCODING 1247
SWIDTH 600 0
DWIDTH 5 0
BBX 4 7 0 0
BITMAP
50
00
70
10
20
10
F0
ENDCHAR
STARTCHAR uni04E0
ENCODING 1248
SWIDTH 600 0
DWIDTH 5 0
BBX 4 7 0 0
BITMAP
70
10
20
70
10
90
60
ENDCHAR
STARTCHAR uni04E1
ENCODING 1249
SWIDTH 600 0
DWIDTH 5 0
BBX 4 7 0 -2
BITMAP
70
20
20
60
10
90
E0
ENDCHAR
STARTCHAR uni04E2
ENCODING 1250
SWIDTH 600 0
DWIDTH 5 0
BBX 5 9 0 0
BITMAP
38
00
48
50
70
70
D0
D0
90
ENDCHAR
STARTCHAR uni04E3
ENCODING 1251
SWIDTH 600 0
DWIDTH 5 0
BBX 4 7 0 0
BITMAP
70
00
50
50
90
90
70
ENDCHAR
STARTCHAR uni04E4
ENCODING 1252
SWIDTH 600 0
DWIDTH 5 0
BBX 5 9 0 0
BITMAP
28
00
48
50
70
70
D0
D0
90
ENDCHAR
STARTCHAR uni04E5
ENCODING 1253
SWIDTH 600 0
DWIDTH 5 0
BBX 4 7 0 0
BITMAP
50
00
50
50
90
90
70
ENDCHAR
STARTCHAR uni04E6
ENCODING 1254
SWIDTH 600 0
DWIDTH 5 0
BBX 5 9 0 0
BITMAP
28
00
30
48
48
50
90
90
60
ENDCHAR
STARTCHAR uni04E7
ENCODING 1255
SWIDTH 600 0
DWIDTH 5 0
BBX 4 7 0 0
BITMAP
50
00
70
50
90
90
60
ENDCHAR
STARTCHAR uni04E8
ENCODING 1256
SWIDTH 600 0
DWIDTH 5 0
BBX 4 7 0 0
BITMAP
30
50
50
70
90
90
60
ENDCHAR
STARTCHAR uni04E9
ENCODING 1257
SWIDTH 600 0
DWIDTH 5 0
BBX 4 5 0 0
BITMAP
70
50
70
90
60
ENDCHAR
STARTCHAR uni04EA
ENCODING 1258
SWIDTH 600 0
DWIDTH 5 0
BBX 5 9 0 0
BITMAP
28
00
30
48
50
70
90
90
60
ENDCHAR
STARTCHAR uni04EB
ENCODING 1259
SWIDTH 600 0
DWIDTH 5 0
BBX 4 7 0 0
BITMAP
50
00
70
50
70
90
60
ENDCHAR
STARTCHAR uni04EC
ENCODING 1260
SWIDTH 600 0
DWIDTH 5 0
BBX 5 9 0 0
BITMAP
28
00
30
48
10
30
10
90
60
ENDCHAR
STARTCHAR uni04ED
ENCODING 1261
SWIDTH 600 0
DWIDTH 5 0
BBX 4 7 0 0
BITMAP
50
00
70
50
30
90
60
ENDCHAR
STARTCHAR uni04EE
ENCODING 1262
SWIDTH 600 0
DWIDTH 5 0
BBX 4 9 1 0
BITMAP
70
00
90
A0
A0
C0
40
80
80
ENDCHAR
STARTCHAR uni04EF
ENCODING 1263
SWIDTH 600 0
DWIDTH 5 0
BBX 4 9 0 -2
BITMAP
70
00
50
50
90
90
70
10
E0
ENDCHAR
STARTCHAR uni04F0
ENCODING 1264
SWIDTH 600 0
DWIDTH 5 0
BBX 4 9 1 0
BITMAP
50
00
90
A0
A0
C0
40
80
80
ENDCHAR
STARTCHAR uni04F1
ENCODING 1265
SWIDTH 600 0
DWIDTH 5 0
BBX 4 9 0 -2
BITMAP
50
00
50
50
90
90
70
10
E0
ENDCHAR
STARTCHAR uni04F2
ENCODING 1266
SWIDTH 600 0
DWIDTH 5 0
BBX 4 8 1 0
BITMAP
30
D0
A0
A0
C0
40
80
80
ENDCHAR
STARTCHAR uni04F3
ENCODING 1267
SWIDTH 600 0
DWIDTH 5 0
BBX 5 8 0 -2
BITMAP
28
50
50
90
90
70
10
E0
ENDCHAR
STARTCHAR uni04F4
ENCODING 1268
SWIDTH 600 0
DWIDTH 5 0
BBX 4 9 1 0
BITMAP
50
00
90
90
A0
A0
E0
20
20
ENDCHAR
STARTCHAR uni04F5
ENCODING 1269
SWIDTH 600 0
DWIDTH 5 0
BBX 3 7 1 0
BITMAP
A0
00
A0
A0
A0
E0
20
ENDCHAR
STARTCHAR uni04F6
ENCODING 1270
SWIDTH 600 0
DWIDTH 5 0
BBX 4 8 1 -1
BITMAP
70
80
80
80
80
80
80
80
ENDCHAR
STARTCHAR uni04F7
ENCODING 1271
SWIDTH 600 0
DWIDTH 5 0
BBX 4 6 0 -1
BITMAP
70
10
60
90
70
10
ENDCHAR
STARTCHAR uni04F8
ENCODING 1272
SWIDTH 600 0
DWIDTH 5 0
BBX 5 9 0 0
BITMAP
28
00
48
48
48
70
B0
B0
D0
ENDCHAR
STARTCHAR uni04F9
ENCODING 1273
SWIDTH 600 0
DWIDTH 5 0
BBX 5 7 0 0
BITMAP
50
00
48
90
F0
B0
D0
ENDCHAR
STARTCHAR uni04FA
ENCODING 1274
SWIDTH 600 0
DWIDTH 5 0
BBX 5 9 0 -2
BITMAP
38
40
40
E0
40
40
40
40
C0
ENDCHAR
STARTCHAR uni04FB
ENCODING 1275
SWIDTH 600 0
DWIDTH 5 0
BBX 4 7 0 -2
BITMAP
70
30
60
B0
70
10
20
ENDCHAR
STARTCHAR uni04FC
ENCODING 1276
SWIDTH 600 0
DWIDTH 5 0
BBX 5 9 0 -2
BITMAP
48
50
20
20
20
60
90
10
30
ENDCHAR
STARTCHAR uni04FD
ENCODING 1277
SWIDTH 600 0
DWIDTH 5 0
BBX 4 7 0 -2
BITMAP
50
60
20
60
90
10
30
ENDCHAR
STARTCHAR uni04FE
ENCODING 1278
SWIDTH 600 0
DWIDTH 5 0
BBX 5 7 0 0
BITMAP
48
50
20
70
20
60
90
ENDCHAR
STARTCHAR uni04FF
ENCODING 1279
SWIDTH 600 0
DWIDTH 5 0
BBX 4 5 0 0
BITMAP
50
60
70
60
90
ENDCHAR
STARTCHAR uni0500
ENCODING 1280
SWIDTH 600 0
DWIDTH 5 0
BBX 5 7 0 0
BITMAP
08
08
10
70
90
90
70
ENDCHAR
STARTCHAR uni0501
ENCODING 1281
SWIDTH 600 0
DWIDTH 5 0
BBX 5 7 0 0
BITMAP
08
08
70
50
90
90
70
ENDCHAR
STARTCHAR uni0502
ENCODING 1282
SWIDTH 600 0
DWIDTH 5 0
BBX 4 7 0 0
BITMAP
20
20
20
70
B0
B0
F0
ENDCHAR
STARTCHAR uni0503
ENCODING 1283
SWIDTH 600 0
DWIDTH 5 0
BBX 4 7 0 0
BITMAP
20
20
60
A0
B0
B0
F0
ENDCHAR
STARTCHAR uni0504
ENCODING 1284
SWIDTH 600 0
DWIDTH 5 0
BBX 3 7 1 0
BITMAP
C0
C0
40
A0
60
60
60
ENDCHAR
STARTCHAR uni0505
ENCODING 1285
SWIDTH 600 0
DWIDTH 5 0
BBX 3 5 1 0
BITMAP
C0
40
A0
60
60
ENDCHAR
STARTCHAR uni0506
ENCODING 1286
SWIDTH 600 0
DWIDTH 5 0
BBX 3 8 1 -1
BITMAP
60
A0
20
40
20
20
20
20
ENDCHAR
STARTCHAR uni0507
ENCODING 1287
SWIDTH 600 0
DWIDTH 5 0
BBX 3 6 1 -1
BITMAP
E0
20
40
20
20
20
ENDCHAR
STARTCHAR uni0508
ENCODING 1288
SWIDTH 600 0
DWIDTH 5 0
BBX 4 7 0 0
BITMAP
60
60
60
70
B0
B0
B0
ENDCHAR
STARTCHAR uni0509
ENCODING 1289
SWIDTH 600 0
DWIDTH 5 0
BBX 4 5 0 0
BITMAP
60
60
B0
B0
B0
ENDCHAR
STARTCHAR uni050A
ENCODING 1290
SWIDTH 600 0
DWIDTH 5 0
BBX 4 7 0 0
BITMAP
60
60
60
70
B0
B0
B0
ENDCHAR
STARTCHAR uni050B
ENCODING 1291
SWIDTH 600 0
DWIDTH 5 0
BBX 4 5 0 0
BITMAP
60
A0
F0
B0
B0
ENDCHAR
STARTCHAR uni050C
ENCODING 1292
SWIDTH 600 0
DWIDTH 5 0
BBX 4 7 0 0
BITMAP
30
50
40
50
90
90
60
ENDCHAR
STARTCHAR uni050D
ENCODING 1293
SWIDTH 600 0
DWIDTH 5 0
BBX 4 5 0 0
BITMAP
70
40
90
90
60
ENDCHAR
STARTCHAR uni050E
ENCODING 1294
SWIDTH 600 0
DWIDTH 5 0
BBX 3 7 1 0
BITMAP
E0
40
40
A0
A0
A0
E0
ENDCHAR
STARTCHAR uni050F
ENCODING 1295
SWIDTH 600 0
DWIDTH 5 0
BBX 4 5 0 0
BITMAP
70
D0
F0
F0
F0
ENDCHAR
STARTCHAR uni0510
ENCODING 1296
SWIDTH 600 0
DWIDTH 5 0
BBX 4 7 0 0
BITMAP
30
50
40
60
80
90
60
ENDCHAR
STARTCHAR uni0511
ENCODING 1297
SWIDTH 600 0
DWIDTH 5 0
BBX 4 5 0 0
BITMAP
70
40
60
80
70
ENDCHAR
STARTCHAR uni0512
ENCODING 1298
SWIDTH 600 0
DWIDTH 5 0
BBX 5 9 0 -2
BITMAP
78
48
50
50
50
90
90
10
10
ENDCHAR
STARTCHAR uni0513
ENCODING 1299
SWIDTH 600 0
DWIDTH 5 0
BBX 4 7 0 -2
BITMAP
70
50
50
90
90
10
10
ENDCHAR
STARTCHAR uni0514
ENCODING 1300
SWIDTH 600 0
DWIDTH 5 0
BBX 5 7 0 0
BITMAP
68
70
50
90
B0
B0
D0
ENDCHAR
STARTCHAR uni0515
ENCODING 1301
SWIDTH 600 0
DWIDTH 5 0
BBX 5 5 0 0
BITMAP
68
B0
A0
B0
D0
ENDCHAR
STARTCHAR uni0516
ENCODING 1302
SWIDTH 600 0
DWIDTH 5 0
BBX 5 7 0 0
BITMAP
68
50
60
60
A0
90
90
ENDCHAR
STARTCHAR uni0517
ENCODING 1303
SWIDTH 600 0
DWIDTH 5 0
BBX 5 7 0 -2
BITMAP
78
A0
A0
A0
D0
80
80
ENDCHAR
STARTCHAR uni0518
ENCODING 1304
SWIDTH 600 0
DWIDTH 5 0
BBX 5 7 0 0
BITMAP
78
60
A0
70
60
A0
B0
ENDCHAR
STARTCHAR uni0519
ENCODING 1305
SWIDTH 600 0
DWIDTH 5 0
BBX 4 5 0 0
BITMAP
70
B0
70
B0
B0
ENDCHAR
STARTCHAR uni051A
ENCODING 1306
SWIDTH 600 0
DWIDTH 5 0
BBX 4 9 0 -2
BITMAP
30
50
50
50
90
90
60
40
20
ENDCHAR
STARTCHAR uni051B
ENCODING 1307
SWIDTH 600 0
DWIDTH 5 0
BBX 4 7 0 -2
BITMAP
70
50
90
90
70
10
10
ENDCHAR
STARTCHAR uni051C
ENCODING 1308
SWIDTH 600 0
DWIDTH 5 0
BBX 4 7 1 0
BITMAP
90
90
E0
A0
A0
A0
C0
ENDCHAR
STARTCHAR uni051D
ENCODING 1309
SWIDTH 600 0
DWIDTH 5 0
BBX 4 5 1 0
BITMAP
90
E0
E0
E0
C0
ENDCHAR
STARTCHAR uni051E
ENCODING 1310
SWIDTH 600 0
DWIDTH 5 0
BBX 5 7 0 0
BITMAP
48
50
70
70
60
A0
90
ENDCHAR
STARTCHAR uni051F
ENCODING 1311
SWIDTH 600 0
DWIDTH 5 0
BBX 4 5 0 0
BITMAP
50
60
70
A0
90
ENDCHAR
STARTCHAR uni0520
ENCODING 1312
SWIDTH 600 0
DWIDTH 5 0
BBX 4 9 0 -2
BITMAP
60
60
70
70
B0
B0
B0
10
20
ENDCHAR
STARTCHAR uni0521
ENCODING 1313
SWIDTH 600 0
DWIDTH 5 0
BBX 4 7 0 -2
BITMAP
60
60
B0
B0
B0
10
20
ENDCHAR
STARTCHAR uni0522
ENCODING 1314
SWIDTH 600 0
DWIDTH 5 0
BBX 4 9 0 -2
BITMAP
60
60
70
70
B0
B0
B0
10
20
ENDCHAR
STARTCHAR uni0523
ENCODING 1315
SWIDTH 600 0
DWIDTH 5 0
BBX 4 7 0 -2
BITMAP
60
A0
F0
B0
B0
10
20
ENDCHAR
STARTCHAR uni0524
ENCODING 1316
SWIDTH 600 0
DWIDTH 5 0
BBX 5 8 0 -1
BITMAP
78
48
50
50
90
90
90
10
ENDCHAR
STARTCHAR uni0525
ENCODING 1317
SWIDTH 600 0
DWIDTH 5 0
BBX 4 6 0 -1
BITMAP
70
50
90
90
90
10
ENDCHAR
STARTCHAR uni0526
ENCODING 1318
SWIDTH 600 0
DWIDTH 5 0
BBX 4 8 0 -1
BITMAP
40
40
40
70
90
90
90
10
ENDCHAR
STARTCHAR uni0527
ENCODING 1319
SWIDTH 600 0
DWIDTH 5 0
BBX 4 8 0 -1
BITMAP
40
40
70
50
90
90
90
10
ENDCHAR
STARTCHAR uni0528
ENCODING 1320
SWIDTH 600 0
DWIDTH 5 0
BBX 6 9 -1 -2
BITMAP
24
24
28
38
48
48
48
40
80
ENDCHAR
STARTCHAR uni0529
ENCODING 1321
SWIDTH 600 0
DWIDTH 5 0
BBX 5 7 -1 -2
BITMAP
28
28
38
48
48
40
80
ENDCHAR
STARTCHAR uni052A
ENCODING 1322
SWIDTH 600 0
DWIDTH 5 0
BBX 5 8 0 -1
BITMAP
78
58
50
B0
D0
F0
F0
C0
ENDCHAR
STARTCHAR uni052B
ENCODING 1323
SWIDTH 600 0
DWIDTH 5 0
BBX 5 7 0 0
BITMAP
40
40
58
D0
F0
F0
F0
ENDCHAR
STARTCHAR uni052C
ENCODING 1324
SWIDTH 600 0
DWIDTH 5 0
BBX 5 8 0 -1
BITMAP
48
50
70
70
70
50
F0
90
ENDCHAR
STARTCHAR uni052D
ENCODING 1325
SWIDTH 600 0
DWIDTH 5 0
BBX 5 7 0 0
BITMAP
20
20
68
B0
B0
B0
D0
ENDCHAR
STARTCHAR uni052E
ENCODING 1326
SWIDTH 600 0
DWIDTH 5 0
BBX 5 8 0 -1
BITMAP
78
48
50
50
50
90
90
10
ENDCHAR
STARTCHAR uni052F
ENCODING 1327
SWIDTH 600 0
DWIDTH 5 0
BBX 4 6 0 -1
BITMAP
70
50
50
90
90
10
ENDCHAR
STARTCHAR uni0531
ENCODING 1329
SWIDTH 600 0
DWIDTH 5 0
BBX 4 7 1 0
BITMAP
90
90
A0
A0
E0
E0
E0
ENDCHAR
STARTCHAR uni0532
ENCODING 1330
SWIDTH 600 0
DWIDTH 5 0
BBX 4 7 0 0
BITMAP
30
50
40
40
70
80
80
ENDCHAR
STARTCHAR uni0533
ENCODING 1331
SWIDTH 600 0
DWIDTH 5 0
BBX 3 7 1 0
BITMAP
60
A0
A0
A0
E0
20
20
ENDCHAR
STARTCHAR uni0534
ENCODING 1332
SWIDTH 600 0
DWIDTH 5 0
BBX 3 7 1 0
BITMAP
60
A0
20
20
20
20
20
ENDCHAR
STARTCHAR uni0535
ENCODING 1333
SWIDTH 600 0
DWIDTH 5 0
BBX 3 7 1 0
BITMAP
80
80
E0
80
80
A0
C0
ENDCHAR
STARTCHAR uni0536
ENCODING 1334
SWIDTH 600 0
DWIDTH 5 0
BBX 4 7 0 0
BITMAP
30
50
10
10
10
10
F0
ENDCHAR
STARTCHAR uni0537
ENCODING 1335
SWIDTH 600 0
DWIDTH 5 0
BBX 4 7 0 0
BITMAP
40
40
70
40
80
80
E0
ENDCHAR
STARTCHAR uni0538
ENCODING 1336
SWIDTH 600 0
DWIDTH 5 0
BBX 4 7 0 0
BITMAP
30
50
40
40
80
80
F0
ENDCHAR
STARTCHAR uni0539
ENCODING 1337
SWIDTH 600 0
DWIDTH 5 0
BBX 4 7 0 0
BITMAP
30
50
50
50
B0
B0
A0
ENDCHAR
STARTCHAR uni053A
ENCODING 1338
SWIDTH 600 0
DWIDTH 5 0
BBX 5 7 0 0
BITMAP
08
08
78
50
90
90
60
ENDCHAR
STARTCHAR uni053B
ENCODING 1339
SWIDTH 600 0
DWIDTH 5 0
BBX 4 7 0 0
BITMAP
40
40
70
50
90
80
80
ENDCHAR
STARTCHAR uni053C
ENCODING 1340
SWIDTH 600 0
DWIDTH 5 0
BBX 4 7 0 0
BITMAP
40
40
40
40
80
80
F0
ENDCHAR
STARTCHAR uni053D
ENCODING 1341
SWIDTH 600 0
DWIDTH 5 0
BBX 5 7 0 0
BITMAP
40
40
68
B0
B0
B0
B0
ENDCHAR
STARTCHAR uni053E
ENCODING 1342
SWIDTH 600 0
DWIDTH 5 0
BBX 4 7 1 0
BITMAP
F0
A0
A0
A0
A0
A0
C0
ENDCHAR
STARTCHAR uni053F
ENCODING 1343
SWIDTH 600 0
DWIDTH 5 0
BBX 3 7 1 0
BITMAP
80
80
A0
A0
E0
20
20
ENDCHAR
STARTCHAR uni0540
ENCODING 1344
SWIDTH 600 0
DWIDTH 5 0
BBX 4 7 0 0
BITMAP
30
10
10
F0
10
10
10
ENDCHAR
STARTCHAR uni0541
ENCODING 1345
SWIDTH 600 0
DWIDTH 5 0
BBX 4 7 0 0
BITMAP
30
50
10
10
70
90
70
ENDCHAR
STARTCHAR uni0542
ENCODING 1346
SWIDTH 600 0
DWIDTH 5 0
BBX 3 7 1 0
BITMAP
60
A0
20
20
20
20
20
ENDCHAR
STARTCHAR uni0543
ENCODING 1347
SWIDTH 600 0
DWIDTH 5 0
BBX 4 7 0 0
BITMAP
30
40
F0
50
90
90
70
ENDCHAR
STARTCHAR uni0544
ENCODING 1348
SWIDTH 600 0
DWIDTH 5 0
BBX 4 7 1 0
BITMAP
90
90
A0
A0
A0
A0
C0
ENDCHAR
STARTCHAR uni0545
ENCODING 1349
SWIDTH 600 0
DWIDTH 5 0
BBX 4 7 0 0
BITMAP
30
50
10
60
10
90
60
ENDCHAR
STARTCHAR uni0546
ENCODING 1350
SWIDTH 600 0
DWIDTH 5 0
BBX 3 7 1 0
BITMAP
80
80
80
80
80
A0
C0
ENDCHAR
STARTCHAR uni0547
ENCODING 1351
SWIDTH 600 0
DWIDTH 5 0
BBX 4 7 0 0
BITMAP
60
50
40
40
80
90
60
ENDCHAR
STARTCHAR uni0548
ENCODING 1352
SWIDTH 600 0
DWIDTH 5 0
BBX 4 7 0 0
BITMAP
30
50
50
50
90
90
90
ENDCHAR
STARTCHAR uni0549
ENCODING 1353
SWIDTH 600 0
DWIDTH 5 0
BBX 3 7 1 0
BITMAP
60
A0
20
20
20
A0
40
ENDCHAR
STARTCHAR uni054A
ENCODING 1354
SWIDTH 600 0
DWIDTH 5 0
BBX 4 7 1 0
BITMAP
E0
D0
50
60
60
20
20
ENDCHAR
STARTCHAR uni054B
ENCODING 1355
SWIDTH 600 0
DWIDTH 5 0
BBX 4 7 0 0
BITMAP
30
50
50
50
50
30
F0
ENDCHAR
STARTCHAR uni054C
ENCODING 1356
SWIDTH 600 0
DWIDTH 5 0
BBX 4 7 0 0
BITMAP
30
50
50
50
90
90
90
ENDCHAR
STARTCHAR uni054D
ENCODING 1357
SWIDTH 600 0
DWIDTH 5 0
BBX 4 7 1 0
BITMAP
90
90
A0
A0
A0
A0
C0
ENDCHAR
STARTCHAR uni054E
ENCODING 1358
SWIDTH 600 0
DWIDTH 5 0
BBX 4 7 1 0
BITMAP
10
10
A0
A0
E0
20
20
ENDCHAR
STARTCHAR uni054F
ENCODING 1359
SWIDTH 600 0
DWIDTH 5 0
BBX 4 7 0 0
BITMAP
30
50
40
20
10
90
60
ENDCHAR
STARTCHAR uni0550
ENCODING 1360
SWIDTH 600 0
DWIDTH 5 0
BBX 4 7 0 0
BITMAP
30
50
40
40
80
80
80
ENDCHAR
STARTCHAR uni0551
ENCODING 1361
SWIDTH 600 0
DWIDTH 5 0
BBX 4 7 0 0
BITMAP
30
50
50
F0
10
90
60
ENDCHAR
STARTCHAR uni0552
ENCODING 1362
SWIDTH 600 0
DWIDTH 5 0
BBX 4 7 0 0
BITMAP
40
40
70
40
80
80
80
ENDCHAR
STARTCHAR uni0553
ENCODING 1363
SWIDTH 600 0
DWIDTH 5 0
BBX 4 7 0 0
BITMAP
20
70
B0
B0
B0
70
20
ENDCHAR
STARTCHAR uni0554
ENCODING 1364
SWIDTH 600 0
DWIDTH 5 0
BBX 4 7 0 0
BITMAP
30
50
50
70
80
F0
80
ENDCHAR
STARTCHAR uni0555
ENCODING 1365
SWIDTH 600 0
DWIDTH 5 0
BBX 4 7 0 0
BITMAP
30
50
50
50
90
90
60
ENDCHAR
STARTCHAR uni0556
ENCODING 1366
SWIDTH 600 0
DWIDTH 5 0
BBX 4 7 0 0
BITMAP
60
60
60
70
30
B0
60
ENDCHAR
STARTCHAR uni0559
ENCODING 1369
SWIDTH 600 0
DWIDTH 5 0
BBX 2 4 2 4
BITMAP
40
80
80
80
ENDCHAR
STARTCHAR uni055A
ENCODING 1370
SWIDTH 600 0
DWIDTH 5 0
BBX 2 4 2 4
BITMAP
80
40
40
80
ENDCHAR
STARTCHAR uni055B
ENCODING 1371
SWIDTH 600 0
DWIDTH 5 0
BBX 2 3 2 4
BITMAP
40
80
80
ENDCHAR
STARTCHAR uni055C
ENCODING 1372
SWIDTH 600 0
DWIDTH 5 0
BBX 3 3 1 4
BITMAP
20
40
80
ENDCHAR
STARTCHAR uni055D
ENCODING 1373
SWIDTH 600 0
DWIDTH 5 0
BBX 1 3 2 4
BITMAP
80
80
80
ENDCHAR
STARTCHAR uni055E
ENCODING 1374
SWIDTH 600 0
DWIDTH 5 0
BBX 3 3 1 5
BITMAP
60
A0
A0
ENDCHAR
STARTCHAR uni055F.join-l
ENCODING 1375
SWIDTH 0 0
DWIDTH 0 0
BBX 2 2 -3 5
BITMAP
80
C0
ENDCHAR
STARTCHAR uni0560
ENCODING 1376
SWIDTH 600 0
DWIDTH 5 0
BBX 4 5 0 0
BITMAP
70
B0
B0
B0
B0
ENDCHAR
STARTCHAR uni0561
ENCODING 1377
SWIDTH 600 0
DWIDTH 5 0
BBX 5 5 0 0
BITMAP
68
B0
B0
B0
F0
ENDCHAR
STARTCHAR uni0562
ENCODING 1378
SWIDTH 600 0
DWIDTH 5 0
BBX 4 7 0 -2
BITMAP
70
50
90
80
F0
80
80
ENDCHAR
STARTCHAR uni0563
ENCODING 1379
SWIDTH 600 0
DWIDTH 5 0
BBX 4 7 0 -2
BITMAP
70
50
90
90
70
10
10
ENDCHAR
STARTCHAR uni0564
ENCODING 1380
SWIDTH 600 0
DWIDTH 5 0
BBX 4 7 0 -2
BITMAP
70
50
90
90
90
10
10
ENDCHAR
STARTCHAR uni0565
ENCODING 1381
SWIDTH 600 0
DWIDTH 5 0
BBX 4 7 0 0
BITMAP
40
40
70
40
90
90
70
ENDCHAR
STARTCHAR uni0566
ENCODING 1382
SWIDTH 600 0
DWIDTH 5 0
BBX 4 7 0 -2
BITMAP
70
50
90
90
70
10
10
ENDCHAR
STARTCHAR uni0567
ENCODING 1383
SWIDTH 600 0
DWIDTH 5 0
BBX 4 7 0 0
BITMAP
40
40
70
40
80
80
E0
ENDCHAR
STARTCHAR uni0568
ENCODING 1384
SWIDTH 600 0
DWIDTH 5 0
BBX 4 7 0 -2
BITMAP
70
50
90
90
90
80
E0
ENDCHAR
STARTCHAR uni0569
ENCODING 1385
SWIDTH 600 0
DWIDTH 5 0
BBX 4 7 0 -2
BITMAP
70
50
B0
B0
A0
80
80
ENDCHAR
STARTCHAR uni056A
ENCODING 1386
SWIDTH 600 0
DWIDTH 5 0
BBX 5 7 0 0
BITMAP
08
08
78
50
90
90
60
ENDCHAR
STARTCHAR uni056B
ENCODING 1387
SWIDTH 600 0
DWIDTH 5 0
BBX 4 9 0 -2
BITMAP
40
40
70
50
90
90
90
80
80
ENDCHAR
STARTCHAR uni056C
ENCODING 1388
SWIDTH 600 0
DWIDTH 5 0
BBX 2 7 1 -2
BITMAP
40
40
40
80
80
80
C0
ENDCHAR
STARTCHAR uni056D
ENCODING 1389
SWIDTH 600 0
DWIDTH 5 0
BBX 5 9 0 -2
BITMAP
40
40
68
B0
B0
B0
B0
80
80
ENDCHAR
STARTCHAR uni056E
ENCODING 1390
SWIDTH 600 0
DWIDTH 5 0
BBX 5 7 0 0
BITMAP
20
20
78
50
90
90
60
ENDCHAR
STARTCHAR uni056F
ENCODING 1391
SWIDTH 600 0
DWIDTH 5 0
BBX 4 9 0 -2
BITMAP
40
40
50
50
90
90
70
10
10
ENDCHAR
STARTCHAR uni0570
ENCODING 1392
SWIDTH 600 0
DWIDTH 5 0
BBX 4 7 0 0
BITMAP
40
40
70
50
90
90
90
ENDCHAR
STARTCHAR uni0571
ENCODING 1393
SWIDTH 600 0
DWIDTH 5 0
BBX 4 7 0 0
BITMAP
20
30
70
50
90
90
70
ENDCHAR
STARTCHAR uni0572
ENCODING 1394
SWIDTH 600 0
DWIDTH 5 0
BBX 4 7 0 -2
BITMAP
70
50
90
90
90
10
10
ENDCHAR
STARTCHAR uni0573
ENCODING 1395
SWIDTH 600 0
DWIDTH 5 0
BBX 4 7 0 0
BITMAP
30
40
F0
50
90
90
70
ENDCHAR
STARTCHAR uni0574
ENCODING 1396
SWIDTH 600 0
DWIDTH 5 0
BBX 5 7 0 0
BITMAP
08
08
50
50
90
90
70
ENDCHAR
STARTCHAR uni0575
ENCODING 1397
SWIDTH 600 0
DWIDTH 5 0
BBX 3 7 0 -2
BITMAP
20
20
20
20
20
40
C0
ENDCHAR
STARTCHAR uni0576
ENCODING 1398
SWIDTH 600 0
DWIDTH 5 0
BBX 4 7 0 0
BITMAP
40
40
50
50
90
90
70
ENDCHAR
STARTCHAR uni0577
ENCODING 1399
SWIDTH 600 0
DWIDTH 5 0
BBX 4 7 0 -2
BITMAP
70
10
10
10
20
40
E0
ENDCHAR
STARTCHAR uni0578
ENCODING 1400
SWIDTH 600 0
DWIDTH 5 0
BBX 4 5 0 0
BITMAP
70
50
90
90
90
ENDCHAR
STARTCHAR uni0579
ENCODING 1401
SWIDTH 600 0
DWIDTH 5 0
BBX 4 7 0 -2
BITMAP
40
40
70
20
40
40
E0
ENDCHAR
STARTCHAR uni057A
ENCODING 1402
SWIDTH 600 0
DWIDTH 5 0
BBX 5 7 0 -2
BITMAP
68
B0
B0
B0
F0
10
10
ENDCHAR
STARTCHAR uni057B
ENCODING 1403
SWIDTH 600 0
DWIDTH 5 0
BBX 4 7 0 -2
BITMAP
70
50
50
50
20
40
E0
ENDCHAR
STARTCHAR uni057C
ENCODING 1404
SWIDTH 600 0
DWIDTH 5 0
BBX 4 5 0 0
BITMAP
70
50
90
90
B0
ENDCHAR
STARTCHAR uni057D
ENCODING 1405
SWIDTH 600 0
DWIDTH 5 0
BBX 4 5 0 0
BITMAP
50
50
90
90
70
ENDCHAR
STARTCHAR uni057E
ENCODING 1406
SWIDTH 600 0
DWIDTH 5 0
BBX 5 9 0 -2
BITMAP
08
08
50
50
90
90
70
10
10
ENDCHAR
STARTCHAR uni057F
ENCODING 1407
SWIDTH 600 0
DWIDTH 5 0
BBX 4 5 0 0
BITMAP
70
B0
B0
B0
D0
ENDCHAR
STARTCHAR uni0580
ENCODING 1408
SWIDTH 600 0
DWIDTH 5 0
BBX 4 7 0 -2
BITMAP
70
50
90
90
90
80
80
ENDCHAR
STARTCHAR uni0581
ENCODING 1409
SWIDTH 600 0
DWIDTH 5 0
BBX 4 7 0 -2
BITMAP
70
50
90
90
70
10
60
ENDCHAR
STARTCHAR uni0582
ENCODING 1410
SWIDTH 600 0
DWIDTH 5 0
BBX 4 5 0 0
BITMAP
40
40
80
80
F0
ENDCHAR
STARTCHAR uni0583
ENCODING 1411
SWIDTH 600 0
DWIDTH 5 0
BBX 4 9 0 -2
BITMAP
20
20
70
B0
B0
B0
D0
40
40
ENDCHAR
STARTCHAR uni0584
ENCODING 1412
SWIDTH 600 0
DWIDTH 5 0
BBX 4 7 0 -2
BITMAP
70
50
90
E0
F0
80
80
ENDCHAR
STARTCHAR uni0585
ENCODING 1413
SWIDTH 600 0
DWIDTH 5 0
BBX 4 5 0 0
BITMAP
70
50
90
90
60
ENDCHAR
STARTCHAR uni0586
ENCODING 1414
SWIDTH 600 0
DWIDTH 5 0
BBX 4 9 0 -2
BITMAP
60
60
60
70
30
B0
70
40
40
ENDCHAR
STARTCHAR uni0587
ENCODING 1415
SWIDTH 600 0
DWIDTH 5 0
BBX 4 7 0 0
BITMAP
40
40
60
A0
A0
A0
F0
ENDCHAR
STARTCHAR uni0588
ENCODING 1416
SWIDTH 600 0
DWIDTH 5 0
BBX 4 7 0 -2
BITMAP
20
20
70
20
20
40
C0
ENDCHAR
STARTCHAR uni0589
ENCODING 1417
SWIDTH 600 0
DWIDTH 5 0
BBX 2 5 1 0
BITMAP
40
00
00
00
C0
ENDCHAR
STARTCHAR uni058A
ENCODING 1418
SWIDTH 600 0
DWIDTH 5 0
BBX 3 1 1 3
BITMAP
E0
ENDCHAR
STARTCHAR uni058D
ENCODING 1421
SWIDTH 600 0
DWIDTH 5 0
BBX 3 5 1 1
BITMAP
40
E0
E0
E0
40
ENDCHAR
STARTCHAR uni058E
ENCODING 1422
SWIDTH 600 0
DWIDTH 5 0
BBX 3 4 1 1
BITMAP
E0
E0
A0
C0
ENDCHAR
STARTCHAR uni058F
ENCODING 1423
SWIDTH 600 0
DWIDTH 5 0
BBX 4 7 1 0
BITMAP
E0
10
30
20
70
20
20
ENDCHAR
STARTCHAR uni0E3F
ENCODING 3647
SWIDTH 600 0
DWIDTH 5 0
BBX 4 8 0 -1
BITMAP
20
70
70
60
B0
B0
E0
40
ENDCHAR
STARTCHAR uni10FB
ENCODING 4347
SWIDTH 600 0
DWIDTH 5 0
BBX 4 4 0 0
BITMAP
40
10
00
80
ENDCHAR
STARTCHAR uni1AB0.join-l
ENCODING 6832
SWIDTH 0 0
DWIDTH 0 0
BBX 4 2 -4 5
BITMAP
F0
D0
ENDCHAR
STARTCHAR uni1AB1.join-l
ENCODING 6833
SWIDTH 0 0
DWIDTH 0 0
BBX 4 2 -4 5
BITMAP
F0
60
ENDCHAR
STARTCHAR uni1AB2.join-l
ENCODING 6834
SWIDTH 0 0
DWIDTH 0 0
BBX 2 2 -3 5
BITMAP
C0
C0
ENDCHAR
STARTCHAR uni1AB3.join-l
ENCODING 6835
SWIDTH 0 0
DWIDTH 0 0
BBX 2 2 -3 5
BITMAP
C0
80
ENDCHAR
STARTCHAR uni1AB4.join-l
ENCODING 6836
SWIDTH 0 0
DWIDTH 0 0
BBX 2 3 -3 6
BITMAP
40
00
C0
ENDCHAR
STARTCHAR uni1AB5.join-l
ENCODING 6837
SWIDTH 0 0
DWIDTH 0 0
BBX 4 2 -5 -2
BITMAP
D0
F0
ENDCHAR
STARTCHAR uni1ABB
ENCODING 6843
SWIDTH 0 0
DWIDTH 0 0
BBX 3 1 -3 5
BITMAP
A0
ENDCHAR
STARTCHAR uni1ABC
ENCODING 6844
SWIDTH 0 0
DWIDTH 0 0
BBX 4 1 -4 5
BITMAP
90
ENDCHAR
STARTCHAR uni1ABD
ENCODING 6845
SWIDTH 0 0
DWIDTH 0 0
BBX 3 2 -5 -2
BITMAP
A0
A0
ENDCHAR
STARTCHAR uni1ABF.join-l
ENCODING 6847
SWIDTH 0 0
DWIDTH 0 0
BBX 2 2 -4 -2
BITMAP
C0
80
ENDCHAR
STARTCHAR uni1AC0.join-l
ENCODING 6848
SWIDTH 0 0
DWIDTH 0 0
BBX 2 2 -4 -2
BITMAP
C0
C0
ENDCHAR
STARTCHAR uni1AC1.join-l
ENCODING 6849
SWIDTH 0 0
DWIDTH 0 0
BBX 1 1 -4 5
BITMAP
80
ENDCHAR
STARTCHAR uni1AC2.join-l
ENCODING 6850
SWIDTH 0 0
DWIDTH 0 0
BBX 1 1 -1 5
BITMAP
80
ENDCHAR
STARTCHAR uni1AC3.join-l
ENCODING 6851
SWIDTH 0 0
DWIDTH 0 0
BBX 1 2 -5 -2
BITMAP
80
80
ENDCHAR
STARTCHAR uni1AC4.join-l
ENCODING 6852
SWIDTH 0 0
DWIDTH 0 0
BBX 1 2 -2 -2
BITMAP
80
80
ENDCHAR
STARTCHAR uni1AC5
ENCODING 6853
SWIDTH 0 0
DWIDTH 0 0
BBX 4 2 -4 5
BITMAP
90
90
ENDCHAR
STARTCHAR uni1AC6.join-l
ENCODING 6854
SWIDTH 0 0
DWIDTH 0 0
BBX 2 2 -3 5
BITMAP
C0
C0
ENDCHAR
STARTCHAR uni1AC7.join-l
ENCODING 6855
SWIDTH 0 0
DWIDTH 0 0
BBX 2 2 -3 5
BITMAP
C0
C0
ENDCHAR
STARTCHAR uni1AC8.join-l
ENCODING 6856
SWIDTH 0 0
DWIDTH 0 0
BBX 2 1 -3 6
BITMAP
C0
ENDCHAR
STARTCHAR uni1AC9.join-l
ENCODING 6857
SWIDTH 0 0
DWIDTH 0 0
BBX 4 1 -4 6
BITMAP
F0
ENDCHAR
STARTCHAR uni1ACA.join-l
ENCODING 6858
SWIDTH 0 0
DWIDTH 0 0
BBX 4 1 -5 -2
BITMAP
F0
ENDCHAR
STARTCHAR uni1ACB.join-l
ENCODING 6859
SWIDTH 0 0
DWIDTH 0 0
BBX 4 1 -4 5
BITMAP
F0
ENDCHAR
STARTCHAR uni1ACC.join-l
ENCODING 6860
SWIDTH 0 0
DWIDTH 0 0
BBX 2 3 -3 4
BITMAP
40
40
C0
ENDCHAR
STARTCHAR uni1ACD.join-l
ENCODING 6861
SWIDTH 0 0
DWIDTH 0 0
BBX 2 3 -3 5
BITMAP
80
C0
C0
ENDCHAR
STARTCHAR uni1ACE.join-l
ENCODING 6862
SWIDTH 0 0
DWIDTH 0 0
BBX 2 2 -3 4
BITMAP
40
C0
ENDCHAR
STARTCHAR uni1C80
ENCODING 7296
SWIDTH 600 0
DWIDTH 5 0
BBX 3 4 1 0
BITMAP
E0
E0
E0
E0
ENDCHAR
STARTCHAR uni1C81
ENCODING 7297
SWIDTH 600 0
DWIDTH 5 0
BBX 4 5 0 -1
BITMAP
70
50
50
F0
90
ENDCHAR
STARTCHAR uni1C82
ENCODING 7298
SWIDTH 600 0
DWIDTH 5 0
BBX 3 4 1 0
BITMAP
E0
A0
A0
C0
ENDCHAR
STARTCHAR uni1C83
ENCODING 7299
SWIDTH 600 0
DWIDTH 5 0
BBX 4 7 0 -2
BITMAP
70
90
80
80
80
90
60
ENDCHAR
STARTCHAR uni1C84
ENCODING 7300
SWIDTH 600 0
DWIDTH 5 0
BBX 3 7 1 0
BITMAP
E0
20
20
20
20
20
20
ENDCHAR
STARTCHAR uni1C85
ENCODING 7301
SWIDTH 600 0
DWIDTH 5 0
BBX 4 5 0 0
BITMAP
70
B0
B0
B0
B0
ENDCHAR
STARTCHAR uni1C86
ENCODING 7302
SWIDTH 600 0
DWIDTH 5 0
BBX 3 7 1 0
BITMAP
80
80
80
80
E0
A0
E0
ENDCHAR
STARTCHAR uni1C87
ENCODING 7303
SWIDTH 600 0
DWIDTH 5 0
BBX 3 8 1 0
BITMAP
40
E0
40
80
80
E0
A0
E0
ENDCHAR
STARTCHAR uni1C88
ENCODING 7304
SWIDTH 600 0
DWIDTH 5 0
BBX 5 7 0 0
BITMAP
48
50
30
70
90
90
60
ENDCHAR
STARTCHAR uni1C89
ENCODING 7305
SWIDTH 600 0
DWIDTH 5 0
BBX 3 6 1 0
BITMAP
E0
40
60
A0
A0
E0
ENDCHAR
STARTCHAR uni1C8A
ENCODING 7306
SWIDTH 600 0
DWIDTH 5 0
BBX 4 5 0 0
BITMAP
60
D0
D0
F0
D0
ENDCHAR
STARTCHAR uni1D00
ENCODING 7424
SWIDTH 600 0
DWIDTH 5 0
BBX 4 5 0 0
BITMAP
20
60
50
70
90
ENDCHAR
STARTCHAR uni1D01
ENCODING 7425
SWIDTH 600 0
DWIDTH 5 0
BBX 5 5 0 0
BITMAP
38
60
70
A0
B0
ENDCHAR
STARTCHAR uni1D02
ENCODING 7426
SWIDTH 600 0
DWIDTH 5 0
BBX 4 5 0 0
BITMAP
70
B0
70
A0
F0
ENDCHAR
STARTCHAR uni1D03
ENCODING 7427
SWIDTH 600 0
DWIDTH 5 0
BBX 5 5 0 0
BITMAP
70
50
F8
90
F0
ENDCHAR
STARTCHAR uni1D04
ENCODING 7428
SWIDTH 600 0
DWIDTH 5 0
BBX 4 5 0 0
BITMAP
70
50
80
90
60
ENDCHAR
STARTCHAR uni1D05
ENCODING 7429
SWIDTH 600 0
DWIDTH 5 0
BBX 4 5 0 0
BITMAP
70
50
90
90
E0
ENDCHAR
STARTCHAR uni1D06
ENCODING 7430
SWIDTH 600 0
DWIDTH 5 0
BBX 4 5 0 0
BITMAP
70
50
D0
90
E0
ENDCHAR
STARTCHAR uni1D07
ENCODING 7431
SWIDTH 600 0
DWIDTH 5 0
BBX 4 5 0 0
BITMAP
70
40
70
80
F0
ENDCHAR
STARTCHAR uni1D08
ENCODING 7432
SWIDTH 600 0
DWIDTH 5 0
BBX 4 5 0 0
BITMAP
70
10
20
90
60
ENDCHAR
STARTCHAR uni1D09
ENCODING 7433
SWIDTH 600 0
DWIDTH 5 0
BBX 4 7 0 -2
BITMAP
60
A0
20
20
30
00
40
ENDCHAR
STARTCHAR uni1D0A
ENCODING 7434
SWIDTH 600 0
DWIDTH 5 0
BBX 4 5 0 0
BITMAP
30
10
10
90
60
ENDCHAR
STARTCHAR uni1D0B
ENCODING 7435
SWIDTH 600 0
DWIDTH 5 0
BBX 4 5 0 0
BITMAP
50
60
40
A0
90
ENDCHAR
STARTCHAR uni1D0C
ENCODING 7436
SWIDTH 600 0
DWIDTH 5 0
BBX 4 5 0 0
BITMAP
40
60
C0
40
70
ENDCHAR
STARTCHAR uni1D0D
ENCODING 7437
SWIDTH 600 0
DWIDTH 5 0
BBX 5 5 0 0
BITMAP
58
50
B0
B0
90
ENDCHAR
STARTCHAR uni1D0E
ENCODING 7438
SWIDTH 600 0
DWIDTH 5 0
BBX 4 5 0 0
BITMAP
50
50
B0
D0
90
ENDCHAR
STARTCHAR uni1D0F
ENCODING 7439
SWIDTH 600 0
DWIDTH 5 0
BBX 4 5 0 0
BITMAP
70
50
90
90
60
ENDCHAR
STARTCHAR uni1D10
ENCODING 7440
SWIDTH 600 0
DWIDTH 5 0
BBX 4 5 0 0
BITMAP
70
90
10
90
60
ENDCHAR
STARTCHAR uni1D11
ENCODING 7441
SWIDTH 600 0
DWIDTH 5 0
BBX 4 4 0 0
BITMAP
70
90
90
F0
ENDCHAR
STARTCHAR uni1D12
ENCODING 7442
SWIDTH 600 0
DWIDTH 5 0
BBX 4 4 0 0
BITMAP
70
90
90
90
ENDCHAR
STARTCHAR uni1D13
ENCODING 7443
SWIDTH 600 0
DWIDTH 5 0
BBX 5 4 0 0
BITMAP
F0
C8
B0
F8
ENDCHAR
STARTCHAR uni1D14
ENCODING 7444
SWIDTH 600 0
DWIDTH 5 0
BBX 4 5 0 0
BITMAP
70
B0
70
B0
F0
ENDCHAR
STARTCHAR uni1D15
ENCODING 7445
SWIDTH 600 0
DWIDTH 5 0
BBX 4 5 0 0
BITMAP
50
50
70
90
70
ENDCHAR
STARTCHAR uni1D16
ENCODING 7446
SWIDTH 600 0
DWIDTH 5 0
BBX 3 3 1 2
BITMAP
E0
A0
A0
ENDCHAR
STARTCHAR uni1D17
ENCODING 7447
SWIDTH 600 0
DWIDTH 5 0
BBX 4 3 0 0
BITMAP
90
90
60
ENDCHAR
STARTCHAR uni1D18
ENCODING 7448
SWIDTH 600 0
DWIDTH 5 0
BBX 4 5 0 0
BITMAP
70
50
70
80
80
ENDCHAR
STARTCHAR uni1D19
ENCODING 7449
SWIDTH 600 0
DWIDTH 5 0
BBX 4 5 0 0
BITMAP
70
90
70
50
90
ENDCHAR
STARTCHAR uni1D1A
ENCODING 7450
SWIDTH 600 0
DWIDTH 5 0
BBX 4 5 0 0
BITMAP
50
50
70
90
70
ENDCHAR
STARTCHAR uni1D1B
ENCODING 7451
SWIDTH 600 0
DWIDTH 5 0
BBX 3 5 1 0
BITMAP
E0
40
40
40
40
ENDCHAR
STARTCHAR uni1D1C
ENCODING 7452
SWIDTH 600 0
DWIDTH 5 0
BBX 3 5 1 0
BITMAP
A0
A0
A0
A0
C0
ENDCHAR
STARTCHAR uni1D1D
ENCODING 7453
SWIDTH 600 0
DWIDTH 5 0
BBX 5 5 0 0
BITMAP
08
F0
08
10
F0
ENDCHAR
STARTCHAR uni1D1E
ENCODING 7454
SWIDTH 600 0
DWIDTH 5 0
BBX 5 5 0 0
BITMAP
08
F0
08
90
70
ENDCHAR
STARTCHAR uni1D1F
ENCODING 7455
SWIDTH 600 0
DWIDTH 5 0
BBX 5 5 0 0
BITMAP
F8
08
F0
08
F0
ENDCHAR
STARTCHAR uni1D20
ENCODING 7456
SWIDTH 600 0
DWIDTH 5 0
BBX 4 5 1 0
BITMAP
B0
A0
A0
C0
C0
ENDCHAR
STARTCHAR uni1D21
ENCODING 7457
SWIDTH 600 0
DWIDTH 5 0
BBX 4 5 1 0
BITMAP
90
E0
E0
E0
C0
ENDCHAR
STARTCHAR uni1D22
ENCODING 7458
SWIDTH 600 0
DWIDTH 5 0
BBX 4 5 0 0
BITMAP
70
10
20
40
F0
ENDCHAR
STARTCHAR uni1D23
ENCODING 7459
SWIDTH 600 0
DWIDTH 5 0
BBX 4 5 0 0
BITMAP
70
20
70
90
60
ENDCHAR
STARTCHAR uni1D24
ENCODING 7460
SWIDTH 600 0
DWIDTH 5 0
BBX 4 7 0 0
BITMAP
30
50
10
20
C0
90
60
ENDCHAR
STARTCHAR uni1D25
ENCODING 7461
SWIDTH 600 0
DWIDTH 5 0
BBX 4 5 0 0
BITMAP
20
70
60
20
F0
ENDCHAR
STARTCHAR uni1D26
ENCODING 7462
SWIDTH 600 0
DWIDTH 5 0
BBX 3 5 1 0
BITMAP
E0
80
80
80
80
ENDCHAR
STARTCHAR uni1D27
ENCODING 7463
SWIDTH 600 0
DWIDTH 5 0
BBX 4 5 0 0
BITMAP
20
60
50
50
90
ENDCHAR
STARTCHAR uni1D28
ENCODING 7464
SWIDTH 600 0
DWIDTH 5 0
BBX 4 5 0 0
BITMAP
70
50
90
90
90
ENDCHAR
STARTCHAR uni1D29
ENCODING 7465
SWIDTH 600 0
DWIDTH 5 0
BBX 4 5 0 0
BITMAP
70
50
70
80
80
ENDCHAR
STARTCHAR uni1D2A
ENCODING 7466
SWIDTH 600 0
DWIDTH 5 0
BBX 4 5 1 0
BITMAP
D0
E0
E0
40
40
ENDCHAR
STARTCHAR uni1D2B
ENCODING 7467
SWIDTH 600 0
DWIDTH 5 0
BBX 4 5 0 0
BITMAP
70
50
50
90
90
ENDCHAR
STARTCHAR uni1D2C
ENCODING 7468
SWIDTH 600 0
DWIDTH 5 0
BBX 3 4 1 3
BITMAP
40
60
60
A0
ENDCHAR
STARTCHAR uni1D2D
ENCODING 7469
SWIDTH 600 0
DWIDTH 5 0
BBX 3 4 1 3
BITMAP
60
60
40
E0
ENDCHAR
STARTCHAR uni1D2E
ENCODING 7470
SWIDTH 600 0
DWIDTH 5 0
BBX 3 4 1 3
BITMAP
60
E0
A0
E0
ENDCHAR
STARTCHAR uni1D2F
ENCODING 7471
SWIDTH 600 0
DWIDTH 5 0
BBX 3 4 1 3
BITMAP
60
E0
A0
E0
ENDCHAR
STARTCHAR uni1D30
ENCODING 7472
SWIDTH 600 0
DWIDTH 5 0
BBX 3 4 1 3
BITMAP
60
A0
A0
E0
ENDCHAR
STARTCHAR uni1D31
ENCODING 7473
SWIDTH 600 0
DWIDTH 5 0
BBX 3 4 1 3
BITMAP
60
60
80
E0
ENDCHAR
STARTCHAR uni1D32
ENCODING 7474
SWIDTH 600 0
DWIDTH 5 0
BBX 3 4 1 3
BITMAP
60
60
20
E0
ENDCHAR
STARTCHAR uni1D33
ENCODING 7475
SWIDTH 600 0
DWIDTH 5 0
BBX 3 4 1 3
BITMAP
60
A0
A0
E0
ENDCHAR
STARTCHAR uni1D34
ENCODING 7476
SWIDTH 600 0
DWIDTH 5 0
BBX 3 4 1 3
BITMAP
A0
E0
A0
A0
ENDCHAR
STARTCHAR uni1D35
ENCODING 7477
SWIDTH 600 0
DWIDTH 5 0
BBX 3 4 1 3
BITMAP
60
40
40
E0
ENDCHAR
STARTCHAR uni1D36
ENCODING 7478
SWIDTH 600 0
DWIDTH 5 0
BBX 3 4 1 3
BITMAP
20
20
20
C0
ENDCHAR
STARTCHAR uni1D37
ENCODING 7479
SWIDTH 600 0
DWIDTH 5 0
BBX 3 4 1 3
BITMAP
60
40
C0
A0
ENDCHAR
STARTCHAR uni1D38
ENCODING 7480
SWIDTH 600 0
DWIDTH 5 0
BBX 3 4 1 3
BITMAP
40
80
80
E0
ENDCHAR
STARTCHAR uni1D39
ENCODING 7481
SWIDTH 600 0
DWIDTH 5 0
BBX 3 4 1 3
BITMAP
60
E0
E0
A0
ENDCHAR
STARTCHAR uni1D3A
ENCODING 7482
SWIDTH 600 0
DWIDTH 5 0
BBX 3 4 1 3
BITMAP
60
E0
A0
A0
ENDCHAR
STARTCHAR uni1D3B
ENCODING 7483
SWIDTH 600 0
DWIDTH 5 0
BBX 3 4 1 3
BITMAP
A0
A0
E0
A0
ENDCHAR
STARTCHAR uni1D3C
ENCODING 7484
SWIDTH 600 0
DWIDTH 5 0
BBX 3 4 1 3
BITMAP
60
A0
A0
E0
ENDCHAR
STARTCHAR uni1D3D
ENCODING 7485
SWIDTH 600 0
DWIDTH 5 0
BBX 3 5 1 3
BITMAP
40
A0
60
A0
E0
ENDCHAR
STARTCHAR uni1D3E
ENCODING 7486
SWIDTH 600 0
DWIDTH 5 0
BBX 3 4 1 3
BITMAP
60
60
80
80
ENDCHAR
STARTCHAR uni1D3F
ENCODING 7487
SWIDTH 600 0
DWIDTH 5 0
BBX 3 4 1 3
BITMAP
60
E0
A0
A0
ENDCHAR
STARTCHAR uni1D40
ENCODING 7488
SWIDTH 600 0
DWIDTH 5 0
BBX 2 4 2 3
BITMAP
C0
80
80
80
ENDCHAR
STARTCHAR uni1D41
ENCODING 7489
SWIDTH 600 0
DWIDTH 5 0
BBX 3 4 1 3
BITMAP
A0
A0
A0
E0
ENDCHAR
STARTCHAR uni1D42
ENCODING 7490
SWIDTH 600 0
DWIDTH 5 0
BBX 4 4 1 3
BITMAP
90
60
60
A0
ENDCHAR
STARTCHAR uni1D43
ENCODING 7491
SWIDTH 600 0
DWIDTH 5 0
BBX 3 3 1 3
BITMAP
60
A0
E0
ENDCHAR
STARTCHAR uni1D44
ENCODING 7492
SWIDTH 600 0
DWIDTH 5 0
BBX 3 3 1 3
BITMAP
E0
E0
E0
ENDCHAR
STARTCHAR uni1D45
ENCODING 7493
SWIDTH 600 0
DWIDTH 5 0
BBX 3 3 1 3
BITMAP
60
A0
E0
ENDCHAR
STARTCHAR uni1D46
ENCODING 7494
SWIDTH 600 0
DWIDTH 5 0
BBX 3 3 1 3
BITMAP
E0
E0
E0
ENDCHAR
STARTCHAR uni1D47
ENCODING 7495
SWIDTH 600 0
DWIDTH 5 0
BBX 3 4 1 3
BITMAP
80
E0
A0
E0
ENDCHAR
STARTCHAR uni1D48
ENCODING 7496
SWIDTH 600 0
DWIDTH 5 0
BBX 3 4 1 3
BITMAP
20
60
A0
E0
ENDCHAR
STARTCHAR uni1D49
ENCODING 7497
SWIDTH 600 0
DWIDTH 5 0
BBX 3 3 1 3
BITMAP
60
E0
E0
ENDCHAR
STARTCHAR uni1D4A
ENCODING 7498
SWIDTH 600 0
DWIDTH 5 0
BBX 3 3 1 3
BITMAP
E0
60
E0
ENDCHAR
STARTCHAR uni1D4B
ENCODING 7499
SWIDTH 600 0
DWIDTH 5 0
BBX 3 3 1 3
BITMAP
E0
40
E0
ENDCHAR
STARTCHAR uni1D4C
ENCODING 7500
SWIDTH 600 0
DWIDTH 5 0
BBX 3 3 1 3
BITMAP
E0
60
E0
ENDCHAR
STARTCHAR uni1D4D
ENCODING 7501
SWIDTH 600 0
DWIDTH 5 0
BBX 3 5 1 1
BITMAP
60
A0
E0
20
C0
ENDCHAR
STARTCHAR uni1D4E
ENCODING 7502
SWIDTH 600 0
DWIDTH 5 0
BBX 3 5 1 1
BITMAP
C0
40
60
00
40
ENDCHAR
STARTCHAR uni1D4F
ENCODING 7503
SWIDTH 600 0
DWIDTH 5 0
BBX 3 4 1 3
BITMAP
40
60
E0
E0
ENDCHAR
STARTCHAR uni1D50
ENCODING 7504
SWIDTH 600 0
DWIDTH 5 0
BBX 3 3 1 3
BITMAP
E0
E0
E0
ENDCHAR
STARTCHAR uni1D51
ENCODING 7505
SWIDTH 600 0
DWIDTH 5 0
BBX 3 5 1 1
BITMAP
E0
A0
A0
20
40
ENDCHAR
STARTCHAR uni1D52
ENCODING 7506
SWIDTH 600 0
DWIDTH 5 0
BBX 3 3 1 3
BITMAP
60
A0
E0
ENDCHAR
STARTCHAR uni1D53
ENCODING 7507
SWIDTH 600 0
DWIDTH 5 0
BBX 3 3 1 3
BITMAP
E0
20
E0
ENDCHAR
STARTCHAR uni1D54
ENCODING 7508
SWIDTH 600 0
DWIDTH 5 0
BBX 3 2 1 4
BITMAP
60
A0
ENDCHAR
STARTCHAR uni1D55
ENCODING 7509
SWIDTH 600 0
DWIDTH 5 0
BBX 3 2 1 3
BITMAP
A0
E0
ENDCHAR
STARTCHAR uni1D56
ENCODING 7510
SWIDTH 600 0
DWIDTH 5 0
BBX 3 5 1 1
BITMAP
E0
A0
E0
80
80
ENDCHAR
STARTCHAR uni1D57
ENCODING 7511
SWIDTH 600 0
DWIDTH 5 0
BBX 2 4 2 3
BITMAP
80
C0
80
C0
ENDCHAR
STARTCHAR uni1D58
ENCODING 7512
SWIDTH 600 0
DWIDTH 5 0
BBX 3 3 1 3
BITMAP
A0
A0
E0
ENDCHAR
STARTCHAR uni1D59
ENCODING 7513
SWIDTH 600 0
DWIDTH 5 0
BBX 3 3 1 3
BITMAP
E0
20
E0
ENDCHAR
STARTCHAR uni1D5A
ENCODING 7514
SWIDTH 600 0
DWIDTH 5 0
BBX 3 3 1 3
BITMAP
E0
E0
E0
ENDCHAR
STARTCHAR uni1D5B
ENCODING 7515
SWIDTH 600 0
DWIDTH 5 0
BBX 3 3 1 3
BITMAP
A0
60
40
ENDCHAR
STARTCHAR uni1D5C
ENCODING 7516
SWIDTH 600 0
DWIDTH 5 0
BBX 3 3 1 3
BITMAP
60
40
E0
ENDCHAR
STARTCHAR uni1D5D
ENCODING 7517
SWIDTH 600 0
DWIDTH 5 0
BBX 3 6 1 1
BITMAP
60
A0
C0
E0
80
80
ENDCHAR
STARTCHAR uni1D5E
ENCODING 7518
SWIDTH 600 0
DWIDTH 5 0
BBX 3 5 1 1
BITMAP
A0
60
40
40
40
ENDCHAR
STARTCHAR uni1D5F
ENCODING 7519
SWIDTH 600 0
DWIDTH 5 0
BBX 3 4 1 3
BITMAP
60
40
A0
E0
ENDCHAR
STARTCHAR uni1D60
ENCODING 7520
SWIDTH 600 0
DWIDTH 5 0
BBX 3 5 1 1
BITMAP
A0
E0
E0
40
40
ENDCHAR
STARTCHAR uni1D61
ENCODING 7521
SWIDTH 600 0
DWIDTH 5 0
BBX 3 5 1 1
BITMAP
A0
40
40
C0
A0
ENDCHAR
STARTCHAR uni1D62
ENCODING 7522
SWIDTH 600 0
DWIDTH 5 0
BBX 3 4 1 -1
BITMAP
40
C0
80
60
ENDCHAR
STARTCHAR uni1D63
ENCODING 7523
SWIDTH 600 0
DWIDTH 5 0
BBX 3 3 1 -1
BITMAP
E0
80
80
ENDCHAR
STARTCHAR uni1D64
ENCODING 7524
SWIDTH 600 0
DWIDTH 5 0
BBX 3 3 1 -1
BITMAP
A0
A0
C0
ENDCHAR
STARTCHAR uni1D65
ENCODING 7525
SWIDTH 600 0
DWIDTH 5 0
BBX 3 3 1 -1
BITMAP
A0
C0
80
ENDCHAR
STARTCHAR uni1D66
ENCODING 7526
SWIDTH 600 0
DWIDTH 5 0
BBX 4 5 0 -2
BITMAP
70
60
50
60
80
ENDCHAR
STARTCHAR uni1D67
ENCODING 7527
SWIDTH 600 0
DWIDTH 5 0
BBX 3 4 1 -2
BITMAP
A0
C0
80
80
ENDCHAR
STARTCHAR uni1D68
ENCODING 7528
SWIDTH 600 0
DWIDTH 5 0
BBX 3 4 0 -2
BITMAP
60
60
60
80
ENDCHAR
STARTCHAR uni1D69
ENCODING 7529
SWIDTH 600 0
DWIDTH 5 0
BBX 3 4 1 -2
BITMAP
E0
A0
C0
80
ENDCHAR
STARTCHAR uni1D6A
ENCODING 7530
SWIDTH 600 0
DWIDTH 5 0
BBX 4 4 0 -2
BITMAP
50
60
40
A0
ENDCHAR
STARTCHAR uni1D6B
ENCODING 7531
SWIDTH 600 0
DWIDTH 5 0
BBX 4 5 0 0
BITMAP
B0
B0
B0
A0
F0
ENDCHAR
STARTCHAR uni1D6C
ENCODING 7532
SWIDTH 600 0
DWIDTH 5 0
BBX 4 7 0 0
BITMAP
40
E0
70
50
90
90
E0
ENDCHAR
STARTCHAR uni1D6D
ENCODING 7533
SWIDTH 600 0
DWIDTH 5 0
BBX 6 7 0 0
BITMAP
08
1C
70
50
90
90
70
ENDCHAR
STARTCHAR uni1D6E
ENCODING 7534
SWIDTH 600 0
DWIDTH 5 0
BBX 5 9 0 -2
BITMAP
18
20
70
20
70
20
40
40
C0
ENDCHAR
STARTCHAR uni1D6F
ENCODING 7535
SWIDTH 600 0
DWIDTH 5 0
BBX 5 5 0 0
BITMAP
70
B0
E8
B0
B0
ENDCHAR
STARTCHAR uni1D70
ENCODING 7536
SWIDTH 600 0
DWIDTH 5 0
BBX 5 5 0 0
BITMAP
70
50
D8
B0
90
ENDCHAR
STARTCHAR uni1D71
ENCODING 7537
SWIDTH 600 0
DWIDTH 5 0
BBX 5 7 -1 -2
BITMAP
38
28
48
48
70
C0
40
ENDCHAR
STARTCHAR uni1D72
ENCODING 7538
SWIDTH 600 0
DWIDTH 5 0
BBX 4 5 0 0
BITMAP
70
70
E0
40
40
ENDCHAR
STARTCHAR uni1D73
ENCODING 7539
SWIDTH 600 0
DWIDTH 5 0
BBX 4 5 0 0
BITMAP
30
60
E0
40
40
ENDCHAR
STARTCHAR uni1D74
ENCODING 7540
SWIDTH 600 0
DWIDTH 5 0
BBX 5 5 0 0
BITMAP
70
40
E8
B0
60
ENDCHAR
STARTCHAR uni1D75
ENCODING 7541
SWIDTH 600 0
DWIDTH 5 0
BBX 3 7 1 0
BITMAP
40
40
E0
A0
C0
A0
60
ENDCHAR
STARTCHAR uni1D76
ENCODING 7542
SWIDTH 600 0
DWIDTH 5 0
BBX 4 5 0 0
BITMAP
70
50
B0
40
F0
ENDCHAR
STARTCHAR uni1D77
ENCODING 7543
SWIDTH 600 0
DWIDTH 5 0
BBX 4 7 0 -2
BITMAP
70
40
E0
90
90
90
E0
ENDCHAR
STARTCHAR uni1D78
ENCODING 7544
SWIDTH 600 0
DWIDTH 5 0
BBX 3 3 1 3
BITMAP
A0
E0
A0
ENDCHAR
STARTCHAR uni1D79
ENCODING 7545
SWIDTH 600 0
DWIDTH 5 0
BBX 4 7 0 -2
BITMAP
70
20
40
60
90
90
E0
ENDCHAR
STARTCHAR uni1D7A
ENCODING 7546
SWIDTH 600 0
DWIDTH 5 0
BBX 5 7 0 0
BITMAP
50
68
70
70
70
70
F0
ENDCHAR
STARTCHAR uni1D7B
ENCODING 7547
SWIDTH 600 0
DWIDTH 5 0
BBX 3 5 1 0
BITMAP
E0
40
E0
40
C0
ENDCHAR
STARTCHAR uni1D7C
ENCODING 7548
SWIDTH 600 0
DWIDTH 5 0
BBX 3 5 1 0
BITMAP
C0
40
C0
A0
60
ENDCHAR
STARTCHAR uni1D7D
ENCODING 7549
SWIDTH 600 0
DWIDTH 5 0
BBX 4 7 0 -2
BITMAP
70
50
F0
90
E0
80
80
ENDCHAR
STARTCHAR uni1D7E
ENCODING 7550
SWIDTH 600 0
DWIDTH 5 0
BBX 4 5 0 0
BITMAP
50
50
F0
90
60
ENDCHAR
STARTCHAR uni1D7F
ENCODING 7551
SWIDTH 600 0
DWIDTH 5 0
BBX 4 5 0 0
BITMAP
50
50
F0
90
60
ENDCHAR
STARTCHAR uni1D80
ENCODING 7552
SWIDTH 600 0
DWIDTH 5 0
BBX 4 9 0 -2
BITMAP
40
40
70
50
90
90
E0
20
20
ENDCHAR
STARTCHAR uni1D81
ENCODING 7553
SWIDTH 600 0
DWIDTH 5 0
BBX 5 9 0 -2
BITMAP
08
08
70
50
90
90
70
10
30
ENDCHAR
STARTCHAR uni1D82
ENCODING 7554
SWIDTH 600 0
DWIDTH 5 0
BBX 4 9 1 -2
BITMAP
30
40
E0
40
40
80
C0
40
80
ENDCHAR
STARTCHAR uni1D83
ENCODING 7555
SWIDTH 600 0
DWIDTH 5 0
BBX 4 7 0 -2
BITMAP
60
A0
A0
A0
F0
30
E0
ENDCHAR
STARTCHAR uni1D84
ENCODING 7556
SWIDTH 600 0
DWIDTH 5 0
BBX 4 9 0 -2
BITMAP
40
40
70
50
60
A0
90
10
10
ENDCHAR
STARTCHAR uni1D85
ENCODING 7557
SWIDTH 600 0
DWIDTH 5 0
BBX 3 9 1 -2
BITMAP
C0
40
40
40
40
A0
60
40
80
ENDCHAR
STARTCHAR uni1D86
ENCODING 7558
SWIDTH 600 0
DWIDTH 5 0
BBX 4 7 0 -2
BITMAP
70
B0
B0
B0
B0
10
10
ENDCHAR
STARTCHAR uni1D87
ENCODING 7559
SWIDTH 600 0
DWIDTH 5 0
BBX 4 7 0 -2
BITMAP
70
50
90
90
90
10
10
ENDCHAR
STARTCHAR uni1D88
ENCODING 7560
SWIDTH 600 0
DWIDTH 5 0
BBX 4 7 0 -2
BITMAP
70
50
90
90
E0
A0
A0
ENDCHAR
STARTCHAR uni1D89
ENCODING 7561
SWIDTH 600 0
DWIDTH 5 0
BBX 3 7 1 -2
BITMAP
E0
A0
80
80
80
80
80
ENDCHAR
STARTCHAR uni1D8A
ENCODING 7562
SWIDTH 600 0
DWIDTH 5 0
BBX 4 7 0 -2
BITMAP
70
40
20
90
60
20
20
ENDCHAR
STARTCHAR uni1D8B
ENCODING 7563
SWIDTH 600 0
DWIDTH 5 0
BBX 4 9 0 -2
BITMAP
10
20
20
20
20
20
30
50
E0
ENDCHAR
STARTCHAR uni1D8C
ENCODING 7564
SWIDTH 600 0
DWIDTH 5 0
BBX 4 7 1 -2
BITMAP
B0
A0
A0
C0
C0
40
C0
ENDCHAR
STARTCHAR uni1D8D
ENCODING 7565
SWIDTH 600 0
DWIDTH 5 0
BBX 4 7 0 -2
BITMAP
50
60
20
60
90
10
30
ENDCHAR
STARTCHAR uni1D8E
ENCODING 7566
SWIDTH 600 0
DWIDTH 5 0
BBX 4 7 0 -2
BITMAP
70
10
20
40
F0
10
20
ENDCHAR
STARTCHAR uni1D8F
ENCODING 7567
SWIDTH 600 0
DWIDTH 5 0
BBX 5 7 0 -2
BITMAP
70
50
90
90
70
10
08
ENDCHAR
STARTCHAR uni1D90
ENCODING 7568
SWIDTH 600 0
DWIDTH 5 0
BBX 5 7 0 -2
BITMAP
70
50
90
90
70
10
08
ENDCHAR
STARTCHAR uni1D91
ENCODING 7569
SWIDTH 600 0
DWIDTH 5 0
BBX 5 9 0 -2
BITMAP
08
08
70
50
90
90
70
10
10
ENDCHAR
STARTCHAR uni1D92
ENCODING 7570
SWIDTH 600 0
DWIDTH 5 0
BBX 4 7 0 -2
BITMAP
70
50
70
80
70
10
10
ENDCHAR
STARTCHAR uni1D93
ENCODING 7571
SWIDTH 600 0
DWIDTH 5 0
BBX 4 7 0 -2
BITMAP
70
40
60
80
70
10
10
ENDCHAR
STARTCHAR uni1D94
ENCODING 7572
SWIDTH 600 0
DWIDTH 5 0
BBX 4 7 0 -2
BITMAP
70
10
20
10
F0
80
80
ENDCHAR
STARTCHAR uni1D95
ENCODING 7573
SWIDTH 600 0
DWIDTH 5 0
BBX 5 7 0 -2
BITMAP
60
50
70
B0
70
10
08
ENDCHAR
STARTCHAR uni1D96
ENCODING 7574
SWIDTH 600 0
DWIDTH 5 0
BBX 3 9 1 -2
BITMAP
40
00
C0
40
40
A0
60
40
20
ENDCHAR
STARTCHAR uni1D97
ENCODING 7575
SWIDTH 600 0
DWIDTH 5 0
BBX 4 7 0 -2
BITMAP
70
90
10
90
E0
80
80
ENDCHAR
STARTCHAR uni1D98
ENCODING 7576
SWIDTH 600 0
DWIDTH 5 0
BBX 4 9 0 -2
BITMAP
10
20
20
20
20
20
C0
80
40
ENDCHAR
STARTCHAR uni1D99
ENCODING 7577
SWIDTH 600 0
DWIDTH 5 0
BBX 5 7 0 -2
BITMAP
50
50
90
90
70
10
08
ENDCHAR
STARTCHAR uni1D9A
ENCODING 7578
SWIDTH 600 0
DWIDTH 5 0
BBX 4 7 0 -2
BITMAP
70
20
70
10
F0
80
80
ENDCHAR
STARTCHAR uni1D9B
ENCODING 7579
SWIDTH 600 0
DWIDTH 5 0
BBX 3 3 1 3
BITMAP
E0
A0
E0
ENDCHAR
STARTCHAR uni1D9C
ENCODING 7580
SWIDTH 600 0
DWIDTH 5 0
BBX 3 3 1 3
BITMAP
60
80
E0
ENDCHAR
STARTCHAR uni1D9D
ENCODING 7581
SWIDTH 600 0
DWIDTH 5 0
BBX 3 3 1 3
BITMAP
60
E0
E0
ENDCHAR
STARTCHAR uni1D9E
ENCODING 7582
SWIDTH 600 0
DWIDTH 5 0
BBX 3 5 1 3
BITMAP
40
60
60
A0
E0
ENDCHAR
STARTCHAR uni1D9F
ENCODING 7583
SWIDTH 600 0
DWIDTH 5 0
BBX 3 3 1 3
BITMAP
E0
40
E0
ENDCHAR
STARTCHAR uni1DA0
ENCODING 7584
SWIDTH 600 0
DWIDTH 5 0
BBX 3 6 1 1
BITMAP
20
40
E0
40
40
80
ENDCHAR
STARTCHAR uni1DA1
ENCODING 7585
SWIDTH 600 0
DWIDTH 5 0
BBX 3 5 1 1
BITMAP
60
20
60
40
C0
ENDCHAR
STARTCHAR uni1DA2
ENCODING 7586
SWIDTH 600 0
DWIDTH 5 0
BBX 3 5 1 1
BITMAP
60
A0
E0
20
C0
ENDCHAR
STARTCHAR uni1DA3
ENCODING 7587
SWIDTH 600 0
DWIDTH 5 0
BBX 3 5 1 1
BITMAP
A0
A0
E0
20
20
ENDCHAR
STARTCHAR uni1DA4
ENCODING 7588
SWIDTH 600 0
DWIDTH 5 0
BBX 2 4 2 3
BITMAP
80
80
80
C0
ENDCHAR
STARTCHAR uni1DA5
ENCODING 7589
SWIDTH 600 0
DWIDTH 5 0
BBX 2 3 2 3
BITMAP
80
80
C0
ENDCHAR
STARTCHAR uni1DA6
ENCODING 7590
SWIDTH 600 0
DWIDTH 5 0
BBX 2 3 2 3
BITMAP
C0
80
80
ENDCHAR
STARTCHAR uni1DA7
ENCODING 7591
SWIDTH 600 0
DWIDTH 5 0
BBX 2 3 2 3
BITMAP
C0
80
80
ENDCHAR
STARTCHAR uni1DA8
ENCODING 7592
SWIDTH 600 0
DWIDTH 5 0
BBX 3 6 1 1
BITMAP
20
40
40
40
C0
E0
ENDCHAR
STARTCHAR uni1DA9
ENCODING 7593
SWIDTH 600 0
DWIDTH 5 0
BBX 1 6 2 1
BITMAP
80
80
80
80
80
80
ENDCHAR
STARTCHAR uni1DAA
ENCODING 7594
SWIDTH 600 0
DWIDTH 5 0
BBX 2 6 2 1
BITMAP
80
80
80
80
C0
80
ENDCHAR
STARTCHAR uni1DAB
ENCODING 7595
SWIDTH 600 0
DWIDTH 5 0
BBX 3 3 1 3
BITMAP
80
80
E0
ENDCHAR
STARTCHAR uni1DAC
ENCODING 7596
SWIDTH 600 0
DWIDTH 5 0
BBX 3 5 1 1
BITMAP
E0
E0
E0
20
40
ENDCHAR
STARTCHAR uni1DAD
ENCODING 7597
SWIDTH 600 0
DWIDTH 5 0
BBX 3 5 1 1
BITMAP
E0
E0
E0
20
20
ENDCHAR
STARTCHAR uni1DAE
ENCODING 7598
SWIDTH 600 0
DWIDTH 5 0
BBX 4 5 0 1
BITMAP
70
50
50
40
80
ENDCHAR
STARTCHAR uni1DAF
ENCODING 7599
SWIDTH 600 0
DWIDTH 5 0
BBX 3 5 1 1
BITMAP
E0
A0
A0
20
20
ENDCHAR
STARTCHAR uni1DB0
ENCODING 7600
SWIDTH 600 0
DWIDTH 5 0
BBX 3 3 1 3
BITMAP
A0
E0
A0
ENDCHAR
STARTCHAR uni1DB1
ENCODING 7601
SWIDTH 600 0
DWIDTH 5 0
BBX 3 3 1 3
BITMAP
60
E0
E0
ENDCHAR
STARTCHAR uni1DB2
ENCODING 7602
SWIDTH 600 0
DWIDTH 5 0
BBX 3 6 1 1
BITMAP
40
60
E0
E0
40
40
ENDCHAR
STARTCHAR uni1DB3
ENCODING 7603
SWIDTH 600 0
DWIDTH 5 0
BBX 3 5 1 1
BITMAP
E0
40
E0
80
80
ENDCHAR
STARTCHAR uni1DB4
ENCODING 7604
SWIDTH 600 0
DWIDTH 5 0
BBX 3 6 1 1
BITMAP
20
40
40
40
40
80
ENDCHAR
STARTCHAR uni1DB5
ENCODING 7605
SWIDTH 600 0
DWIDTH 5 0
BBX 2 6 2 1
BITMAP
80
C0
80
C0
40
40
ENDCHAR
STARTCHAR uni1DB6
ENCODING 7606
SWIDTH 600 0
DWIDTH 5 0
BBX 3 3 1 3
BITMAP
A0
E0
E0
ENDCHAR
STARTCHAR uni1DB7
ENCODING 7607
SWIDTH 600 0
DWIDTH 5 0
BBX 3 3 1 3
BITMAP
E0
A0
E0
ENDCHAR
STARTCHAR uni1DB8
ENCODING 7608
SWIDTH 600 0
DWIDTH 5 0
BBX 3 3 1 3
BITMAP
A0
A0
E0
ENDCHAR
STARTCHAR uni1DB9
ENCODING 7609
SWIDTH 600 0
DWIDTH 5 0
BBX 3 3 1 3
BITMAP
A0
A0
E0
ENDCHAR
STARTCHAR uni1DBA
ENCODING 7610
SWIDTH 600 0
DWIDTH 5 0
BBX 3 3 1 3
BITMAP
40
60
A0
ENDCHAR
STARTCHAR uni1DBB
ENCODING 7611
SWIDTH 600 0
DWIDTH 5 0
BBX 3 3 1 3
BITMAP
E0
40
E0
ENDCHAR
STARTCHAR uni1DBC
ENCODING 7612
SWIDTH 600 0
DWIDTH 5 0
BBX 3 5 1 1
BITMAP
E0
40
E0
20
20
ENDCHAR
STARTCHAR uni1DBD
ENCODING 7613
SWIDTH 600 0
DWIDTH 5 0
BBX 3 4 1 2
BITMAP
E0
60
E0
40
ENDCHAR
STARTCHAR uni1DBE
ENCODING 7614
SWIDTH 600 0
DWIDTH 5 0
BBX 3 5 1 1
BITMAP
E0
40
40
20
C0
ENDCHAR
STARTCHAR uni1DBF
ENCODING 7615
SWIDTH 600 0
DWIDTH 5 0
BBX 3 4 1 3
BITMAP
60
E0
A0
40
ENDCHAR
STARTCHAR uni1DC3.join-l
ENCODING 7619
SWIDTH 0 0
DWIDTH 0 0
BBX 3 2 -3 5
BITMAP
A0
C0
ENDCHAR
STARTCHAR uni1DC4.join-l
ENCODING 7620
SWIDTH 0 0
DWIDTH 0 0
BBX 2 2 -3 5
BITMAP
40
C0
ENDCHAR
STARTCHAR uni1DC5.join-l
ENCODING 7621
SWIDTH 0 0
DWIDTH 0 0
BBX 2 2 -3 5
BITMAP
80
C0
ENDCHAR
STARTCHAR uni1DC6.join-l
ENCODING 7622
SWIDTH 0 0
DWIDTH 0 0
BBX 2 2 -3 5
BITMAP
C0
40
ENDCHAR
STARTCHAR uni1DC7.join-l
ENCODING 7623
SWIDTH 0 0
DWIDTH 0 0
BBX 2 2 -3 5
BITMAP
40
80
ENDCHAR
STARTCHAR uni1DCA.join-l
ENCODING 7626
SWIDTH 0 0
DWIDTH 0 0
BBX 2 2 -4 -3
BITMAP
40
80
ENDCHAR
STARTCHAR uni1DCB.join-l
ENCODING 7627
SWIDTH 0 0
DWIDTH 0 0
BBX 2 2 -3 5
BITMAP
C0
80
ENDCHAR
STARTCHAR uni1DCC.join-l
ENCODING 7628
SWIDTH 0 0
DWIDTH 0 0
BBX 2 2 -3 5
BITMAP
C0
40
ENDCHAR
STARTCHAR uni1DCD.join-m
ENCODING 7629
SWIDTH 0 0
DWIDTH 0 0
BBX 7 2 -3 7
BITMAP
3C
C2
ENDCHAR
STARTCHAR uni1DCE.join-l
ENCODING 7630
SWIDTH 0 0
DWIDTH 0 0
BBX 2 2 -3 5
BITMAP
C0
C0
ENDCHAR
STARTCHAR uni1DCF.join-l
ENCODING 7631
SWIDTH 0 0
DWIDTH 0 0
BBX 2 1 -4 -2
BITMAP
C0
ENDCHAR
STARTCHAR uni1DD3.join-l
ENCODING 7635
SWIDTH 0 0
DWIDTH 0 0
BBX 2 1 -3 5
BITMAP
C0
ENDCHAR
STARTCHAR uni1DD4.join-l
ENCODING 7636
SWIDTH 0 0
DWIDTH 0 0
BBX 2 3 -3 5
BITMAP
40
C0
C0
ENDCHAR
STARTCHAR uni1DD5.join-l
ENCODING 7637
SWIDTH 0 0
DWIDTH 0 0
BBX 2 3 -3 5
BITMAP
40
C0
C0
ENDCHAR
STARTCHAR uni1DD7.join-l
ENCODING 7639
SWIDTH 0 0
DWIDTH 0 0
BBX 2 3 -3 5
BITMAP
C0
C0
80
ENDCHAR
STARTCHAR uni1DD8.join-l
ENCODING 7640
SWIDTH 0 0
DWIDTH 0 0
BBX 2 3 -3 5
BITMAP
40
C0
C0
ENDCHAR
STARTCHAR uni1DD9.join-l
ENCODING 7641
SWIDTH 0 0
DWIDTH 0 0
BBX 2 3 -3 5
BITMAP
40
C0
C0
ENDCHAR
STARTCHAR uni1DDA.join-l
ENCODING 7642
SWIDTH 0 0
DWIDTH 0 0
BBX 2 3 -3 5
BITMAP
C0
40
80
ENDCHAR
STARTCHAR uni1DDB.join-l
ENCODING 7643
SWIDTH 0 0
DWIDTH 0 0
BBX 2 2 -3 6
BITMAP
40
C0
ENDCHAR
STARTCHAR uni1DDC.join-l
ENCODING 7644
SWIDTH 0 0
DWIDTH 0 0
BBX 2 3 -3 6
BITMAP
80
40
C0
ENDCHAR
STARTCHAR uni1DDD.join-l
ENCODING 7645
SWIDTH 0 0
DWIDTH 0 0
BBX 1 3 -2 5
BITMAP
80
80
80
ENDCHAR
STARTCHAR uni1DDE.join-l
ENCODING 7646
SWIDTH 0 0
DWIDTH 0 0
BBX 2 2 -3 5
BITMAP
80
C0
ENDCHAR
STARTCHAR uni1DDF.join-l
ENCODING 7647
SWIDTH 0 0
DWIDTH 0 0
BBX 2 2 -3 6
BITMAP
C0
C0
ENDCHAR
STARTCHAR uni1DE0.join-l
ENCODING 7648
SWIDTH 0 0
DWIDTH 0 0
BBX 2 2 -3 6
BITMAP
C0
C0
ENDCHAR
STARTCHAR uni1DE1.join-l
ENCODING 7649
SWIDTH 0 0
DWIDTH 0 0
BBX 2 2 -3 6
BITMAP
C0
C0
ENDCHAR
STARTCHAR uni1DE2.join-l
ENCODING 7650
SWIDTH 0 0
DWIDTH 0 0
BBX 2 2 -3 6
BITMAP
40
C0
ENDCHAR
STARTCHAR uni1DE3.join-l
ENCODING 7651
SWIDTH 0 0
DWIDTH 0 0
BBX 2 2 -3 6
BITMAP
C0
40
ENDCHAR
STARTCHAR uni1DE4.join-l
ENCODING 7652
SWIDTH 0 0
DWIDTH 0 0
BBX 2 3 -3 5
BITMAP
C0
40
80
ENDCHAR
STARTCHAR uni1DE5.join-l
ENCODING 7653
SWIDTH 0 0
DWIDTH 0 0
BBX 2 4 -3 5
BITMAP
40
40
40
80
ENDCHAR
STARTCHAR uni1DE6.join-l
ENCODING 7654
SWIDTH 0 0
DWIDTH 0 0
BBX 2 3 -3 5
BITMAP
C0
40
C0
ENDCHAR
STARTCHAR uni1DE7.join-l
ENCODING 7655
SWIDTH 0 0
DWIDTH 0 0
BBX 2 2 -3 5
BITMAP
C0
C0
ENDCHAR
STARTCHAR uni1DE8.join-l
ENCODING 7656
SWIDTH 0 0
DWIDTH 0 0
BBX 2 3 -3 6
BITMAP
80
C0
C0
ENDCHAR
STARTCHAR uni1DE9.join-l
ENCODING 7657
SWIDTH 0 0
DWIDTH 0 0
BBX 2 4 -3 5
BITMAP
40
40
C0
80
ENDCHAR
STARTCHAR uni1DEA.join-l
ENCODING 7658
SWIDTH 0 0
DWIDTH 0 0
BBX 2 3 -3 5
BITMAP
C0
40
80
ENDCHAR
STARTCHAR uni1DEB.join-l
ENCODING 7659
SWIDTH 0 0
DWIDTH 0 0
BBX 2 4 -3 5
BITMAP
40
40
40
80
ENDCHAR
STARTCHAR uni1DEC.join-l
ENCODING 7660
SWIDTH 0 0
DWIDTH 0 0
BBX 2 3 -3 5
BITMAP
40
C0
40
ENDCHAR
STARTCHAR uni1DED.join-l
ENCODING 7661
SWIDTH 0 0
DWIDTH 0 0
BBX 2 3 -3 6
BITMAP
40
C0
C0
ENDCHAR
STARTCHAR uni1DEE.join-l
ENCODING 7662
SWIDTH 0 0
DWIDTH 0 0
BBX 2 3 -3 6
BITMAP
40
C0
80
ENDCHAR
STARTCHAR uni1DEF.join-l
ENCODING 7663
SWIDTH 0 0
DWIDTH 0 0
BBX 2 4 -3 5
BITMAP
40
40
40
80
ENDCHAR
STARTCHAR uni1DF0.join-l
ENCODING 7664
SWIDTH 0 0
DWIDTH 0 0
BBX 2 2 -3 6
BITMAP
C0
C0
ENDCHAR
STARTCHAR uni1DF1.join-l
ENCODING 7665
SWIDTH 0 0
DWIDTH 0 0
BBX 2 2 -3 6
BITMAP
C0
C0
ENDCHAR
STARTCHAR uni1DF2.join-l
ENCODING 7666
SWIDTH 0 0
DWIDTH 0 0
BBX 2 3 -3 5
BITMAP
40
C0
C0
ENDCHAR
STARTCHAR uni1DF3.join-l
ENCODING 7667
SWIDTH 0 0
DWIDTH 0 0
BBX 2 3 -3 5
BITMAP
40
C0
80
ENDCHAR
STARTCHAR uni1DF4.join-l
ENCODING 7668
SWIDTH 0 0
DWIDTH 0 0
BBX 2 3 -3 5
BITMAP
40
C0
C0
ENDCHAR
STARTCHAR uni1DF5.join-l
ENCODING 7669
SWIDTH 0 0
DWIDTH 0 0
BBX 2 2 -3 5
BITMAP
40
C0
ENDCHAR
STARTCHAR uni1DF6.join-l
ENCODING 7670
SWIDTH 0 0
DWIDTH 0 0
BBX 3 2 -1 5
BITMAP
A0
C0
ENDCHAR
STARTCHAR uni1DF7.join-l
ENCODING 7671
SWIDTH 0 0
DWIDTH 0 0
BBX 3 2 -1 5
BITMAP
A0
C0
ENDCHAR
STARTCHAR uni1DF8.join-l
ENCODING 7672
SWIDTH 0 0
DWIDTH 0 0
BBX 1 1 0 5
BITMAP
80
ENDCHAR
STARTCHAR uni1DF9.join-l
ENCODING 7673
SWIDTH 0 0
DWIDTH 0 0
BBX 4 2 -5 -2
BITMAP
90
F0
ENDCHAR
STARTCHAR uni1DFA.join-l
ENCODING 7674
SWIDTH 0 0
DWIDTH 0 0
BBX 1 1 -1 -1
BITMAP
80
ENDCHAR
STARTCHAR uni1DFB.join-l
ENCODING 7675
SWIDTH 0 0
DWIDTH 0 0
BBX 2 1 -3 6
BITMAP
C0
ENDCHAR
STARTCHAR uni1DFC.join-m
ENCODING 7676
SWIDTH 0 0
DWIDTH 0 0
BBX 8 2 -5 -5
BITMAP
3C
C3
ENDCHAR
STARTCHAR uni1DFD.join-l
ENCODING 7677
SWIDTH 0 0
DWIDTH 0 0
BBX 4 3 -5 -3
BITMAP
50
F0
A0
ENDCHAR
STARTCHAR uni1DFE.join-l
ENCODING 7678
SWIDTH 0 0
DWIDTH 0 0
BBX 2 1 -3 5
BITMAP
C0
ENDCHAR
STARTCHAR uni1DFF.join-l
ENCODING 7679
SWIDTH 0 0
DWIDTH 0 0
BBX 4 2 -5 -2
BITMAP
90
F0
ENDCHAR
STARTCHAR uni1E00
ENCODING 7680
SWIDTH 600 0
DWIDTH 5 0
BBX 4 10 0 -3
BITMAP
20
20
50
50
70
90
90
00
60
40
ENDCHAR
STARTCHAR uni1E01
ENCODING 7681
SWIDTH 600 0
DWIDTH 5 0
BBX 4 8 0 -3
BITMAP
70
50
90
90
70
00
60
40
ENDCHAR
STARTCHAR uni1E02
ENCODING 7682
SWIDTH 600 0
DWIDTH 5 0
BBX 4 9 0 0
BITMAP
10
00
70
50
50
60
90
90
E0
ENDCHAR
STARTCHAR uni1E03
ENCODING 7683
SWIDTH 600 0
DWIDTH 5 0
BBX 4 7 0 0
BITMAP
50
40
70
50
90
90
E0
ENDCHAR
STARTCHAR uni1E04
ENCODING 7684
SWIDTH 600 0
DWIDTH 5 0
BBX 4 9 0 -2
BITMAP
70
50
50
60
90
90
E0
00
40
ENDCHAR
STARTCHAR uni1E05
ENCODING 7685
SWIDTH 600 0
DWIDTH 5 0
BBX 4 9 0 -2
BITMAP
40
40
70
50
90
90
E0
00
40
ENDCHAR
STARTCHAR uni1E06
ENCODING 7686
SWIDTH 600 0
DWIDTH 5 0
BBX 4 9 0 -2
BITMAP
70
50
50
60
90
90
E0
00
E0
ENDCHAR
STARTCHAR uni1E07
ENCODING 7687
SWIDTH 600 0
DWIDTH 5 0
BBX 4 9 0 -2
BITMAP
40
40
70
50
90
90
E0
00
E0
ENDCHAR
STARTCHAR uni1E08
ENCODING 7688
SWIDTH 600 0
DWIDTH 5 0
BBX 4 10 0 -2
BITMAP
10
30
50
40
40
80
90
60
20
60
ENDCHAR
STARTCHAR uni1E09
ENCODING 7689
SWIDTH 600 0
DWIDTH 5 0
BBX 4 8 0 -2
BITMAP
10
70
50
80
90
60
20
60
ENDCHAR
STARTCHAR uni1E0A
ENCODING 7690
SWIDTH 600 0
DWIDTH 5 0
BBX 4 9 0 0
BITMAP
10
00
70
50
50
50
90
90
E0
ENDCHAR
STARTCHAR uni1E0B
ENCODING 7691
SWIDTH 600 0
DWIDTH 5 0
BBX 5 7 0 0
BITMAP
28
08
70
50
90
90
70
ENDCHAR
STARTCHAR uni1E0C
ENCODING 7692
SWIDTH 600 0
DWIDTH 5 0
BBX 4 9 0 -2
BITMAP
70
50
50
50
90
90
E0
00
40
ENDCHAR
STARTCHAR uni1E0D
ENCODING 7693
SWIDTH 600 0
DWIDTH 5 0
BBX 5 9 0 -2
BITMAP
08
08
70
50
90
90
70
00
40
ENDCHAR
STARTCHAR uni1E0E
ENCODING 7694
SWIDTH 600 0
DWIDTH 5 0
BBX 4 9 0 -2
BITMAP
70
50
50
50
90
90
E0
00
E0
ENDCHAR
STARTCHAR uni1E0F
ENCODING 7695
SWIDTH 600 0
DWIDTH 5 0
BBX 5 9 0 -2
BITMAP
08
08
70
50
90
90
70
00
E0
ENDCHAR
STARTCHAR uni1E10
ENCODING 7696
SWIDTH 600 0
DWIDTH 5 0
BBX 4 9 0 -2
BITMAP
70
50
50
50
90
90
E0
40
40
ENDCHAR
STARTCHAR uni1E11
ENCODING 7697
SWIDTH 600 0
DWIDTH 5 0
BBX 5 9 0 -2
BITMAP
08
08
70
50
90
90
70
40
40
ENDCHAR
STARTCHAR uni1E12
ENCODING 7698
SWIDTH 600 0
DWIDTH 5 0
BBX 4 10 0 -3
BITMAP
70
50
50
50
90
90
E0
00
40
A0
ENDCHAR
STARTCHAR uni1E13
ENCODING 7699
SWIDTH 600 0
DWIDTH 5 0
BBX 5 10 0 -3
BITMAP
08
08
70
50
90
90
70
00
40
A0
ENDCHAR
STARTCHAR uni1E14
ENCODING 7700
SWIDTH 600 0
DWIDTH 5 0
BBX 5 9 0 0
BITMAP
38
00
78
40
40
70
40
80
F0
ENDCHAR
STARTCHAR uni1E15
ENCODING 7701
SWIDTH 600 0
DWIDTH 5 0
BBX 4 8 0 0
BITMAP
20
70
00
70
50
70
90
60
ENDCHAR
STARTCHAR uni1E16
ENCODING 7702
SWIDTH 600 0
DWIDTH 5 0
BBX 5 10 0 0
BITMAP
08
38
00
78
40
40
70
40
80
F0
ENDCHAR
STARTCHAR uni1E17
ENCODING 7703
SWIDTH 600 0
DWIDTH 5 0
BBX 4 8 0 0
BITMAP
10
70
00
70
50
70
90
60
ENDCHAR
STARTCHAR uni1E18
ENCODING 7704
SWIDTH 600 0
DWIDTH 5 0
BBX 5 10 0 -3
BITMAP
78
40
40
70
40
80
F0
00
40
A0
ENDCHAR
STARTCHAR uni1E19
ENCODING 7705
SWIDTH 600 0
DWIDTH 5 0
BBX 4 8 0 -3
BITMAP
70
50
70
90
60
00
40
A0
ENDCHAR
STARTCHAR uni1E1A
ENCODING 7706
SWIDTH 600 0
DWIDTH 5 0
BBX 5 9 0 -2
BITMAP
78
40
40
70
40
80
F0
60
A0
ENDCHAR
STARTCHAR uni1E1B
ENCODING 7707
SWIDTH 600 0
DWIDTH 5 0
BBX 4 7 0 -2
BITMAP
70
50
70
90
60
60
A0
ENDCHAR
STARTCHAR uni1E1C
ENCODING 7708
SWIDTH 600 0
DWIDTH 5 0
BBX 5 10 0 -2
BITMAP
38
78
40
40
70
40
80
F0
40
60
ENDCHAR
STARTCHAR uni1E1D
ENCODING 7709
SWIDTH 600 0
DWIDTH 5 0
BBX 4 9 0 -2
BITMAP
50
30
70
50
70
90
60
40
60
ENDCHAR
STARTCHAR uni1E1E
ENCODING 7710
SWIDTH 600 0
DWIDTH 5 0
BBX 4 9 1 0
BITMAP
20
00
70
80
80
E0
80
80
80
ENDCHAR
STARTCHAR uni1E1F
ENCODING 7711
SWIDTH 600 0
DWIDTH 5 0
BBX 5 11 0 -2
BITMAP
10
00
18
20
70
20
20
20
40
40
C0
ENDCHAR
STARTCHAR uni1E20
ENCODING 7712
SWIDTH 600 0
DWIDTH 5 0
BBX 5 9 0 0
BITMAP
38
00
30
48
40
70
90
90
70
ENDCHAR
STARTCHAR uni1E21
ENCODING 7713
SWIDTH 600 0
DWIDTH 5 0
BBX 4 9 0 -2
BITMAP
70
00
70
50
90
90
70
10
E0
ENDCHAR
STARTCHAR uni1E22
ENCODING 7714
SWIDTH 600 0
DWIDTH 5 0
BBX 5 9 0 0
BITMAP
10
00
48
48
50
70
90
90
90
ENDCHAR
STARTCHAR uni1E23
ENCODING 7715
SWIDTH 600 0
DWIDTH 5 0
BBX 4 7 0 0
BITMAP
50
40
70
50
90
90
90
ENDCHAR
STARTCHAR uni1E24
ENCODING 7716
SWIDTH 600 0
DWIDTH 5 0
BBX 5 9 0 -2
BITMAP
48
48
50
70
90
90
90
00
40
ENDCHAR
STARTCHAR uni1E25
ENCODING 7717
SWIDTH 600 0
DWIDTH 5 0
BBX 4 9 0 -2
BITMAP
40
40
70
50
90
90
90
00
40
ENDCHAR
STARTCHAR uni1E26
ENCODING 7718
SWIDTH 600 0
DWIDTH 5 0
BBX 5 9 0 0
BITMAP
28
00
48
48
50
70
90
90
90
ENDCHAR
STARTCHAR uni1E27
ENCODING 7719
SWIDTH 600 0
DWIDTH 5 0
BBX 5 9 0 0
BITMAP
28
00
40
40
70
50
90
90
90
ENDCHAR
STARTCHAR uni1E28
ENCODING 7720
SWIDTH 600 0
DWIDTH 5 0
BBX 6 9 -1 -2
BITMAP
24
24
28
38
48
48
48
40
C0
ENDCHAR
STARTCHAR uni1E29
ENCODING 7721
SWIDTH 600 0
DWIDTH 5 0
BBX 5 9 -1 -2
BITMAP
20
20
38
28
48
48
48
40
C0
ENDCHAR
STARTCHAR uni1E2A
ENCODING 7722
SWIDTH 600 0
DWIDTH 5 0
BBX 5 9 0 -2
BITMAP
48
48
50
70
90
90
90
A0
60
ENDCHAR
STARTCHAR uni1E2B
ENCODING 7723
SWIDTH 600 0
DWIDTH 5 0
BBX 4 9 0 -2
BITMAP
40
40
70
50
90
90
90
A0
60
ENDCHAR
STARTCHAR uni1E2C
ENCODING 7724
SWIDTH 600 0
DWIDTH 5 0
BBX 4 9 0 -2
BITMAP
70
20
20
20
20
20
F0
60
A0
ENDCHAR
STARTCHAR uni1E2D
ENCODING 7725
SWIDTH 600 0
DWIDTH 5 0
BBX 4 9 0 -2
BITMAP
20
00
60
20
20
50
30
60
A0
ENDCHAR
STARTCHAR uni1E2E
ENCODING 7726
SWIDTH 600 0
DWIDTH 5 0
BBX 5 10 0 0
BITMAP
08
38
00
70
20
20
20
20
20
F0
ENDCHAR
STARTCHAR uni1E2F
ENCODING 7727
SWIDTH 600 0
DWIDTH 5 0
BBX 3 8 1 0
BITMAP
20
A0
00
C0
40
40
A0
60
ENDCHAR
STARTCHAR uni1E30
ENCODING 7728
SWIDTH 600 0
DWIDTH 5 0
BBX 5 8 0 0
BITMAP
10
78
50
60
60
60
A0
90
ENDCHAR
STARTCHAR uni1E31
ENCODING 7729
SWIDTH 600 0
DWIDTH 5 0
BBX 4 8 0 0
BITMAP
20
40
40
70
50
70
A0
B0
ENDCHAR
STARTCHAR uni1E32
ENCODING 7730
SWIDTH 600 0
DWIDTH 5 0
BBX 5 9 0 -2
BITMAP
58
50
60
60
60
A0
90
00
40
ENDCHAR
STARTCHAR uni1E33
ENCODING 7731
SWIDTH 600 0
DWIDTH 5 0
BBX 4 9 0 -2
BITMAP
40
40
70
50
70
A0
B0
00
40
ENDCHAR
STARTCHAR uni1E34
ENCODING 7732
SWIDTH 600 0
DWIDTH 5 0
BBX 5 9 0 -2
BITMAP
58
50
60
60
60
A0
90
00
E0
ENDCHAR
STARTCHAR uni1E35
ENCODING 7733
SWIDTH 600 0
DWIDTH 5 0
BBX 4 9 0 -2
BITMAP
40
40
70
50
70
A0
B0
00
E0
ENDCHAR
STARTCHAR uni1E36
ENCODING 7734
SWIDTH 600 0
DWIDTH 5 0
BBX 3 9 1 -2
BITMAP
80
80
80
80
80
80
E0
00
80
ENDCHAR
STARTCHAR uni1E37
ENCODING 7735
SWIDTH 600 0
DWIDTH 5 0
BBX 3 9 1 -2
BITMAP
C0
40
40
40
40
A0
60
00
80
ENDCHAR
STARTCHAR uni1E38
ENCODING 7736
SWIDTH 600 0
DWIDTH 5 0
BBX 4 11 1 -2
BITMAP
70
00
80
80
80
80
80
80
E0
00
80
ENDCHAR
STARTCHAR uni1E39
ENCODING 7737
SWIDTH 600 0
DWIDTH 5 0
BBX 4 11 1 -2
BITMAP
70
00
C0
40
40
40
40
A0
60
00
80
ENDCHAR
STARTCHAR uni1E3A
ENCODING 7738
SWIDTH 600 0
DWIDTH 5 0
BBX 4 9 0 -2
BITMAP
40
40
40
40
40
40
70
00
E0
ENDCHAR
STARTCHAR uni1E3B
ENCODING 7739
SWIDTH 600 0
DWIDTH 5 0
BBX 4 9 0 -2
BITMAP
60
20
20
20
20
50
30
00
E0
ENDCHAR
STARTCHAR uni1E3C
ENCODING 7740
SWIDTH 600 0
DWIDTH 5 0
BBX 4 10 0 -3
BITMAP
40
40
40
40
40
40
70
00
40
A0
ENDCHAR
STARTCHAR uni1E3D
ENCODING 7741
SWIDTH 600 0
DWIDTH 5 0
BBX 4 10 0 -3
BITMAP
60
20
20
20
20
50
30
00
40
A0
ENDCHAR
STARTCHAR uni1E3E
ENCODING 7742
SWIDTH 600 0
DWIDTH 5 0
BBX 5 8 0 0
BITMAP
10
68
58
D0
B0
B0
90
90
ENDCHAR
STARTCHAR uni1E3F
ENCODING 7743
SWIDTH 600 0
DWIDTH 5 0
BBX 4 6 0 0
BITMAP
10
70
B0
B0
B0
B0
ENDCHAR
STARTCHAR uni1E40
ENCODING 7744
SWIDTH 600 0
DWIDTH 5 0
BBX 5 9 0 0
BITMAP
10
00
48
58
D0
B0
B0
90
90
ENDCHAR
STARTCHAR uni1E41
ENCODING 7745
SWIDTH 600 0
DWIDTH 5 0
BBX 4 7 0 0
BITMAP
20
00
70
B0
B0
B0
B0
ENDCHAR
STARTCHAR uni1E42
ENCODING 7746
SWIDTH 600 0
DWIDTH 5 0
BBX 5 9 0 -2
BITMAP
48
58
D0
B0
B0
90
90
00
40
ENDCHAR
STARTCHAR uni1E43
ENCODING 7747
SWIDTH 600 0
DWIDTH 5 0
BBX 4 7 0 -2
BITMAP
70
B0
B0
B0
B0
00
40
ENDCHAR
STARTCHAR uni1E44
ENCODING 7748
SWIDTH 600 0
DWIDTH 5 0
BBX 5 9 0 0
BITMAP
10
00
48
48
70
70
B0
90
90
ENDCHAR
STARTCHAR uni1E45
ENCODING 7749
SWIDTH 600 0
DWIDTH 5 0
BBX 4 7 0 0
BITMAP
20
00
70
50
90
90
90
ENDCHAR
STARTCHAR uni1E46
ENCODING 7750
SWIDTH 600 0
DWIDTH 5 0
BBX 5 9 0 -2
BITMAP
48
48
70
70
B0
90
90
00
40
ENDCHAR
STARTCHAR uni1E47
ENCODING 7751
SWIDTH 600 0
DWIDTH 5 0
BBX 4 7 0 -2
BITMAP
70
50
90
90
90
00
40
ENDCHAR
STARTCHAR uni1E48
ENCODING 7752
SWIDTH 600 0
DWIDTH 5 0
BBX 5 9 0 -2
BITMAP
48
48
70
70
B0
90
90
00
E0
ENDCHAR
STARTCHAR uni1E49
ENCODING 7753
SWIDTH 600 0
DWIDTH 5 0
BBX 4 7 0 -2
BITMAP
70
50
90
90
90
00
E0
ENDCHAR
STARTCHAR uni1E4A
ENCODING 7754
SWIDTH 600 0
DWIDTH 5 0
BBX 5 10 0 -3
BITMAP
48
48
70
70
B0
90
90
00
40
A0
ENDCHAR
STARTCHAR uni1E4B
ENCODING 7755
SWIDTH 600 0
DWIDTH 5 0
BBX 4 8 0 -3
BITMAP
70
50
90
90
90
00
40
A0
ENDCHAR
STARTCHAR uni1E4C
ENCODING 7756
SWIDTH 600 0
DWIDTH 5 0
BBX 5 10 0 0
BITMAP
08
78
00
30
48
48
50
90
90
60
ENDCHAR
STARTCHAR uni1E4D
ENCODING 7757
SWIDTH 600 0
DWIDTH 5 0
BBX 5 8 0 0
BITMAP
38
50
00
70
50
90
90
60
ENDCHAR
STARTCHAR uni1E4E
ENCODING 7758
SWIDTH 600 0
DWIDTH 5 0
BBX 5 10 0 0
BITMAP
28
78
00
30
48
48
50
90
90
60
ENDCHAR
STARTCHAR uni1E4F
ENCODING 7759
SWIDTH 600 0
DWIDTH 5 0
BBX 5 9 0 0
BITMAP
28
28
50
00
70
50
90
90
60
ENDCHAR
STARTCHAR uni1E50
ENCODING 7760
SWIDTH 600 0
DWIDTH 5 0
BBX 5 9 0 0
BITMAP
38
00
30
48
48
50
90
90
60
ENDCHAR
STARTCHAR uni1E51
ENCODING 7761
SWIDTH 600 0
DWIDTH 5 0
BBX 4 8 0 0
BITMAP
20
70
00
70
50
90
90
60
ENDCHAR
STARTCHAR uni1E52
ENCODING 7762
SWIDTH 600 0
DWIDTH 5 0
BBX 5 10 0 0
BITMAP
08
38
00
30
48
48
50
90
90
60
ENDCHAR
STARTCHAR uni1E53
ENCODING 7763
SWIDTH 600 0
DWIDTH 5 0
BBX 4 8 0 0
BITMAP
10
70
00
70
50
90
90
60
ENDCHAR
STARTCHAR uni1E54
ENCODING 7764
SWIDTH 600 0
DWIDTH 5 0
BBX 4 8 0 0
BITMAP
10
70
50
50
70
40
80
80
ENDCHAR
STARTCHAR uni1E55
ENCODING 7765
SWIDTH 600 0
DWIDTH 5 0
BBX 4 8 0 -2
BITMAP
10
70
50
90
90
E0
80
80
ENDCHAR
STARTCHAR uni1E56
ENCODING 7766
SWIDTH 600 0
DWIDTH 5 0
BBX 4 9 0 0
BITMAP
10
00
70
50
50
70
40
80
80
ENDCHAR
STARTCHAR uni1E57
ENCODING 7767
SWIDTH 600 0
DWIDTH 5 0
BBX 4 9 0 -2
BITMAP
20
00
70
50
90
90
E0
80
80
ENDCHAR
STARTCHAR uni1E58
ENCODING 7768
SWIDTH 600 0
DWIDTH 5 0
BBX 4 9 0 0
BITMAP
10
00
70
50
50
70
A0
90
90
ENDCHAR
STARTCHAR uni1E59
ENCODING 7769
SWIDTH 600 0
DWIDTH 5 0
BBX 3 7 1 0
BITMAP
40
00
E0
A0
80
80
80
ENDCHAR
STARTCHAR uni1E5A
ENCODING 7770
SWIDTH 600 0
DWIDTH 5 0
BBX 4 9 0 -2
BITMAP
70
50
50
70
A0
90
90
00
40
ENDCHAR
STARTCHAR uni1E5B
ENCODING 7771
SWIDTH 600 0
DWIDTH 5 0
BBX 4 7 0 -2
BITMAP
70
50
40
40
40
00
80
ENDCHAR
STARTCHAR uni1E5C
ENCODING 7772
SWIDTH 600 0
DWIDTH 5 0
BBX 5 11 0 -2
BITMAP
38
00
70
48
50
70
A0
90
90
00
40
ENDCHAR
STARTCHAR uni1E5D
ENCODING 7773
SWIDTH 600 0
DWIDTH 5 0
BBX 4 9 0 -2
BITMAP
70
00
70
50
40
40
40
00
80
ENDCHAR
STARTCHAR uni1E5E
ENCODING 7774
SWIDTH 600 0
DWIDTH 5 0
BBX 4 9 0 -2
BITMAP
70
50
50
70
A0
90
90
00
E0
ENDCHAR
STARTCHAR uni1E5F
ENCODING 7775
SWIDTH 600 0
DWIDTH 5 0
BBX 4 7 0 -2
BITMAP
70
50
40
40
40
00
E0
ENDCHAR
STARTCHAR uni1E60
ENCODING 7776
SWIDTH 600 0
DWIDTH 5 0
BBX 4 9 0 0
BITMAP
10
00
30
50
40
20
10
90
60
ENDCHAR
STARTCHAR uni1E61
ENCODING 7777
SWIDTH 600 0
DWIDTH 5 0
BBX 4 7 0 0
BITMAP
20
00
70
40
20
90
60
ENDCHAR
STARTCHAR uni1E62
ENCODING 7778
SWIDTH 600 0
DWIDTH 5 0
BBX 4 9 0 -2
BITMAP
30
50
40
20
10
90
60
00
40
ENDCHAR
STARTCHAR uni1E63
ENCODING 7779
SWIDTH 600 0
DWIDTH 5 0
BBX 4 7 0 -2
BITMAP
70
40
20
90
60
00
40
ENDCHAR
STARTCHAR uni1E64
ENCODING 7780
SWIDTH 600 0
DWIDTH 5 0
BBX 4 10 0 0
BITMAP
10
00
10
30
50
40
20
10
90
60
ENDCHAR
STARTCHAR uni1E65
ENCODING 7781
SWIDTH 600 0
DWIDTH 5 0
BBX 4 9 0 0
BITMAP
10
00
00
10
70
40
20
90
60
ENDCHAR
STARTCHAR uni1E66
ENCODING 7782
SWIDTH 600 0
DWIDTH 5 0
BBX 4 10 0 0
BITMAP
10
30
00
30
50
40
20
10
90
60
ENDCHAR
STARTCHAR uni1E67
ENCODING 7783
SWIDTH 600 0
DWIDTH 5 0
BBX 4 9 0 0
BITMAP
10
30
30
00
70
40
20
90
60
ENDCHAR
STARTCHAR uni1E68
ENCODING 7784
SWIDTH 600 0
DWIDTH 5 0
BBX 4 11 0 -2
BITMAP
10
00
30
50
40
20
10
90
60
00
40
ENDCHAR
STARTCHAR uni1E69
ENCODING 7785
SWIDTH 600 0
DWIDTH 5 0
BBX 4 9 0 -2
BITMAP
20
00
70
40
20
90
60
00
40
ENDCHAR
STARTCHAR uni1E6A
ENCODING 7786
SWIDTH 600 0
DWIDTH 5 0
BBX 4 9 1 0
BITMAP
20
00
F0
40
40
40
40
40
40
ENDCHAR
STARTCHAR uni1E6B
ENCODING 7787
SWIDTH 600 0
DWIDTH 5 0
BBX 3 9 1 0
BITMAP
40
00
40
40
E0
40
80
A0
60
ENDCHAR
STARTCHAR uni1E6C
ENCODING 7788
SWIDTH 600 0
DWIDTH 5 0
BBX 4 9 1 -2
BITMAP
F0
40
40
40
40
40
40
00
80
ENDCHAR
STARTCHAR uni1E6D
ENCODING 7789
SWIDTH 600 0
DWIDTH 5 0
BBX 3 9 1 -2
BITMAP
40
40
E0
40
80
A0
60
00
40
ENDCHAR
STARTCHAR uni1E6E
ENCODING 7790
SWIDTH 600 0
DWIDTH 5 0
BBX 5 9 0 -2
BITMAP
78
20
20
20
20
20
20
00
E0
ENDCHAR
STARTCHAR uni1E6F
ENCODING 7791
SWIDTH 600 0
DWIDTH 5 0
BBX 4 9 0 -2
BITMAP
20
20
70
20
40
50
30
00
E0
ENDCHAR
STARTCHAR uni1E70
ENCODING 7792
SWIDTH 600 0
DWIDTH 5 0
BBX 5 10 0 -3
BITMAP
78
20
20
20
20
20
20
00
40
A0
ENDCHAR
STARTCHAR uni1E71
ENCODING 7793
SWIDTH 600 0
DWIDTH 5 0
BBX 3 10 1 -3
BITMAP
40
40
E0
40
80
A0
60
00
40
A0
ENDCHAR
STARTCHAR uni1E72
ENCODING 7794
SWIDTH 600 0
DWIDTH 5 0
BBX 5 9 0 -2
BITMAP
48
48
50
50
90
90
60
00
A0
ENDCHAR
STARTCHAR uni1E73
ENCODING 7795
SWIDTH 600 0
DWIDTH 5 0
BBX 4 7 0 -2
BITMAP
50
50
90
90
70
00
A0
ENDCHAR
STARTCHAR uni1E74
ENCODING 7796
SWIDTH 600 0
DWIDTH 5 0
BBX 5 9 0 -2
BITMAP
48
48
50
50
90
90
60
60
A0
ENDCHAR
STARTCHAR uni1E75
ENCODING 7797
SWIDTH 600 0
DWIDTH 5 0
BBX 4 7 0 -2
BITMAP
50
50
90
90
70
60
A0
ENDCHAR
STARTCHAR uni1E76
ENCODING 7798
SWIDTH 600 0
DWIDTH 5 0
BBX 5 10 0 -3
BITMAP
48
48
50
50
90
90
60
00
40
A0
ENDCHAR
STARTCHAR uni1E77
ENCODING 7799
SWIDTH 600 0
DWIDTH 5 0
BBX 4 8 0 -3
BITMAP
50
50
90
90
70
00
40
A0
ENDCHAR
STARTCHAR uni1E78
ENCODING 7800
SWIDTH 600 0
DWIDTH 5 0
BBX 4 10 1 0
BITMAP
10
F0
00
90
90
A0
A0
A0
A0
C0
ENDCHAR
STARTCHAR uni1E79
ENCODING 7801
SWIDTH 600 0
DWIDTH 5 0
BBX 5 8 0 0
BITMAP
38
50
00
50
50
90
90
70
ENDCHAR
STARTCHAR uni1E7A
ENCODING 7802
SWIDTH 600 0
DWIDTH 5 0
BBX 4 10 1 0
BITMAP
50
70
00
90
90
A0
A0
A0
A0
C0
ENDCHAR
STARTCHAR uni1E7B
ENCODING 7803
SWIDTH 600 0
DWIDTH 5 0
BBX 5 9 0 0
BITMAP
28
00
70
00
50
50
90
90
70
ENDCHAR
STARTCHAR uni1E7C
ENCODING 7804
SWIDTH 600 0
DWIDTH 5 0
BBX 4 9 1 0
BITMAP
F0
00
90
A0
A0
A0
C0
C0
40
ENDCHAR
STARTCHAR uni1E7D
ENCODING 7805
SWIDTH 600 0
DWIDTH 5 0
BBX 4 8 1 0
BITMAP
50
A0
00
B0
A0
A0
C0
C0
ENDCHAR
STARTCHAR uni1E7E
ENCODING 7806
SWIDTH 600 0
DWIDTH 5 0
BBX 4 9 1 -2
BITMAP
90
A0
A0
A0
C0
C0
40
00
80
ENDCHAR
STARTCHAR uni1E7F
ENCODING 7807
SWIDTH 600 0
DWIDTH 5 0
BBX 4 7 1 -2
BITMAP
B0
A0
A0
C0
C0
00
80
ENDCHAR
STARTCHAR uni1E80
ENCODING 7808
SWIDTH 600 0
DWIDTH 5 0
BBX 4 8 1 0
BITMAP
40
B0
90
E0
A0
A0
A0
C0
ENDCHAR
STARTCHAR uni1E81
ENCODING 7809
SWIDTH 600 0
DWIDTH 5 0
BBX 4 6 1 0
BITMAP
40
90
E0
E0
E0
C0
ENDCHAR
STARTCHAR uni1E82
ENCODING 7810
SWIDTH 600 0
DWIDTH 5 0
BBX 4 8 1 0
BITMAP
20
D0
90
E0
A0
A0
A0
C0
ENDCHAR
STARTCHAR uni1E83
ENCODING 7811
SWIDTH 600 0
DWIDTH 5 0
BBX 4 6 1 0
BITMAP
20
D0
E0
E0
E0
C0
ENDCHAR
STARTCHAR uni1E84
ENCODING 7812
SWIDTH 600 0
DWIDTH 5 0
BBX 4 9 1 0
BITMAP
50
00
90
90
E0
A0
A0
A0
C0
ENDCHAR
STARTCHAR uni1E85
ENCODING 7813
SWIDTH 600 0
DWIDTH 5 0
BBX 4 7 1 0
BITMAP
A0
00
90
E0
E0
E0
C0
ENDCHAR
STARTCHAR uni1E86
ENCODING 7814
SWIDTH 600 0
DWIDTH 5 0
BBX 4 9 1 0
BITMAP
20
00
90
90
E0
A0
A0
A0
C0
ENDCHAR
STARTCHAR uni1E87
ENCODING 7815
SWIDTH 600 0
DWIDTH 5 0
BBX 4 7 1 0
BITMAP
40
00
90
E0
E0
E0
C0
ENDCHAR
STARTCHAR uni1E88
ENCODING 7816
SWIDTH 600 0
DWIDTH 5 0
BBX 4 9 1 -2
BITMAP
90
90
E0
A0
A0
A0
C0
00
80
ENDCHAR
STARTCHAR uni1E89
ENCODING 7817
SWIDTH 600 0
DWIDTH 5 0
BBX 4 7 1 -2
BITMAP
90
E0
E0
E0
C0
00
80
ENDCHAR
STARTCHAR uni1E8A
ENCODING 7818
SWIDTH 600 0
DWIDTH 5 0
BBX 5 9 0 0
BITMAP
10
00
48
50
20
20
20
60
90
ENDCHAR
STARTCHAR uni1E8B
ENCODING 7819
SWIDTH 600 0
DWIDTH 5 0
BBX 4 7 0 0
BITMAP
20
00
50
60
20
60
90
ENDCHAR
STARTCHAR uni1E8C
ENCODING 7820
SWIDTH 600 0
DWIDTH 5 0
BBX 5 9 0 0
BITMAP
28
00
48
50
20
20
20
60
90
ENDCHAR
STARTCHAR uni1E8D
ENCODING 7821
SWIDTH 600 0
DWIDTH 5 0
BBX 4 7 0 0
BITMAP
50
00
50
60
20
60
90
ENDCHAR
STARTCHAR uni1E8E
ENCODING 7822
SWIDTH 600 0
DWIDTH 5 0
BBX 4 9 1 0
BITMAP
20
00
90
A0
A0
40
40
40
40
ENDCHAR
STARTCHAR uni1E8F
ENCODING 7823
SWIDTH 600 0
DWIDTH 5 0
BBX 4 9 0 -2
BITMAP
20
00
50
50
90
90
70
10
E0
ENDCHAR
STARTCHAR uni1E90
ENCODING 7824
SWIDTH 600 0
DWIDTH 5 0
BBX 5 9 0 0
BITMAP
10
30
78
10
10
20
40
40
F0
ENDCHAR
STARTCHAR uni1E91
ENCODING 7825
SWIDTH 600 0
DWIDTH 5 0
BBX 4 7 0 0
BITMAP
30
50
70
10
20
40
F0
ENDCHAR
STARTCHAR uni1E92
ENCODING 7826
SWIDTH 600 0
DWIDTH 5 0
BBX 5 9 0 -2
BITMAP
78
10
10
20
40
40
F0
00
40
ENDCHAR
STARTCHAR uni1E93
ENCODING 7827
SWIDTH 600 0
DWIDTH 5 0
BBX 4 7 0 -2
BITMAP
70
10
20
40
F0
00
40
ENDCHAR
STARTCHAR uni1E94
ENCODING 7828
SWIDTH 600 0
DWIDTH 5 0
BBX 5 9 0 -2
BITMAP
78
10
10
20
40
40
F0
00
E0
ENDCHAR
STARTCHAR uni1E95
ENCODING 7829
SWIDTH 600 0
DWIDTH 5 0
BBX 4 7 0 -2
BITMAP
70
10
20
40
F0
00
E0
ENDCHAR
STARTCHAR uni1E96
ENCODING 7830
SWIDTH 600 0
DWIDTH 5 0
BBX 4 9 0 -2
BITMAP
40
40
70
50
90
90
90
00
E0
ENDCHAR
STARTCHAR uni1E97
ENCODING 7831
SWIDTH 600 0
DWIDTH 5 0
BBX 4 9 1 0
BITMAP
50
00
40
40
E0
40
80
A0
60
ENDCHAR
STARTCHAR uni1E98
ENCODING 7832
SWIDTH 600 0
DWIDTH 5 0
BBX 4 7 1 0
BITMAP
60
40
90
E0
E0
E0
C0
ENDCHAR
STARTCHAR uni1E99
ENCODING 7833
SWIDTH 600 0
DWIDTH 5 0
BBX 4 9 0 -2
BITMAP
30
20
50
50
90
90
70
10
E0
ENDCHAR
STARTCHAR uni1E9A
ENCODING 7834
SWIDTH 600 0
DWIDTH 5 0
BBX 5 7 0 0
BITMAP
08
08
70
50
90
90
70
ENDCHAR
STARTCHAR uni1E9B
ENCODING 7835
SWIDTH 600 0
DWIDTH 5 0
BBX 4 11 0 -2
BITMAP
10
00
10
20
20
20
20
20
20
40
C0
ENDCHAR
STARTCHAR uni1E9C
ENCODING 7836
SWIDTH 600 0
DWIDTH 5 0
BBX 4 9 0 -2
BITMAP
10
20
20
20
30
40
20
40
C0
ENDCHAR
STARTCHAR uni1E9D
ENCODING 7837
SWIDTH 600 0
DWIDTH 5 0
BBX 4 9 0 -2
BITMAP
10
20
70
20
20
20
20
40
C0
ENDCHAR
STARTCHAR uni1E9E
ENCODING 7838
SWIDTH 600 0
DWIDTH 5 0
BBX 5 7 0 0
BITMAP
38
50
50
70
90
90
E0
ENDCHAR
STARTCHAR uni1E9F
ENCODING 7839
SWIDTH 600 0
DWIDTH 5 0
BBX 4 7 0 0
BITMAP
30
40
60
50
90
90
60
ENDCHAR
STARTCHAR uni1EA0
ENCODING 7840
SWIDTH 600 0
DWIDTH 5 0
BBX 4 9 0 -2
BITMAP
20
20
50
50
70
90
90
00
40
ENDCHAR
STARTCHAR uni1EA1
ENCODING 7841
SWIDTH 600 0
DWIDTH 5 0
BBX 4 7 0 -2
BITMAP
70
50
90
90
70
00
40
ENDCHAR
STARTCHAR uni1EA2
ENCODING 7842
SWIDTH 600 0
DWIDTH 5 0
BBX 4 8 0 0
BITMAP
30
20
20
50
50
70
90
90
ENDCHAR
STARTCHAR uni1EA3
ENCODING 7843
SWIDTH 600 0
DWIDTH 5 0
BBX 4 7 0 0
BITMAP
30
10
70
50
90
90
70
ENDCHAR
STARTCHAR uni1EA4
ENCODING 7844
SWIDTH 600 0
DWIDTH 5 0
BBX 5 10 0 0
BITMAP
08
10
30
20
20
50
50
70
90
90
ENDCHAR
STARTCHAR uni1EA5
ENCODING 7845
SWIDTH 600 0
DWIDTH 5 0
BBX 4 8 0 0
BITMAP
10
30
50
70
50
90
90
70
ENDCHAR
STARTCHAR uni1EA6
ENCODING 7846
SWIDTH 600 0
DWIDTH 5 0
BBX 4 9 0 0
BITMAP
30
30
20
20
50
50
70
90
90
ENDCHAR
STARTCHAR uni1EA7
ENCODING 7847
SWIDTH 600 0
DWIDTH 5 0
BBX 4 8 0 0
BITMAP
20
30
50
70
50
90
90
70
ENDCHAR
STARTCHAR uni1EA8
ENCODING 7848
SWIDTH 600 0
DWIDTH 5 0
BBX 4 10 0 0
BITMAP
10
10
30
20
20
50
50
70
90
90
ENDCHAR
STARTCHAR uni1EA9
ENCODING 7849
SWIDTH 600 0
DWIDTH 5 0
BBX 4 8 0 0
BITMAP
30
30
50
70
50
90
90
70
ENDCHAR
STARTCHAR uni1EAA
ENCODING 7850
SWIDTH 600 0
DWIDTH 5 0
BBX 5 11 0 0
BITMAP
38
30
10
30
20
20
50
50
70
90
90
ENDCHAR
STARTCHAR uni1EAB
ENCODING 7851
SWIDTH 600 0
DWIDTH 5 0
BBX 5 9 0 0
BITMAP
78
00
30
50
70
50
90
90
70
ENDCHAR
STARTCHAR uni1EAC
ENCODING 7852
SWIDTH 600 0
DWIDTH 5 0
BBX 4 11 0 -2
BITMAP
10
30
20
20
50
50
70
90
90
00
40
ENDCHAR
STARTCHAR uni1EAD
ENCODING 7853
SWIDTH 600 0
DWIDTH 5 0
BBX 4 9 0 -2
BITMAP
30
50
70
50
90
90
70
00
40
ENDCHAR
STARTCHAR uni1EAE
ENCODING 7854
SWIDTH 600 0
DWIDTH 5 0
BBX 5 10 0 0
BITMAP
08
18
30
20
20
50
50
70
90
90
ENDCHAR
STARTCHAR uni1EAF
ENCODING 7855
SWIDTH 600 0
DWIDTH 5 0
BBX 4 8 0 0
BITMAP
10
70
30
70
50
90
90
70
ENDCHAR
STARTCHAR uni1EB0
ENCODING 7856
SWIDTH 600 0
DWIDTH 5 0
BBX 5 9 0 0
BITMAP
38
30
20
20
50
50
70
90
90
ENDCHAR
STARTCHAR uni1EB1
ENCODING 7857
SWIDTH 600 0
DWIDTH 5 0
BBX 4 8 0 0
BITMAP
20
50
30
70
50
90
90
70
ENDCHAR
STARTCHAR uni1EB2
ENCODING 7858
SWIDTH 600 0
DWIDTH 5 0
BBX 5 10 0 0
BITMAP
18
18
30
20
20
50
50
70
90
90
ENDCHAR
STARTCHAR uni1EB3
ENCODING 7859
SWIDTH 600 0
DWIDTH 5 0
BBX 4 8 0 0
BITMAP
30
50
30
70
50
90
90
70
ENDCHAR
STARTCHAR uni1EB4
ENCODING 7860
SWIDTH 600 0
DWIDTH 5 0
BBX 5 11 0 0
BITMAP
38
30
08
30
20
20
50
50
70
90
90
ENDCHAR
STARTCHAR uni1EB5
ENCODING 7861
SWIDTH 600 0
DWIDTH 5 0
BBX 5 9 0 0
BITMAP
78
00
48
30
70
50
90
90
70
ENDCHAR
STARTCHAR uni1EB6
ENCODING 7862
SWIDTH 600 0
DWIDTH 5 0
BBX 5 10 0 -2
BITMAP
38
20
20
50
50
70
90
90
00
40
ENDCHAR
STARTCHAR uni1EB7
ENCODING 7863
SWIDTH 600 0
DWIDTH 5 0
BBX 4 9 0 -2
BITMAP
50
30
70
50
90
90
70
00
40
ENDCHAR
STARTCHAR uni1EB8
ENCODING 7864
SWIDTH 600 0
DWIDTH 5 0
BBX 5 9 0 -2
BITMAP
78
40
40
70
40
80
F0
00
40
ENDCHAR
STARTCHAR uni1EB9
ENCODING 7865
SWIDTH 600 0
DWIDTH 5 0
BBX 4 7 0 -2
BITMAP
70
50
70
90
60
00
40
ENDCHAR
STARTCHAR uni1EBA
ENCODING 7866
SWIDTH 600 0
DWIDTH 5 0
BBX 5 8 0 0
BITMAP
30
78
40
40
70
40
80
F0
ENDCHAR
STARTCHAR uni1EBB
ENCODING 7867
SWIDTH 600 0
DWIDTH 5 0
BBX 4 7 0 0
BITMAP
30
10
70
50
70
90
60
ENDCHAR
STARTCHAR uni1EBC
ENCODING 7868
SWIDTH 600 0
DWIDTH 5 0
BBX 5 9 0 0
BITMAP
78
00
78
40
40
70
40
80
F0
ENDCHAR
STARTCHAR uni1EBD
ENCODING 7869
SWIDTH 600 0
DWIDTH 5 0
BBX 5 8 0 0
BITMAP
28
50
00
70
50
70
90
60
ENDCHAR
STARTCHAR uni1EBE
ENCODING 7870
SWIDTH 600 0
DWIDTH 5 0
BBX 5 10 0 0
BITMAP
08
10
30
78
40
40
70
40
80
F0
ENDCHAR
STARTCHAR uni1EBF
ENCODING 7871
SWIDTH 600 0
DWIDTH 5 0
BBX 4 8 0 0
BITMAP
10
30
50
70
50
70
90
60
ENDCHAR
STARTCHAR uni1EC0
ENCODING 7872
SWIDTH 600 0
DWIDTH 5 0
BBX 5 9 0 0
BITMAP
30
30
78
40
40
70
40
80
F0
ENDCHAR
STARTCHAR uni1EC1
ENCODING 7873
SWIDTH 600 0
DWIDTH 5 0
BBX 4 8 0 0
BITMAP
20
30
50
70
50
70
90
60
ENDCHAR
STARTCHAR uni1EC2
ENCODING 7874
SWIDTH 600 0
DWIDTH 5 0
BBX 5 10 0 0
BITMAP
18
10
30
78
40
40
70
40
80
F0
ENDCHAR
STARTCHAR uni1EC3
ENCODING 7875
SWIDTH 600 0
DWIDTH 5 0
BBX 4 8 0 0
BITMAP
30
30
50
70
50
70
90
60
ENDCHAR
STARTCHAR uni1EC4
ENCODING 7876
SWIDTH 600 0
DWIDTH 5 0
BBX 5 11 0 0
BITMAP
38
30
10
30
78
40
40
70
40
80
F0
ENDCHAR
STARTCHAR uni1EC5
ENCODING 7877
SWIDTH 600 0
DWIDTH 5 0
BBX 5 9 0 0
BITMAP
78
00
30
50
70
50
70
90
60
ENDCHAR
STARTCHAR uni1EC6
ENCODING 7878
SWIDTH 600 0
DWIDTH 5 0
BBX 5 11 0 -2
BITMAP
10
30
78
40
40
70
40
80
F0
00
40
ENDCHAR
STARTCHAR uni1EC7
ENCODING 7879
SWIDTH 600 0
DWIDTH 5 0
BBX 4 9 0 -2
BITMAP
30
50
70
50
70
90
60
00
40
ENDCHAR
STARTCHAR uni1EC8
ENCODING 7880
SWIDTH 600 0
DWIDTH 5 0
BBX 4 8 0 0
BITMAP
30
70
20
20
20
20
20
F0
ENDCHAR
STARTCHAR uni1EC9
ENCODING 7881
SWIDTH 600 0
DWIDTH 5 0
BBX 3 7 1 0
BITMAP
60
40
C0
40
40
A0
60
ENDCHAR
STARTCHAR uni1ECA
ENCODING 7882
SWIDTH 600 0
DWIDTH 5 0
BBX 4 9 0 -2
BITMAP
70
20
20
20
20
20
F0
00
40
ENDCHAR
STARTCHAR uni1ECB
ENCODING 7883
SWIDTH 600 0
DWIDTH 5 0
BBX 3 9 1 -2
BITMAP
40
00
C0
40
40
A0
60
00
80
ENDCHAR
STARTCHAR uni1ECC
ENCODING 7884
SWIDTH 600 0
DWIDTH 5 0
BBX 4 9 0 -2
BITMAP
30
50
50
50
90
90
60
00
40
ENDCHAR
STARTCHAR uni1ECD
ENCODING 7885
SWIDTH 600 0
DWIDTH 5 0
BBX 4 7 0 -2
BITMAP
70
50
90
90
60
00
40
ENDCHAR
STARTCHAR uni1ECE
ENCODING 7886
SWIDTH 600 0
DWIDTH 5 0
BBX 4 8 0 0
BITMAP
30
30
50
50
50
90
90
60
ENDCHAR
STARTCHAR uni1ECF
ENCODING 7887
SWIDTH 600 0
DWIDTH 5 0
BBX 4 7 0 0
BITMAP
30
10
70
50
90
90
60
ENDCHAR
STARTCHAR uni1ED0
ENCODING 7888
SWIDTH 600 0
DWIDTH 5 0
BBX 5 10 0 0
BITMAP
08
10
30
30
48
48
50
90
90
60
ENDCHAR
STARTCHAR uni1ED1
ENCODING 7889
SWIDTH 600 0
DWIDTH 5 0
BBX 4 8 0 0
BITMAP
10
30
50
70
50
90
90
60
ENDCHAR
STARTCHAR uni1ED2
ENCODING 7890
SWIDTH 600 0
DWIDTH 5 0
BBX 4 9 0 0
BITMAP
30
30
30
50
50
50
90
90
60
ENDCHAR
STARTCHAR uni1ED3
ENCODING 7891
SWIDTH 600 0
DWIDTH 5 0
BBX 4 8 0 0
BITMAP
20
30
50
70
50
90
90
60
ENDCHAR
STARTCHAR uni1ED4
ENCODING 7892
SWIDTH 600 0
DWIDTH 5 0
BBX 4 10 0 0
BITMAP
10
10
30
30
50
50
50
90
90
60
ENDCHAR
STARTCHAR uni1ED5
ENCODING 7893
SWIDTH 600 0
DWIDTH 5 0
BBX 4 8 0 0
BITMAP
30
30
50
70
50
90
90
60
ENDCHAR
STARTCHAR uni1ED6
ENCODING 7894
SWIDTH 600 0
DWIDTH 5 0
BBX 5 11 0 0
BITMAP
38
30
10
30
30
48
48
50
90
90
60
ENDCHAR
STARTCHAR uni1ED7
ENCODING 7895
SWIDTH 600 0
DWIDTH 5 0
BBX 5 9 0 0
BITMAP
78
00
30
50
70
50
90
90
60
ENDCHAR
STARTCHAR uni1ED8
ENCODING 7896
SWIDTH 600 0
DWIDTH 5 0
BBX 4 11 0 -2
BITMAP
10
30
30
50
50
50
90
90
60
00
40
ENDCHAR
STARTCHAR uni1ED9
ENCODING 7897
SWIDTH 600 0
DWIDTH 5 0
BBX 4 9 0 -2
BITMAP
30
50
70
50
90
90
60
00
40
ENDCHAR
STARTCHAR uni1EDA
ENCODING 7898
SWIDTH 600 0
DWIDTH 5 0
BBX 6 9 0 0
BITMAP
04
14
38
48
50
50
90
90
60
ENDCHAR
STARTCHAR uni1EDB
ENCODING 7899
SWIDTH 600 0
DWIDTH 5 0
BBX 5 7 0 0
BITMAP
08
18
78
50
90
90
60
ENDCHAR
STARTCHAR uni1EDC
ENCODING 7900
SWIDTH 600 0
DWIDTH 5 0
BBX 6 9 0 0
BITMAP
04
24
38
48
50
50
90
90
60
ENDCHAR
STARTCHAR uni1EDD
ENCODING 7901
SWIDTH 600 0
DWIDTH 5 0
BBX 5 7 0 0
BITMAP
08
28
78
50
90
90
60
ENDCHAR
STARTCHAR uni1EDE
ENCODING 7902
SWIDTH 600 0
DWIDTH 5 0
BBX 6 9 0 0
BITMAP
24
14
38
48
50
50
90
90
60
ENDCHAR
STARTCHAR uni1EDF
ENCODING 7903
SWIDTH 600 0
DWIDTH 5 0
BBX 5 7 0 0
BITMAP
38
18
78
50
90
90
60
ENDCHAR
STARTCHAR uni1EE0
ENCODING 7904
SWIDTH 600 0
DWIDTH 5 0
BBX 6 9 0 0
BITMAP
78
04
38
48
50
50
90
90
60
ENDCHAR
STARTCHAR uni1EE1
ENCODING 7905
SWIDTH 600 0
DWIDTH 5 0
BBX 5 8 0 0
BITMAP
28
58
08
78
50
90
90
60
ENDCHAR
STARTCHAR uni1EE2
ENCODING 7906
SWIDTH 600 0
DWIDTH 5 0
BBX 6 11 0 -2
BITMAP
04
04
38
48
50
50
90
90
60
00
40
ENDCHAR
STARTCHAR uni1EE3
ENCODING 7907
SWIDTH 600 0
DWIDTH 5 0
BBX 5 9 0 -2
BITMAP
08
08
78
50
90
90
60
00
40
ENDCHAR
STARTCHAR uni1EE4
ENCODING 7908
SWIDTH 600 0
DWIDTH 5 0
BBX 4 9 1 -2
BITMAP
90
90
A0
A0
A0
A0
C0
00
80
ENDCHAR
STARTCHAR uni1EE5
ENCODING 7909
SWIDTH 600 0
DWIDTH 5 0
BBX 4 7 0 -2
BITMAP
50
50
90
90
70
00
40
ENDCHAR
STARTCHAR uni1EE6
ENCODING 7910
SWIDTH 600 0
DWIDTH 5 0
BBX 4 8 1 0
BITMAP
60
90
90
A0
A0
A0
A0
C0
ENDCHAR
STARTCHAR uni1EE7
ENCODING 7911
SWIDTH 600 0
DWIDTH 5 0
BBX 4 7 0 0
BITMAP
30
30
50
50
90
90
70
ENDCHAR
STARTCHAR uni1EE8
ENCODING 7912
SWIDTH 600 0
DWIDTH 5 0
BBX 5 8 1 0
BITMAP
28
D0
90
A0
A0
A0
A0
C0
ENDCHAR
STARTCHAR uni1EE9
ENCODING 7913
SWIDTH 600 0
DWIDTH 5 0
BBX 5 6 0 0
BITMAP
18
68
50
90
90
70
ENDCHAR
STARTCHAR uni1EEA
ENCODING 7914
SWIDTH 600 0
DWIDTH 5 0
BBX 5 8 1 0
BITMAP
48
B0
90
A0
A0
A0
A0
C0
ENDCHAR
STARTCHAR uni1EEB
ENCODING 7915
SWIDTH 600 0
DWIDTH 5 0
BBX 5 6 0 0
BITMAP
28
48
50
90
90
70
ENDCHAR
STARTCHAR uni1EEC
ENCODING 7916
SWIDTH 600 0
DWIDTH 5 0
BBX 5 8 1 0
BITMAP
68
90
90
A0
A0
A0
A0
C0
ENDCHAR
STARTCHAR uni1EED
ENCODING 7917
SWIDTH 600 0
DWIDTH 5 0
BBX 5 7 0 0
BITMAP
30
38
48
50
90
90
70
ENDCHAR
STARTCHAR uni1EEE
ENCODING 7918
SWIDTH 600 0
DWIDTH 5 0
BBX 5 9 1 0
BITMAP
F0
08
90
90
A0
A0
A0
A0
C0
ENDCHAR
STARTCHAR uni1EEF
ENCODING 7919
SWIDTH 600 0
DWIDTH 5 0
BBX 5 8 0 0
BITMAP
28
50
08
48
50
90
90
70
ENDCHAR
STARTCHAR uni1EF0
ENCODING 7920
SWIDTH 600 0
DWIDTH 5 0
BBX 5 10 1 -2
BITMAP
08
90
90
A0
A0
A0
A0
C0
00
80
ENDCHAR
STARTCHAR uni1EF1
ENCODING 7921
SWIDTH 600 0
DWIDTH 5 0
BBX 5 8 0 -2
BITMAP
08
48
50
90
90
70
00
40
ENDCHAR
STARTCHAR uni1EF2
ENCODING 7922
SWIDTH 600 0
DWIDTH 5 0
BBX 4 8 1 0
BITMAP
40
B0
A0
A0
40
40
40
40
ENDCHAR
STARTCHAR uni1EF3
ENCODING 7923
SWIDTH 600 0
DWIDTH 5 0
BBX 4 8 0 -2
BITMAP
20
50
50
90
90
70
10
E0
ENDCHAR
STARTCHAR uni1EF4
ENCODING 7924
SWIDTH 600 0
DWIDTH 5 0
BBX 4 9 1 -2
BITMAP
90
A0
A0
40
40
40
40
00
80
ENDCHAR
STARTCHAR uni1EF5
ENCODING 7925
SWIDTH 600 0
DWIDTH 5 0
BBX 4 9 0 -4
BITMAP
50
50
90
90
70
10
E0
00
40
ENDCHAR
STARTCHAR uni1EF6
ENCODING 7926
SWIDTH 600 0
DWIDTH 5 0
BBX 4 8 1 0
BITMAP
60
90
A0
A0
40
40
40
40
ENDCHAR
STARTCHAR uni1EF7
ENCODING 7927
SWIDTH 600 0
DWIDTH 5 0
BBX 4 9 0 -2
BITMAP
30
30
50
50
90
90
70
10
E0
ENDCHAR
STARTCHAR uni1EF8
ENCODING 7928
SWIDTH 600 0
DWIDTH 5 0
BBX 4 9 1 0
BITMAP
F0
00
90
A0
A0
40
40
40
40
ENDCHAR
STARTCHAR uni1EF9
ENCODING 7929
SWIDTH 600 0
DWIDTH 5 0
BBX 5 10 0 -2
BITMAP
28
50
00
50
50
90
90
70
10
E0
ENDCHAR
STARTCHAR uni1EFA
ENCODING 7930
SWIDTH 600 0
DWIDTH 5 0
BBX 3 7 1 0
BITMAP
C0
C0
C0
C0
C0
C0
E0
ENDCHAR
STARTCHAR uni1EFB
ENCODING 7931
SWIDTH 600 0
DWIDTH 5 0
BBX 5 7 0 0
BITMAP
50
50
F8
50
60
60
58
ENDCHAR
STARTCHAR uni1EFC
ENCODING 7932
SWIDTH 600 0
DWIDTH 5 0
BBX 4 7 0 0
BITMAP
20
40
40
50
90
90
60
ENDCHAR
STARTCHAR uni1EFD
ENCODING 7933
SWIDTH 600 0
DWIDTH 5 0
BBX 4 7 0 0
BITMAP
20
20
40
50
90
90
60
ENDCHAR
STARTCHAR uni1EFE
ENCODING 7934
SWIDTH 600 0
DWIDTH 5 0
BBX 5 7 0 0
BITMAP
48
50
50
20
60
C0
C0
ENDCHAR
STARTCHAR uni1EFF
ENCODING 7935
SWIDTH 600 0
DWIDTH 5 0
BBX 4 7 0 -2
BITMAP
50
50
50
60
C0
C0
C0
ENDCHAR
STARTCHAR uni1F00
ENCODING 7936
SWIDTH 600 0
DWIDTH 5 0
BBX 4 7 0 0
BITMAP
20
20
70
90
90
90
70
ENDCHAR
STARTCHAR uni1F01
ENCODING 7937
SWIDTH 600 0
DWIDTH 5 0
BBX 4 7 0 0
BITMAP
20
20
70
90
90
90
70
ENDCHAR
STARTCHAR uni1F02
ENCODING 7938
SWIDTH 600 0
DWIDTH 5 0
BBX 4 7 0 0
BITMAP
20
50
70
90
90
90
70
ENDCHAR
STARTCHAR uni1F03
ENCODING 7939
SWIDTH 600 0
DWIDTH 5 0
BBX 4 7 0 0
BITMAP
20
30
70
90
90
90
70
ENDCHAR
STARTCHAR uni1F04
ENCODING 7940
SWIDTH 600 0
DWIDTH 5 0
BBX 4 7 0 0
BITMAP
20
50
70
90
90
90
70
ENDCHAR
STARTCHAR uni1F05
ENCODING 7941
SWIDTH 600 0
DWIDTH 5 0
BBX 4 7 0 0
BITMAP
20
30
70
90
90
90
70
ENDCHAR
STARTCHAR uni1F06
ENCODING 7942
SWIDTH 600 0
DWIDTH 5 0
BBX 4 8 0 0
BITMAP
30
20
20
70
90
90
90
70
ENDCHAR
STARTCHAR uni1F07
ENCODING 7943
SWIDTH 600 0
DWIDTH 5 0
BBX 4 8 0 0
BITMAP
30
20
20
70
90
90
90
70
ENDCHAR
STARTCHAR uni1F08
ENCODING 7944
SWIDTH 600 0
DWIDTH 5 0
BBX 4 7 0 0
BITMAP
60
20
50
50
70
90
90
ENDCHAR
STARTCHAR uni1F09
ENCODING 7945
SWIDTH 600 0
DWIDTH 5 0
BBX 4 7 0 0
BITMAP
60
20
50
50
70
90
90
ENDCHAR
STARTCHAR uni1F0A
ENCODING 7946
SWIDTH 600 0
DWIDTH 5 0
BBX 5 7 -1 0
BITMAP
B0
30
28
28
38
48
48
ENDCHAR
STARTCHAR uni1F0B
ENCODING 7947
SWIDTH 600 0
DWIDTH 5 0
BBX 5 7 -1 0
BITMAP
B0
30
28
28
38
48
48
ENDCHAR
STARTCHAR uni1F0C
ENCODING 7948
SWIDTH 600 0
DWIDTH 5 0
BBX 5 7 -1 0
BITMAP
B0
30
28
28
38
48
48
ENDCHAR
STARTCHAR uni1F0D
ENCODING 7949
SWIDTH 600 0
DWIDTH 5 0
BBX 5 7 -1 0
BITMAP
B0
30
28
28
38
48
48
ENDCHAR
STARTCHAR uni1F0E
ENCODING 7950
SWIDTH 600 0
DWIDTH 5 0
BBX 4 8 0 0
BITMAP
C0
60
20
50
50
70
90
90
ENDCHAR
STARTCHAR uni1F0F
ENCODING 7951
SWIDTH 600 0
DWIDTH 5 0
BBX 4 8 0 0
BITMAP
C0
60
20
50
50
70
90
90
ENDCHAR
STARTCHAR uni1F10
ENCODING 7952
SWIDTH 600 0
DWIDTH 5 0
BBX 4 7 0 0
BITMAP
20
20
70
40
60
80
70
ENDCHAR
STARTCHAR uni1F11
ENCODING 7953
SWIDTH 600 0
DWIDTH 5 0
BBX 4 7 0 0
BITMAP
20
20
70
40
60
80
70
ENDCHAR
STARTCHAR uni1F12
ENCODING 7954
SWIDTH 600 0
DWIDTH 5 0
BBX 4 7 0 0
BITMAP
20
50
70
40
60
80
70
ENDCHAR
STARTCHAR uni1F13
ENCODING 7955
SWIDTH 600 0
DWIDTH 5 0
BBX 4 7 0 0
BITMAP
20
30
70
40
60
80
70
ENDCHAR
STARTCHAR uni1F14
ENCODING 7956
SWIDTH 600 0
DWIDTH 5 0
BBX 4 7 0 0
BITMAP
20
50
70
40
60
80
70
ENDCHAR
STARTCHAR uni1F15
ENCODING 7957
SWIDTH 600 0
DWIDTH 5 0
BBX 4 7 0 0
BITMAP
20
30
70
40
60
80
70
ENDCHAR
STARTCHAR uni1F18
ENCODING 7960
SWIDTH 600 0
DWIDTH 5 0
BBX 5 7 0 0
BITMAP
F8
40
40
70
40
80
F0
ENDCHAR
STARTCHAR uni1F19
ENCODING 7961
SWIDTH 600 0
DWIDTH 5 0
BBX 5 7 0 0
BITMAP
F8
40
40
70
40
80
F0
ENDCHAR
STARTCHAR uni1F1A
ENCODING 7962
SWIDTH 600 0
DWIDTH 5 0
BBX 6 7 -1 0
BITMAP
BC
60
20
38
20
40
78
ENDCHAR
STARTCHAR uni1F1B
ENCODING 7963
SWIDTH 600 0
DWIDTH 5 0
BBX 6 7 -1 0
BITMAP
BC
60
20
38
20
40
78
ENDCHAR
STARTCHAR uni1F1C
ENCODING 7964
SWIDTH 600 0
DWIDTH 5 0
BBX 6 7 -1 0
BITMAP
BC
60
20
38
20
40
78
ENDCHAR
STARTCHAR uni1F1D
ENCODING 7965
SWIDTH 600 0
DWIDTH 5 0
BBX 6 7 -1 0
BITMAP
BC
60
20
38
20
40
78
ENDCHAR
STARTCHAR uni1F20
ENCODING 7968
SWIDTH 600 0
DWIDTH 5 0
BBX 4 9 0 -2
BITMAP
20
20
70
50
90
90
90
10
10
ENDCHAR
STARTCHAR uni1F21
ENCODING 7969
SWIDTH 600 0
DWIDTH 5 0
BBX 4 9 0 -2
BITMAP
20
20
70
50
90
90
90
10
10
ENDCHAR
STARTCHAR uni1F22
ENCODING 7970
SWIDTH 600 0
DWIDTH 5 0
BBX 4 9 0 -2
BITMAP
20
50
70
50
90
90
90
10
10
ENDCHAR
STARTCHAR uni1F23
ENCODING 7971
SWIDTH 600 0
DWIDTH 5 0
BBX 4 9 0 -2
BITMAP
20
30
70
50
90
90
90
10
10
ENDCHAR
STARTCHAR uni1F24
ENCODING 7972
SWIDTH 600 0
DWIDTH 5 0
BBX 4 9 0 -2
BITMAP
20
50
70
50
90
90
90
10
10
ENDCHAR
STARTCHAR uni1F25
ENCODING 7973
SWIDTH 600 0
DWIDTH 5 0
BBX 4 9 0 -2
BITMAP
20
30
70
50
90
90
90
10
10
ENDCHAR
STARTCHAR uni1F26
ENCODING 7974
SWIDTH 600 0
DWIDTH 5 0
BBX 4 10 0 -2
BITMAP
30
20
20
70
50
90
90
90
10
10
ENDCHAR
STARTCHAR uni1F27
ENCODING 7975
SWIDTH 600 0
DWIDTH 5 0
BBX 4 10 0 -2
BITMAP
30
20
20
70
50
90
90
90
10
10
ENDCHAR
STARTCHAR uni1F28
ENCODING 7976
SWIDTH 600 0
DWIDTH 5 0
BBX 5 7 0 0
BITMAP
C8
48
50
70
90
90
90
ENDCHAR
STARTCHAR uni1F29
ENCODING 7977
SWIDTH 600 0
DWIDTH 5 0
BBX 5 7 0 0
BITMAP
C8
48
50
70
90
90
90
ENDCHAR
STARTCHAR uni1F2A
ENCODING 7978
SWIDTH 600 0
DWIDTH 5 0
BBX 6 7 -1 0
BITMAP
A4
64
28
38
48
48
48
ENDCHAR
STARTCHAR uni1F2B
ENCODING 7979
SWIDTH 600 0
DWIDTH 5 0
BBX 6 7 -1 0
BITMAP
A4
64
28
38
48
48
48
ENDCHAR
STARTCHAR uni1F2C
ENCODING 7980
SWIDTH 600 0
DWIDTH 5 0
BBX 6 7 -1 0
BITMAP
A4
64
28
38
48
48
48
ENDCHAR
STARTCHAR uni1F2D
ENCODING 7981
SWIDTH 600 0
DWIDTH 5 0
BBX 6 7 -1 0
BITMAP
A4
64
28
38
48
48
48
ENDCHAR
STARTCHAR uni1F2E
ENCODING 7982
SWIDTH 600 0
DWIDTH 5 0
BBX 6 8 -1 0
BITMAP
E0
64
24
28
38
48
48
48
ENDCHAR
STARTCHAR uni1F2F
ENCODING 7983
SWIDTH 600 0
DWIDTH 5 0
BBX 6 8 -1 0
BITMAP
E0
64
24
28
38
48
48
48
ENDCHAR
STARTCHAR uni1F30
ENCODING 7984
SWIDTH 600 0
DWIDTH 5 0
BBX 3 7 1 0
BITMAP
40
40
C0
40
40
A0
60
ENDCHAR
STARTCHAR uni1F31
ENCODING 7985
SWIDTH 600 0
DWIDTH 5 0
BBX 3 7 1 0
BITMAP
40
40
C0
40
40
A0
60
ENDCHAR
STARTCHAR uni1F32
ENCODING 7986
SWIDTH 600 0
DWIDTH 5 0
BBX 3 7 1 0
BITMAP
40
A0
C0
40
40
A0
60
ENDCHAR
STARTCHAR uni1F33
ENCODING 7987
SWIDTH 600 0
DWIDTH 5 0
BBX 3 7 1 0
BITMAP
40
60
C0
40
40
A0
60
ENDCHAR
STARTCHAR uni1F34
ENCODING 7988
SWIDTH 600 0
DWIDTH 5 0
BBX 3 7 1 0
BITMAP
40
A0
C0
40
40
A0
60
ENDCHAR
STARTCHAR uni1F35
ENCODING 7989
SWIDTH 600 0
DWIDTH 5 0
BBX 3 7 1 0
BITMAP
40
60
C0
40
40
A0
60
ENDCHAR
STARTCHAR uni1F36
ENCODING 7990
SWIDTH 600 0
DWIDTH 5 0
BBX 3 8 1 0
BITMAP
60
40
40
C0
40
40
A0
60
ENDCHAR
STARTCHAR uni1F37
ENCODING 7991
SWIDTH 600 0
DWIDTH 5 0
BBX 3 8 1 0
BITMAP
60
40
40
C0
40
40
A0
60
ENDCHAR
STARTCHAR uni1F38
ENCODING 7992
SWIDTH 600 0
DWIDTH 5 0
BBX 4 7 0 0
BITMAP
F0
20
20
20
20
20
F0
ENDCHAR
STARTCHAR uni1F39
ENCODING 7993
SWIDTH 600 0
DWIDTH 5 0
BBX 4 7 0 0
BITMAP
F0
20
20
20
20
20
F0
ENDCHAR
STARTCHAR uni1F3A
ENCODING 7994
SWIDTH 600 0
DWIDTH 5 0
BBX 5 7 -1 0
BITMAP
B8
50
10
10
10
10
78
ENDCHAR
STARTCHAR uni1F3B
ENCODING 7995
SWIDTH 600 0
DWIDTH 5 0
BBX 5 7 -1 0
BITMAP
B8
50
10
10
10
10
78
ENDCHAR
STARTCHAR uni1F3C
ENCODING 7996
SWIDTH 600 0
DWIDTH 5 0
BBX 5 7 -1 0
BITMAP
B8
50
10
10
10
10
78
ENDCHAR
STARTCHAR uni1F3D
ENCODING 7997
SWIDTH 600 0
DWIDTH 5 0
BBX 5 7 -1 0
BITMAP
B8
50
10
10
10
10
78
ENDCHAR
STARTCHAR uni1F3E
ENCODING 7998
SWIDTH 600 0
DWIDTH 5 0
BBX 5 8 -1 0
BITMAP
E0
78
10
10
10
10
10
78
ENDCHAR
STARTCHAR uni1F3F
ENCODING 7999
SWIDTH 600 0
DWIDTH 5 0
BBX 5 8 -1 0
BITMAP
E0
78
10
10
10
10
10
78
ENDCHAR
STARTCHAR uni1F40
ENCODING 8000
SWIDTH 600 0
DWIDTH 5 0
BBX 4 7 0 0
BITMAP
20
20
70
50
90
90
60
ENDCHAR
STARTCHAR uni1F41
ENCODING 8001
SWIDTH 600 0
DWIDTH 5 0
BBX 4 7 0 0
BITMAP
20
20
70
50
90
90
60
ENDCHAR
STARTCHAR uni1F42
ENCODING 8002
SWIDTH 600 0
DWIDTH 5 0
BBX 4 7 0 0
BITMAP
20
50
70
50
90
90
60
ENDCHAR
STARTCHAR uni1F43
ENCODING 8003
SWIDTH 600 0
DWIDTH 5 0
BBX 4 7 0 0
BITMAP
20
30
70
50
90
90
60
ENDCHAR
STARTCHAR uni1F44
ENCODING 8004
SWIDTH 600 0
DWIDTH 5 0
BBX 4 7 0 0
BITMAP
20
50
70
50
90
90
60
ENDCHAR
STARTCHAR uni1F45
ENCODING 8005
SWIDTH 600 0
DWIDTH 5 0
BBX 4 7 0 0
BITMAP
20
30
70
50
90
90
60
ENDCHAR
STARTCHAR uni1F48
ENCODING 8008
SWIDTH 600 0
DWIDTH 5 0
BBX 4 7 0 0
BITMAP
B0
50
50
50
90
90
60
ENDCHAR
STARTCHAR uni1F49
ENCODING 8009
SWIDTH 600 0
DWIDTH 5 0
BBX 4 7 0 0
BITMAP
B0
50
50
50
90
90
60
ENDCHAR
STARTCHAR uni1F4A
ENCODING 8010
SWIDTH 600 0
DWIDTH 5 0
BBX 5 7 -1 0
BITMAP
98
68
28
28
48
48
30
ENDCHAR
STARTCHAR uni1F4B
ENCODING 8011
SWIDTH 600 0
DWIDTH 5 0
BBX 5 7 -1 0
BITMAP
98
68
28
28
48
48
30
ENDCHAR
ENDFONT
